<svg width="72" height="72" viewBox="0 0 72 72" fill="none" xmlns="http://www.w3.org/2000/svg">
<g clip-path="url(#clip0_840_2251)">
<path d="M55.4834 1.91998C57.3739 3.33096 59.0209 5.1368 60.686 6.79791C60.8005 6.91199 60.9149 7.02607 61.0329 7.14361C61.6376 7.74622 62.2419 8.34922 62.8459 8.95257C63.4647 9.57064 64.0848 10.1874 64.7053 10.8038C65.1873 11.2832 65.6683 11.7635 66.1491 12.2441C66.3772 12.4717 66.6056 12.6991 66.8344 12.926C70.0427 16.11 70.0427 16.11 70.928 17.9737C70.973 18.0678 71.0181 18.1619 71.0645 18.2588C72.3413 21.0362 72.4205 24.2531 71.4078 27.1337C70.7413 28.8694 69.6054 30.5665 68.0627 31.6407C67.1425 32.0423 66.2916 31.9504 65.3645 31.6232C64.6684 31.1591 64.0419 30.5034 63.844 29.672C63.7387 28.6787 63.8592 27.7921 64.4933 26.9957C64.6639 26.8054 64.836 26.6164 65.0096 26.4288C66.0755 25.2219 66.2088 23.7593 66.1208 22.2103C65.9424 20.3981 64.5848 19.1204 63.3627 17.8998C63.2484 17.7846 63.1342 17.6694 63.0165 17.5507C62.6419 17.1735 62.2663 16.7974 61.8906 16.4214C61.6943 16.2244 61.4979 16.0273 61.3016 15.8303C60.6854 15.2118 60.0684 14.5941 59.4509 13.9768C58.8174 13.3434 58.1854 12.7085 57.5542 12.0728C57.0089 11.5238 56.4625 10.976 55.9153 10.4289C55.5899 10.1036 55.2651 9.77777 54.9411 9.45105C54.5792 9.08632 54.2154 8.72342 53.8512 8.36092C53.7466 8.25467 53.6419 8.14843 53.5341 8.03897C52.075 6.59686 50.6603 5.84029 48.5947 5.84567C46.2948 5.90719 44.7622 7.50611 43.2294 9.04962C43.1013 9.17749 42.9732 9.30536 42.8412 9.43711C42.4894 9.78828 42.1385 10.1403 41.7877 10.4925C41.4079 10.8736 41.0272 11.2538 40.6467 11.6341C39.9887 12.292 39.3312 12.9503 38.6741 13.609C37.7241 14.5613 36.7733 15.5129 35.8223 16.4642C34.279 18.0081 32.7365 19.5525 31.1943 21.0974C29.6968 22.5974 28.1991 24.0971 26.701 25.5964C26.6085 25.6889 26.5161 25.7815 26.4208 25.8768C25.9569 26.3411 25.493 26.8053 25.0291 27.2696C21.1853 31.1163 17.3424 34.9641 13.5002 38.8126C13.6339 38.9696 13.7677 39.1265 13.9016 39.2833C13.9761 39.3707 14.0506 39.458 14.1274 39.5481C14.3994 39.8607 14.686 40.1549 14.9801 40.4468C15.0916 40.5579 15.2031 40.6689 15.3179 40.7833C15.4316 40.8958 15.5452 41.0083 15.6624 41.1241C15.7793 41.2404 15.8962 41.3567 16.0167 41.4765C16.3025 41.7608 16.5887 42.0447 16.8752 42.3282C17.6474 41.685 18.3609 41.0009 19.0681 40.2875C19.1849 40.1703 19.3016 40.0531 19.4219 39.9324C19.674 39.6793 19.9259 39.4261 20.1776 39.1728C20.5763 38.7716 20.9754 38.371 21.3747 37.9706C22.5095 36.8324 23.6435 35.6934 24.7768 34.5538C25.4041 33.923 26.032 33.2927 26.6604 32.663C26.9922 32.3304 27.3236 31.9975 27.6545 31.6641C28.0234 31.2926 28.3931 30.9219 28.763 30.5514C28.8715 30.4416 28.98 30.3319 29.0918 30.2188C29.7404 29.5715 30.3338 28.9827 31.219 28.6876C31.6217 28.6937 32.0199 28.7085 32.4218 28.7302C33.6964 28.7906 34.9703 28.8287 36.246 28.8542C37.0165 28.8706 37.7849 28.8949 38.5543 28.9388C42.7387 29.1846 42.7387 29.1846 46.3385 27.305C46.6527 27.0107 46.9546 26.7088 47.253 26.3986C47.3483 26.3 47.4436 26.2014 47.5418 26.0998C48.4295 25.1505 49.1568 24.303 49.2435 22.9722C49.2331 22.7457 49.2331 22.7457 49.2224 22.5146C49.2143 21.4665 49.7993 20.375 50.5126 19.6211C51.8545 18.483 53.2502 18.1354 54.983 18.2472C56.0987 18.3819 57.2107 18.971 57.9377 19.8282C58.6909 20.8994 59.1177 21.8604 59.1067 23.1857C59.1059 23.2856 59.1051 23.3854 59.1043 23.4884C59.0871 24.2307 59.0118 24.8108 58.6409 25.4532C58.5827 25.5582 58.5245 25.6632 58.4645 25.7713C57.9882 26.5565 57.455 27.0862 56.6721 27.5626C56.5817 27.6192 56.4912 27.6757 56.398 27.734C55.8794 28.0106 55.5303 28.1365 54.9346 28.0817C54.0654 28.01 53.4892 28.0178 52.7677 28.5554C51.5042 29.6859 50.3961 30.9712 49.2849 32.2485C48.3346 33.3343 47.4552 34.2309 45.9846 34.4532C45.5888 34.4466 45.1985 34.4317 44.8037 34.4085C44.56 34.3961 44.3163 34.384 44.0725 34.3722C43.9436 34.3658 43.8146 34.3595 43.6818 34.353C36.982 33.6816 36.982 33.6816 31 35.903C30.1651 36.7296 29.4733 37.677 28.8978 38.699C28.5862 39.221 28.205 39.5636 27.7394 39.949C27.1104 40.484 26.5406 41.0834 25.9587 41.6685C25.8217 41.8059 25.6845 41.9432 25.5474 42.0805C25.1901 42.4383 24.8333 42.7964 24.4766 43.1547C24.111 43.5217 23.7451 43.8883 23.3792 44.255C22.6639 44.9717 21.9491 45.6889 21.2346 46.4064C21.4958 46.9732 21.8713 47.3602 22.3124 47.7928C22.39 47.8701 22.4676 47.9473 22.5476 48.0269C22.7949 48.2725 23.043 48.5172 23.2913 48.7618C23.4594 48.9286 23.6275 49.0954 23.7955 49.2623C24.2068 49.6704 24.6189 50.0777 25.0315 50.4845C26.1238 49.5619 27.1591 48.5853 28.1853 47.5901C28.4144 47.3696 28.6455 47.1511 28.8784 46.9345C30.5006 45.5177 30.5006 45.5177 31.1393 43.5626C31.121 43.3192 31.121 43.3192 31.1022 43.0709C31.0516 42.0913 31.5721 41.1413 32.1594 40.3771C33.0014 39.4873 34.176 38.8834 35.3905 38.7604C36.9718 38.7339 38.3828 38.9712 39.5823 40.1063C40.4937 41.1807 41.071 42.4571 41.0627 43.8751C40.9043 45.4713 40.3631 46.5905 39.1989 47.6901C38.2819 48.4137 37.2877 48.6584 36.1409 48.797C35.9245 48.7598 35.9245 48.7598 35.7037 48.7218C34.8275 48.8422 34.3944 49.4379 33.7991 50.0582C33.6726 50.1862 33.546 50.3142 33.4156 50.446C33.0802 50.7851 32.7479 51.1271 32.4162 51.4697C32.0767 51.8193 31.7344 52.1661 31.3923 52.5131C30.7225 53.1937 30.0556 53.8771 29.3909 54.5626C29.6417 55.1031 29.9852 55.4745 30.4071 55.8876C30.5142 55.9941 30.5142 55.9941 30.6234 56.1027C30.8506 56.3283 31.0787 56.5529 31.3069 56.7775C31.4615 56.9307 31.616 57.0839 31.7705 57.2372C32.1484 57.6121 32.5272 57.986 32.9065 58.3595C33.446 58.1369 33.7874 57.7948 34.1973 57.3847C34.2689 57.3134 34.3405 57.2422 34.4142 57.1688C34.6538 56.9301 34.8923 56.6903 35.1308 56.4505C35.3025 56.2791 35.4741 56.1077 35.6459 55.9364C36.1123 55.4706 36.5778 55.004 37.0431 54.5372C37.5308 54.0484 38.0191 53.5603 38.5074 53.0721C39.3279 52.2514 40.1479 51.4302 40.9675 50.6086C41.9135 49.6605 42.8602 48.7131 43.8073 47.7661C44.8169 46.7565 45.826 45.7465 46.8349 44.7363C47.1248 44.4461 47.4148 44.1559 47.7048 43.8659C48.1621 43.4084 48.6191 42.9506 49.0757 42.4926C49.2428 42.3251 49.4099 42.1578 49.5772 41.9906C50.3562 41.2118 51.1298 40.4341 51.8442 39.5944C52.3008 39.0597 52.8092 38.5714 53.3059 38.0743C53.4151 37.9634 53.5243 37.8525 53.6369 37.7382C54.5612 36.8115 55.2796 36.1262 56.6458 36.1056C57.554 36.1154 58.0461 36.2928 58.7375 36.8878C59.4273 37.6894 59.5337 38.3146 59.5544 39.3476C59.3328 40.775 58.2635 41.6564 57.2861 42.6197C57.1171 42.7883 56.9482 42.957 56.7794 43.1259C56.3224 43.5824 55.8637 44.0372 55.4048 44.4918C54.9235 44.9689 54.4439 45.4478 53.9642 45.9265C53.0551 46.8331 52.1446 47.7384 51.2335 48.6431C49.8985 49.969 48.5652 51.2967 47.2322 52.6248C47.1342 52.7225 47.0361 52.8201 46.9351 52.9207C46.7396 53.1156 46.544 53.3105 46.3484 53.5053C45.7778 54.0738 45.2068 54.6417 44.6353 55.2092C44.2789 55.5632 43.9228 55.9175 43.5667 56.2718C43.4024 56.4352 43.2379 56.5984 43.0734 56.7615C42.3034 57.5247 41.5432 58.2886 40.8385 59.1136C40.5808 59.4139 40.3083 59.6972 40.0306 59.979C39.9217 60.0897 39.8128 60.2004 39.7006 60.3145C39.5861 60.43 39.4717 60.5455 39.3538 60.6644C39.1726 60.8473 39.1726 60.8473 38.9878 61.0339C38.7338 61.2898 38.4796 61.5456 38.2251 61.8011C37.9661 62.0618 37.7077 62.3231 37.4499 62.585C37.0752 62.9657 36.6986 63.3445 36.3216 63.723C36.2074 63.8396 36.0933 63.9562 35.9757 64.0764C35.2214 64.8278 34.5286 65.4242 33.4465 65.6061C33.3118 65.6046 33.1771 65.6032 33.0383 65.6017C32.8358 65.6039 32.8358 65.6039 32.6291 65.6061C31.6385 65.4322 30.9684 64.7784 30.2923 64.0834C30.2094 63.9999 30.1265 63.9164 30.0411 63.8304C29.7794 63.5663 29.5192 63.3008 29.259 63.0353C29.0807 62.8548 28.9023 62.6745 28.7237 62.4942C28.2887 62.0546 27.8551 61.6136 27.4221 61.172C26.7399 61.7396 26.101 62.335 25.4789 62.9675C25.3436 63.1042 25.3436 63.1042 25.2055 63.2436C25.0112 63.4398 24.8171 63.6362 24.6232 63.8327C24.3155 64.1441 24.0072 64.4549 23.6987 64.7655C22.8222 65.648 21.946 66.5309 21.0721 67.4161C20.5361 67.959 19.9986 68.5005 19.4603 69.0411C19.2562 69.2465 19.0527 69.4525 18.8496 69.659C18.5653 69.9481 18.2793 70.2353 17.9929 70.5222C17.9104 70.607 17.8278 70.6918 17.7428 70.7791C17.0801 71.4371 16.3784 71.9244 15.4415 72.0699C15.3056 72.0672 15.1696 72.0644 15.0295 72.0616C14.8929 72.0615 14.7562 72.0613 14.6154 72.0611C12.8484 71.7996 11.3497 69.727 10.1463 68.5161C9.84965 68.2176 9.55258 67.9197 9.25539 67.6218C8.62502 66.9898 7.99521 66.3573 7.36548 65.7247C6.63395 64.9899 5.90219 64.2552 5.16983 63.5212C4.87885 63.2293 4.5883 62.937 4.29777 62.6447C3.13844 61.477 3.13844 61.477 1.91292 60.3798C1.10901 59.6938 0.340992 58.9599 0.000244141 57.9376C-0.0201618 57.6657 -0.0307962 57.3929 -0.0349121 57.1202C-0.0385376 56.9772 -0.0421631 56.8342 -0.0458984 56.6868C0.0402044 55.8719 0.452857 55.3212 0.993408 54.7296C1.09075 54.6214 1.1881 54.5132 1.28839 54.4017C1.60921 54.0675 1.95211 53.7638 2.29958 53.4576C3.21732 52.6339 4.08419 51.7619 4.95398 50.8882C5.1285 50.7135 5.30305 50.5387 5.47763 50.364C5.93243 49.9086 6.38682 49.4529 6.8411 48.997C7.30659 48.5301 7.77248 48.0636 8.23834 47.597C9.14896 46.6849 10.0591 45.7723 10.969 44.8595C10.4545 44.2443 9.9255 43.6611 9.35016 43.1011C9.20739 42.9608 9.06466 42.8205 8.92197 42.6801C8.70117 42.4636 8.48006 42.2476 8.25822 42.0322C8.04115 41.8211 7.82546 41.6087 7.60992 41.396C7.482 41.2712 7.35408 41.1464 7.22228 41.0178C6.66386 40.3825 6.40859 39.8156 6.40747 38.9708C6.40475 38.8349 6.40203 38.6989 6.39923 38.5588C6.60326 37.2447 7.49179 36.4444 8.39765 35.5479C8.53936 35.4056 8.68095 35.2632 8.82243 35.1207C9.21001 34.7311 9.59932 34.3432 9.98894 33.9556C10.4094 33.5366 10.8283 33.1161 11.2474 32.6957C12.0682 31.873 12.8905 31.0518 13.7132 30.2311C14.672 29.2747 15.6294 28.3169 16.5867 27.359C18.2955 25.6494 20.0057 23.9412 21.7166 22.2337C23.3755 20.5783 25.0331 18.9217 26.6895 17.2638C28.4942 15.4574 30.2996 13.6518 32.1062 11.8473C32.299 11.6546 32.4918 11.462 32.6846 11.2694C32.7795 11.1747 32.8744 11.0799 32.9721 10.9823C33.6393 10.3157 34.306 9.64878 34.9725 8.98164C35.7856 8.1679 36.5994 7.35494 37.4142 6.54295C37.8296 6.12895 38.2446 5.71464 38.6587 5.29939C39.0385 4.91864 39.4192 4.53889 39.8007 4.15989C40.0025 3.95893 40.2033 3.75695 40.404 3.55493C44.522 -0.52321 50.6051 -1.24493 55.4834 1.91998ZM14.9831 49.1285C14.8967 49.2165 14.8104 49.3045 14.7214 49.3952C14.6254 49.4923 14.5294 49.5893 14.4305 49.6894C14.2302 49.8933 14.0298 50.0973 13.8296 50.3013C13.7323 50.3996 13.6351 50.498 13.5349 50.5993C13.4036 50.733 13.4036 50.733 13.2698 50.8693C12.9895 51.138 12.704 51.3918 12.4102 51.6452C11.7993 52.1763 11.227 52.7398 10.657 53.314C10.5002 53.4711 10.5002 53.4711 10.3402 53.6314C10.0104 53.962 9.6811 54.293 9.35181 54.6241C9.12662 54.85 8.9014 55.0759 8.67615 55.3017C8.12755 55.8519 7.57937 56.4024 7.03149 56.9532C7.24811 57.4677 7.55781 57.7956 7.95091 58.1881C8.0477 58.2853 8.0477 58.2853 8.14643 58.3844C8.35931 58.5978 8.57318 58.8102 8.78711 59.0225C8.93607 59.1713 9.08499 59.3202 9.23385 59.4691C9.54597 59.781 9.85857 60.0924 10.1715 60.4035C10.571 60.8005 10.9695 61.1985 11.3677 61.5969C11.6754 61.9044 11.9833 62.2116 12.2914 62.5187C12.4384 62.6652 12.5853 62.8118 12.7321 62.9585C13.7803 64.0066 13.7803 64.0066 14.9065 64.9689C15.4598 64.7449 15.8312 64.3632 16.2428 63.9457C16.3184 63.8702 16.3939 63.7947 16.4717 63.717C16.7204 63.4681 16.9681 63.2182 17.2158 62.9683C17.3884 62.7952 17.561 62.6222 17.7336 62.4492C18.1874 61.9944 18.6403 61.5388 19.093 61.0829C19.5553 60.6177 20.0184 60.1533 20.4815 59.6888C21.3896 58.7777 22.2968 57.8658 23.2034 56.9532C22.4397 56.025 21.594 55.1828 20.7441 54.3346C20.588 54.1784 20.4319 54.0222 20.2758 53.8659C19.9506 53.5406 19.6252 53.2155 19.2996 52.8905C18.8814 52.4731 18.4639 52.0551 18.0465 51.6369C17.7253 51.3152 17.4037 50.9937 17.082 50.6724C16.9278 50.5183 16.7736 50.364 16.6196 50.2097C16.4055 49.9953 16.191 49.7813 15.9764 49.5674C15.8543 49.4455 15.7323 49.3236 15.6065 49.1979C15.2883 48.8638 15.2883 48.8638 14.9831 49.1285Z" fill="url(#paint0_linear_840_2251)"/>
</g>
<defs>
<linearGradient id="paint0_linear_840_2251" x1="-18.0829" y1="10.7677" x2="104.557" y2="57.6773" gradientUnits="userSpaceOnUse">
<stop offset="0.00899994" stop-color="#8FEEFC"/>
<stop offset="0.529" stop-color="#4E8AEE"/>
<stop offset="1" stop-color="#0048FF"/>
</linearGradient>
<clipPath id="clip0_840_2251">
<rect width="72" height="72" fill="white"/>
</clipPath>
</defs>
</svg>
