<svg width="20" height="21" viewBox="0 0 20 21" fill="none" xmlns="http://www.w3.org/2000/svg">
<g clip-path="url(#clip0_216_270)">
<path d="M12.2558 4.93156L16.97 9.88143C17.1262 10.0455 17.214 10.268 17.214 10.5001C17.214 10.7321 17.1262 10.9546 16.97 11.1187L12.2558 16.0686C12.0987 16.2279 11.8882 16.3161 11.6697 16.3141C11.4512 16.3122 11.2422 16.2201 11.0877 16.0579C10.9331 15.8957 10.8455 15.6762 10.8436 15.4468C10.8417 15.2174 10.9257 14.9963 11.0775 14.8313L14.3692 11.3751H3.33333C3.11232 11.3751 2.90036 11.2829 2.74408 11.1188C2.5878 10.9547 2.5 10.7321 2.5 10.5001C2.5 10.268 2.5878 10.0454 2.74408 9.88134C2.90036 9.71724 3.11232 9.62506 3.33333 9.62506H14.3692L11.0775 6.16881C10.9979 6.08809 10.9344 5.99154 10.8907 5.88478C10.8471 5.77803 10.8241 5.66321 10.8231 5.54703C10.8222 5.43085 10.8432 5.31563 10.8851 5.2081C10.927 5.10056 10.9889 5.00287 11.0672 4.92071C11.1454 4.83855 11.2385 4.77358 11.3409 4.72959C11.4433 4.68559 11.553 4.66345 11.6637 4.66446C11.7743 4.66547 11.8837 4.68961 11.9853 4.73547C12.087 4.78133 12.179 4.84798 12.2558 4.93156Z" fill="white"/>
</g>
<defs>
<clipPath id="clip0_216_270">
<rect width="20" height="21" fill="white"/>
</clipPath>
</defs>
</svg>
