<svg width="72" height="72" viewBox="0 0 72 72" fill="none" xmlns="http://www.w3.org/2000/svg">
<g clip-path="url(#clip0_840_2923)">
<path d="M10.7591 -0.0184834C11.0331 -0.0192937 11.0331 -0.0192937 11.3127 -0.0201203C11.5145 -0.0200106 11.7162 -0.019887 11.918 -0.019751C12.1331 -0.0201146 12.3482 -0.0205383 12.5633 -0.0210171C13.154 -0.0221502 13.7448 -0.0224035 14.3355 -0.0225074C14.9728 -0.022768 15.6101 -0.0238295 16.2474 -0.0247764C17.6409 -0.0266855 19.0344 -0.0275337 20.4279 -0.0281529C21.2984 -0.0285416 22.1689 -0.0291376 23.0394 -0.0297707C25.4507 -0.0314853 27.8619 -0.0329335 30.2732 -0.0334094C30.4275 -0.0334403 30.5818 -0.0334711 30.7407 -0.033503C30.8954 -0.0335336 31.0501 -0.0335643 31.2094 -0.033596C31.5228 -0.0336583 31.8362 -0.0337211 32.1496 -0.0337844C32.305 -0.0338155 32.4605 -0.0338466 32.6207 -0.0338787C35.1382 -0.0344336 37.6557 -0.0368872 40.1733 -0.040163C42.7594 -0.0435008 45.3455 -0.0452504 47.9316 -0.0454143C49.383 -0.045543 50.8344 -0.0463479 52.2859 -0.0489045C53.5221 -0.0510744 54.7583 -0.0517879 55.9945 -0.0506288C56.6248 -0.0500809 57.255 -0.0502031 57.8853 -0.0521838C58.4634 -0.0539839 59.0414 -0.0537992 59.6195 -0.0521007C59.8275 -0.051827 60.0356 -0.0522514 60.2436 -0.0534851C63.5075 -0.0716014 66.4489 0.963899 68.8008 3.26184C69.6685 4.14677 70.3401 5.04554 70.9102 6.14355C70.9771 6.26977 70.9771 6.26977 71.0455 6.39854C71.8647 8.06226 72.0842 9.76577 72.0706 11.5972C72.0711 11.8053 72.0719 12.0135 72.0729 12.2216C72.0748 12.7797 72.0733 13.3377 72.071 13.8958C72.069 14.4827 72.0699 15.0695 72.0704 15.6564C72.0708 16.6399 72.0689 17.6234 72.0656 18.607C72.0619 19.7427 72.0617 20.8783 72.0633 22.014C72.0648 23.1105 72.0639 24.2069 72.062 25.3034C72.0611 25.7686 72.0612 26.2338 72.0618 26.699C72.0625 27.246 72.0611 27.793 72.058 28.34C72.0573 28.5404 72.0572 28.7407 72.0579 28.941C72.0587 29.215 72.0567 29.4889 72.0546 29.7628C72.0542 29.9159 72.0539 30.069 72.0535 30.2267C71.9467 31.0848 71.518 31.6498 70.875 32.2031C70.0983 32.7525 69.2592 32.7169 68.3438 32.625C67.5493 32.3505 67.0422 31.8563 66.5692 31.1692C66.2754 30.3929 66.3157 29.6443 66.3187 28.821C66.3177 28.6359 66.3167 28.4508 66.3157 28.2601C66.3136 27.8584 66.3128 27.4567 66.313 27.055C66.3133 26.4182 66.3105 25.7815 66.3073 25.1447C66.3016 23.9063 66.299 22.6679 66.2966 21.4295C66.2935 19.8568 66.2887 18.2841 66.2815 16.7114C66.2788 16.0801 66.2774 15.4489 66.2772 14.8176C66.2768 14.4224 66.2753 14.0271 66.2735 13.6319C66.2726 13.365 66.2731 13.0982 66.2736 12.8313C66.2618 10.8242 66.072 8.93005 64.6573 7.396C63.1427 6.04375 61.4466 5.84282 59.4909 5.85268C59.2795 5.85219 59.0682 5.85152 58.8568 5.85068C58.2791 5.84893 57.7014 5.84979 57.1236 5.8511C56.4994 5.85206 55.8751 5.85058 55.2509 5.84942C54.0292 5.84755 52.8075 5.84795 51.5858 5.84917C50.5927 5.85013 49.5996 5.85025 48.6065 5.8498C48.4651 5.84973 48.3236 5.84967 48.1779 5.8496C47.8905 5.84946 47.603 5.84933 47.3156 5.84919C44.6221 5.84799 41.9285 5.84937 39.2349 5.85164C36.9249 5.85352 34.6148 5.85319 32.3048 5.85125C29.6207 5.84899 26.9366 5.8481 24.2525 5.8494C23.9662 5.84953 23.6798 5.84966 23.3935 5.8498C23.2526 5.84986 23.1118 5.84993 22.9666 5.84999C21.975 5.85036 20.9833 5.84974 19.9917 5.84875C18.7828 5.84757 17.574 5.84789 16.3651 5.85013C15.7486 5.85124 15.1321 5.85168 14.5156 5.85028C13.9508 5.84902 13.3859 5.84972 12.8211 5.85196C12.6172 5.85243 12.4134 5.8522 12.2096 5.85117C10.3386 5.84247 8.65822 6.12579 7.27518 7.48498C5.92533 9.0598 5.74328 10.7696 5.74685 12.7647C5.74637 12.9635 5.74637 12.9635 5.74589 13.1663C5.745 13.6074 5.74511 14.0484 5.74523 14.4895C5.74481 14.807 5.74433 15.1245 5.7438 15.442C5.74256 16.3023 5.74222 17.1626 5.74214 18.0229C5.74203 18.5609 5.74173 19.099 5.74136 19.637C5.74013 21.4186 5.73947 23.2001 5.73958 24.9817C5.73959 25.1255 5.73959 25.1255 5.7396 25.2722C5.73961 25.4162 5.73961 25.4162 5.73961 25.5631C5.73967 27.1183 5.73833 28.6734 5.73634 30.2285C5.73432 31.8285 5.73338 33.4284 5.73347 35.0283C5.73351 35.9253 5.73311 36.8223 5.73162 37.7193C5.73026 38.5632 5.73025 39.407 5.73127 40.2509C5.73142 40.5597 5.73109 40.8686 5.73024 41.1774C5.70142 44.7911 5.70142 44.7911 7.47018 47.8477C8.85918 49.1414 10.4035 49.2815 12.2314 49.2733C12.4449 49.2739 12.6583 49.2746 12.8718 49.2756C13.456 49.2776 14.0402 49.277 14.6243 49.276C15.2553 49.2753 15.8863 49.2771 16.5172 49.2785C17.7524 49.2809 18.9876 49.281 20.2228 49.2803C21.227 49.2797 22.2311 49.2799 23.2353 49.2807C23.3783 49.2808 23.5213 49.2809 23.6686 49.281C23.9592 49.2812 24.2497 49.2814 24.5403 49.2817C27.2639 49.2836 29.9875 49.2828 32.7111 49.2812C35.2016 49.2798 37.6921 49.2816 40.1826 49.285C42.7413 49.2884 45.2999 49.2898 47.8585 49.2888C49.2944 49.2883 50.7303 49.2887 52.1663 49.2911C53.3887 49.2932 54.611 49.2933 55.8334 49.2908C56.4568 49.2896 57.0801 49.2893 57.7035 49.2915C58.2748 49.2934 58.8461 49.2928 59.4174 49.29C59.6234 49.2895 59.8294 49.2899 60.0354 49.2914C61.7119 49.3025 63.0855 49.0592 64.3964 47.9597C65.5904 46.7792 66.0373 45.5702 66.2168 43.9365C66.3442 42.9107 66.5405 42.2317 67.3297 41.5476C67.9963 41.0762 68.6523 40.8747 69.4688 40.9219C70.3363 41.0856 70.9638 41.4179 71.5782 42.0469C72.0384 42.7718 72.0717 43.3849 72.0616 44.2178C72.0603 44.3423 72.059 44.4668 72.0577 44.595C71.9938 47.052 70.9884 49.5064 69.3282 51.3281C69.2275 51.4416 69.1269 51.5551 69.0233 51.672C67.1733 53.6457 64.6126 54.9737 61.8947 55.1628C61.2836 55.1816 60.6726 55.1773 60.0613 55.1729C59.8283 55.1728 59.5952 55.1728 59.3622 55.1731C58.7353 55.1732 58.1085 55.1707 57.4816 55.1678C56.8243 55.1651 56.1671 55.1649 55.5098 55.1644C54.2678 55.1631 53.0257 55.1596 51.7837 55.1554C50.3686 55.1507 48.9535 55.1483 47.5384 55.1462C44.6298 55.1418 41.7211 55.1344 38.8125 55.125C38.8134 55.5815 38.8229 56.0375 38.834 56.4939C38.8341 56.623 38.8343 56.7522 38.8344 56.8852C38.8518 57.6863 38.8518 57.6863 39.3228 58.3142C39.7376 58.5442 39.7376 58.5442 40.1985 58.7324C41.4812 59.2821 42.2599 60.6224 42.7813 61.8618C43.5643 63.9498 43.5126 66.0347 42.5918 68.0801C41.558 70.0084 39.8774 71.217 37.8282 71.8594C36.0532 72.3081 34.1049 72.0399 32.4844 71.2255C30.5921 70.0953 29.3294 68.4214 28.7578 66.2871C28.4278 64.1993 28.7747 62.2274 29.9532 60.4688C30.7985 59.3449 31.791 58.5655 33.0469 57.9375C33.0933 57.0094 33.1397 56.0813 33.1875 55.125C32.8965 55.1263 32.6056 55.1275 32.3058 55.1288C29.5582 55.1403 26.8107 55.1487 24.0632 55.1541C22.6507 55.157 21.2384 55.161 19.826 55.1674C18.594 55.1731 17.3621 55.1767 16.1301 55.1779C15.4786 55.1787 14.8272 55.1804 14.1757 55.1845C13.5607 55.1883 12.9458 55.1895 12.3308 55.1886C12.1067 55.1888 11.8827 55.1899 11.6587 55.1921C9.73655 55.2098 7.85421 54.9599 6.1348 54.0352C6.04187 53.9867 5.94894 53.9383 5.8532 53.8884C5.0417 53.4522 4.33481 52.9368 3.65628 52.3125C3.53809 52.2072 3.4199 52.1019 3.29813 51.9934C1.40691 50.2196 0.0441265 47.5595 -0.0534519 44.9348C-0.055909 44.6689 -0.0561542 44.4029 -0.0544872 44.137C-0.0552446 43.9889 -0.0560018 43.8408 -0.0567821 43.6882C-0.0587777 43.197 -0.0577944 42.7058 -0.0567896 42.2145C-0.0575924 41.8602 -0.058572 41.506 -0.0597143 41.1517C-0.0619702 40.2923 -0.0622514 39.4328 -0.0615125 38.5734C-0.0609421 37.8742 -0.0611492 37.1749 -0.0618987 36.4757C-0.062004 36.3758 -0.06211 36.276 -0.0622184 36.1731C-0.0624338 35.9702 -0.0626492 35.7673 -0.0628665 35.5643C-0.0647932 33.665 -0.0640348 31.7657 -0.0624191 29.8664C-0.061023 28.1329 -0.0628411 26.3994 -0.0662063 24.6659C-0.069644 22.8814 -0.0709861 21.097 -0.0700526 19.3126C-0.0695632 18.3125 -0.0698643 17.3125 -0.0723379 16.3125C-0.0746363 15.3716 -0.0739483 14.4308 -0.07131 13.49C-0.0707937 13.1459 -0.0712232 12.8019 -0.0727005 12.4579C-0.0816408 10.2027 0.0110942 8.17833 1.08987 6.14355C1.13809 6.0502 1.18631 5.95684 1.23599 5.86066C1.67038 5.04579 2.18878 4.33794 2.81253 3.65625C2.89555 3.56035 2.97858 3.46446 3.06412 3.36566C4.96233 1.30186 7.96855 -0.0153782 10.7591 -0.0184834ZM34.875 63.5625C34.5659 63.9437 34.4638 64.1938 34.3916 64.6787C34.4705 65.2307 34.6645 65.5239 35.0157 65.9531C35.4668 66.2839 35.873 66.3003 36.4219 66.2344C36.8529 66.0023 37.1683 65.8046 37.459 65.4082C37.6231 64.8503 37.6137 64.4252 37.3887 63.8877C37.0602 63.4826 36.7652 63.3283 36.2813 63.1406C35.6578 63.1406 35.3995 63.2389 34.875 63.5625Z" fill="url(#paint0_linear_840_2923)"/>
<path d="M45.7872 12.4871C45.9039 12.4863 46.0206 12.4855 46.1409 12.4846C46.3878 12.4833 46.6347 12.4824 46.8816 12.4818C47.2541 12.4805 47.6265 12.4761 47.999 12.4717C50.2709 12.4573 52.2568 12.754 53.9736 14.3789C55.6633 16.1804 55.9927 18.1108 55.9847 20.4947C55.9847 20.6567 55.9847 20.8187 55.9848 20.9857C55.9847 21.5183 55.9836 22.0509 55.9825 22.5835C55.9822 22.9539 55.982 23.3244 55.9819 23.6948C55.9814 24.5683 55.9803 25.4418 55.9789 26.3153C55.9773 27.3104 55.9765 28.3055 55.9758 29.3006C55.9743 31.3462 55.9719 33.3919 55.9687 35.4375C56.1476 35.4359 56.3265 35.4343 56.5108 35.4326C57.2047 35.4263 57.6638 35.5755 58.2187 36C58.8638 36.687 59.1873 37.3891 59.2267 38.3319C59.1606 39.2839 58.7419 39.9769 58.0781 40.6406C57.3677 41.0611 56.7777 41.2205 55.9601 41.2216C55.7434 41.2224 55.7434 41.2224 55.5224 41.2232C55.3639 41.2231 55.2055 41.223 55.0422 41.2229C54.8737 41.2233 54.7052 41.2237 54.5316 41.2241C54.0636 41.2252 53.5957 41.2255 53.1277 41.2256C52.6231 41.2259 52.1185 41.227 51.6139 41.2279C50.5104 41.2298 49.4069 41.2307 48.3034 41.2313C47.6143 41.2317 46.9252 41.2323 46.2361 41.2329C44.3282 41.2346 42.4202 41.2361 40.5123 41.2365C40.3902 41.2366 40.2681 41.2366 40.1423 41.2366C40.0199 41.2367 39.8975 41.2367 39.7713 41.2367C39.5233 41.2368 39.2753 41.2368 39.0273 41.2369C38.9042 41.2369 38.7812 41.237 38.6544 41.237C36.661 41.2376 34.6676 41.24 32.6742 41.2433C30.6274 41.2466 28.5807 41.2484 26.5339 41.2485C25.3848 41.2487 24.2357 41.2495 23.0866 41.252C22.108 41.2542 21.1295 41.2549 20.151 41.2538C19.6519 41.2532 19.1528 41.2533 18.6536 41.2553C18.1121 41.2574 17.5707 41.2563 17.0292 41.2548C16.872 41.2559 16.7148 41.2571 16.5528 41.2582C15.2617 41.25 14.2923 41.0111 13.3594 40.0781C12.8929 39.3865 12.7752 38.6511 12.7969 37.8281C12.9661 37.0239 13.3356 36.3027 14.0279 35.8325C14.5374 35.5463 14.9032 35.4247 15.4897 35.4314C15.6684 35.4334 15.8471 35.4354 16.0312 35.4375C16.0298 35.2845 16.0283 35.1314 16.0268 34.9737C16.0216 34.3982 16.0184 33.8227 16.0158 33.2471C16.0144 32.9994 16.0125 32.7518 16.01 32.5042C15.9842 29.8348 16.1475 27.6483 18.0912 25.6201C19.5835 24.2319 21.2502 23.7397 23.2504 23.7519C23.374 23.7521 23.4977 23.7523 23.6251 23.7525C24.0176 23.7533 24.4102 23.755 24.8027 23.7568C25.0699 23.7575 25.337 23.7582 25.6042 23.7588C26.2569 23.7603 26.9097 23.7627 27.5625 23.7656C27.5814 23.6136 27.6003 23.4615 27.6197 23.3048C27.7126 22.7214 27.8998 22.3037 28.1689 21.7793C28.2525 21.6136 28.3361 21.4479 28.4222 21.2772C29.309 19.7238 30.8088 18.8212 32.4844 18.2812C33.2078 18.1276 33.9055 18.1224 34.641 18.1269C34.7646 18.1271 34.8883 18.1273 35.0157 18.1275C35.4083 18.1283 35.8008 18.13 36.1933 18.1318C36.4605 18.1325 36.7276 18.1332 36.9948 18.1338C37.6476 18.1353 38.3003 18.1377 38.9531 18.1406C38.973 17.964 38.993 17.7873 39.0135 17.6053C39.1695 16.222 40.0461 14.9755 41.0625 14.0625C41.9294 13.4046 42.8156 12.9161 43.875 12.6562C44.0206 12.6201 44.0206 12.6201 44.1692 12.5833C44.7085 12.4941 45.242 12.49 45.7872 12.4871ZM44.5781 18.8437C44.473 19.3717 44.4894 19.8942 44.4983 20.4309C44.4982 20.5928 44.4981 20.7547 44.498 20.9216C44.4985 21.4573 44.5039 21.9929 44.5094 22.5286C44.5108 22.8998 44.5118 23.271 44.5125 23.6423C44.5146 24.5198 44.5204 25.3973 44.5275 26.2748C44.5353 27.274 44.5392 28.2731 44.5427 29.2723C44.5501 31.3274 44.563 33.3824 44.5781 35.4375C46.4344 35.4375 48.2906 35.4375 50.2031 35.4375C50.2126 33.3228 50.2204 31.208 50.225 29.0933C50.2271 28.1113 50.2301 27.1294 50.2349 26.1475C50.2396 25.2001 50.242 24.2528 50.2431 23.3054C50.2439 22.9437 50.2454 22.582 50.2477 22.2203C50.2508 21.7143 50.2512 21.2083 50.251 20.7023C50.2525 20.5523 50.254 20.4022 50.2556 20.2477C50.2613 19.2619 50.2613 19.2619 49.7812 18.4219C49.1792 18.1208 48.3832 18.2436 47.7149 18.2397C47.4195 18.2373 47.1243 18.2312 46.8289 18.2249C46.6402 18.2235 46.4516 18.2223 46.2629 18.2214C46.0916 18.2193 45.9203 18.2173 45.7439 18.2152C45.155 18.2993 44.9707 18.3928 44.5781 18.8437ZM33.8906 23.9062C33.1753 24.5623 33.1753 24.5623 33.1 25.384C33.1025 25.4827 33.1051 25.5815 33.1077 25.6832C33.1076 25.7889 33.1075 25.8946 33.1073 26.0035C33.1078 26.3514 33.1133 26.6989 33.1188 27.0467C33.1201 27.2885 33.1211 27.5302 33.1218 27.772C33.1245 28.4071 33.1314 29.0421 33.1392 29.6772C33.1477 30.4398 33.1509 31.2024 33.155 31.9651C33.1618 33.1226 33.1753 34.2799 33.1875 35.4375C35.0437 35.4375 36.9 35.4375 38.8125 35.4375C38.8125 31.6322 38.8125 27.8269 38.8125 23.9062C37.1883 23.9062 35.564 23.9062 33.8906 23.9062ZM21.9375 29.9531C21.7613 30.4816 21.7794 30.9733 21.7831 31.5236C21.7833 31.6227 21.7834 31.7218 21.7836 31.8239C21.7843 32.1935 21.7863 32.563 21.7881 32.9326C21.791 33.7592 21.7939 34.5858 21.7969 35.4375C23.6531 35.4375 25.5094 35.4375 27.4219 35.4375C27.4219 33.4884 27.4219 31.5394 27.4219 29.5312C26.6214 29.5225 25.8208 29.5138 24.9961 29.5049C24.7442 29.501 24.4924 29.4972 24.2329 29.4932C24.0325 29.492 23.832 29.4909 23.6316 29.4901C23.4765 29.4868 23.4765 29.4868 23.3183 29.4835C22.7274 29.4832 22.351 29.5105 21.9375 29.9531Z" fill="url(#paint1_linear_840_2923)"/>
</g>
<defs>
<linearGradient id="paint0_linear_840_2923" x1="-18.1106" y1="10.7657" x2="104.532" y2="57.6704" gradientUnits="userSpaceOnUse">
<stop offset="0.00899994" stop-color="#8FEEFC"/>
<stop offset="0.529" stop-color="#4E8AEE"/>
<stop offset="1" stop-color="#0048FF"/>
</linearGradient>
<linearGradient id="paint1_linear_840_2923" x1="1.18636" y1="16.7892" x2="66.7315" y2="57.2122" gradientUnits="userSpaceOnUse">
<stop offset="0.00899994" stop-color="#8FEEFC"/>
<stop offset="0.529" stop-color="#4E8AEE"/>
<stop offset="1" stop-color="#0048FF"/>
</linearGradient>
<clipPath id="clip0_840_2923">
<rect width="72" height="72" fill="white"/>
</clipPath>
</defs>
</svg>
