<svg width="72" height="72" viewBox="0 0 72 72" fill="none" xmlns="http://www.w3.org/2000/svg">
<g clip-path="url(#clip0_399_894)">
<path d="M34.2043 -0.0285963C34.3372 -0.0295891 34.4701 -0.0305818 34.607 -0.0316047C40.0987 -0.0633356 40.0987 -0.0633356 42.4688 0.421843C42.609 0.449034 42.7491 0.476225 42.8935 0.504241C48.3242 1.57731 53.4045 3.78812 57.7969 7.17184C57.9111 7.25904 58.0253 7.34623 58.143 7.43606C60.5428 9.30971 62.8435 11.5058 64.649 13.9615C64.8313 14.2074 65.0184 14.4489 65.2067 14.6903C66.3126 16.1268 67.2105 17.6677 68.0626 19.2656C68.1559 19.4401 68.1559 19.4401 68.251 19.618C69.8706 22.6982 70.9493 26.1141 71.5782 29.5312C71.6008 29.6438 71.6234 29.7564 71.6467 29.8724C72.419 33.8209 72.3845 38.5298 71.5782 42.4687C71.551 42.6089 71.5238 42.749 71.4958 42.8934C70.3541 48.6715 67.9115 53.8879 64.2657 58.5C64.1515 58.6459 64.0373 58.7918 63.9196 58.9422C62.138 61.1312 60.0908 63.1797 57.7969 64.8281C57.6324 64.9496 57.468 65.0711 57.3036 65.1928C54.4031 67.3224 51.2237 69.0214 47.8126 70.1718C47.6406 70.2299 47.6406 70.2299 47.4652 70.2892C46.0912 70.7445 44.7016 71.1007 43.2862 71.4023C43.1562 71.4303 43.0261 71.4582 42.8922 71.487C40.6131 71.95 38.3723 72.0527 36.0528 72.0439C35.838 72.0435 35.838 72.0435 35.6189 72.043C33.5627 72.036 31.5519 71.993 29.5313 71.5781C29.3889 71.5502 29.2465 71.5222 29.0998 71.4934C23.3212 70.3379 18.1271 67.8853 13.5001 64.2656C13.4242 64.2067 13.3484 64.1477 13.2703 64.087C11.0689 62.3569 8.9836 60.3 7.34201 58.0294C7.16435 57.7865 6.98074 57.5491 6.79565 57.3118C3.59738 53.162 1.57359 48.1029 0.527397 42.9961C0.495532 42.842 0.495532 42.842 0.463024 42.6849C0.0366322 40.4779 -0.0524295 38.295 -0.0438921 36.0527C-0.043589 35.9095 -0.0432859 35.7663 -0.0429737 35.6188C-0.0359842 33.5623 0.00819825 31.5523 0.421928 29.5312C0.462715 29.321 0.462715 29.321 0.504326 29.1065C1.83052 22.3947 4.91998 16.1656 9.70318 11.25C9.80057 11.149 9.89796 11.0479 9.9983 10.9439C11.3679 9.52809 12.7389 8.1774 14.3438 7.03122C14.4309 6.96829 14.5179 6.90537 14.6076 6.84054C20.2541 2.78083 27.1802 0.0064682 34.2043 -0.0285963ZM17.7188 11.8125C17.5769 11.9221 17.4349 12.0318 17.2887 12.1448C16.3122 12.9246 15.394 13.769 14.4844 14.625C14.3918 14.7116 14.2992 14.7983 14.2037 14.8875C9.09694 19.8174 5.85448 27.4322 5.71844 34.4954C5.71272 34.9647 5.71184 35.4339 5.71294 35.9033C5.71302 36.0263 5.7131 36.1494 5.71318 36.2762C5.73166 42.7733 7.80872 49.1243 11.8126 54.2812C11.9222 54.4232 12.0319 54.5651 12.1449 54.7113C12.9247 55.6878 13.7691 56.606 14.6251 57.5156C14.7117 57.6082 14.7984 57.7009 14.8876 57.7963C20.0855 63.1807 27.9441 66.1775 35.3392 66.3744C43.8524 66.4572 51.3714 63.1567 57.5157 57.375C57.6083 57.2883 57.7009 57.2017 57.7964 57.1124C62.9032 52.1825 66.1456 44.5678 66.2817 37.5045C66.2874 37.0352 66.2883 36.566 66.2872 36.0966C66.2871 35.9736 66.287 35.8506 66.2869 35.7238C66.2684 29.2267 64.1914 22.8756 60.1876 17.7187C60.0779 17.5768 59.9682 17.4348 59.8552 17.2886C59.0754 16.3121 58.231 15.3939 57.3751 14.4843C57.2884 14.3917 57.2018 14.2991 57.1125 14.2036C51.8929 8.7968 44.0126 5.79561 36.5977 5.62936C29.827 5.55966 23.092 7.64074 17.7188 11.8125Z" fill="url(#paint0_linear_399_894)"/>
<path d="M35.956 12.3311C36.0677 12.3314 36.1793 12.3317 36.2943 12.332C37.9631 12.3393 39.5756 12.3966 41.2031 12.7969C41.3182 12.8241 41.4333 12.8513 41.5519 12.8793C47.8474 14.4038 53.0881 18.4082 56.4582 23.9036C58.6606 27.6165 59.6881 31.6981 59.6777 36.0001C59.6777 36.1141 59.6777 36.2281 59.6776 36.3456C59.6728 38.2003 59.5421 39.966 59.0625 41.7657C59.0362 41.8667 59.0098 41.9676 58.9827 42.0717C58.8055 42.7316 58.5937 43.3741 58.3594 44.0157C58.3225 44.1186 58.2857 44.2214 58.2478 44.3274C57.2927 46.9554 57.2927 46.9554 56.0605 47.55C55.2966 47.7998 54.4216 47.833 53.6649 47.544C52.9282 47.1084 52.3062 46.5282 52.0312 45.7032C51.8952 44.5533 52.0575 43.6686 52.5238 42.6137C52.8461 41.8751 53.07 41.1308 53.2705 40.3507C53.2995 40.2385 53.3286 40.1264 53.3585 40.0108C54.4558 35.6576 53.6427 30.8099 51.4033 26.9492C48.8936 22.7963 44.9106 19.8483 40.2143 18.629C35.544 17.5253 30.5528 18.375 26.4717 20.8876C22.5314 23.4039 19.9597 27.185 18.7031 31.6407C18.6551 31.8096 18.607 31.9786 18.5575 32.1527C17.5268 36.5822 18.4246 41.457 20.7614 45.3236C23.3813 49.4916 27.4353 52.3275 32.2218 53.4376C35.9527 54.2329 39.5987 53.7817 43.1015 52.3389C44.2517 51.8692 45.2529 51.6052 46.4502 52.1016C47.1168 52.4857 47.6647 53.1204 47.9026 53.8572C48.0838 54.8736 47.9816 55.6749 47.3906 56.5313C46.7581 57.1956 46.0534 57.5958 45.2109 57.9376C45.0968 57.9846 44.9826 58.0317 44.865 58.0802C42.0194 59.2092 39.0912 59.6836 36.0439 59.669C35.8768 59.6686 35.8768 59.6686 35.7062 59.6682C34.0409 59.6618 32.4203 59.6091 30.7969 59.2032C30.697 59.1783 30.5971 59.1534 30.4942 59.1278C29.7887 58.9458 29.0967 58.732 28.4062 58.5001C28.3126 58.4691 28.2189 58.4381 28.1224 58.4062C24.8723 57.3144 22.0664 55.4585 19.5469 53.1563C19.4316 53.0512 19.3163 52.946 19.1975 52.8377C15.236 49.0448 12.5013 43.2476 12.3343 37.7585C12.323 37.1987 12.3209 36.6391 12.3222 36.0792C12.3223 35.9614 12.3223 35.8436 12.3223 35.7223C12.3271 33.8409 12.4614 32.0617 12.9375 30.2344C12.9623 30.1314 12.9871 30.0283 13.0127 29.9221C14.4812 23.8699 18.6593 18.7579 23.9035 15.5419C27.601 13.3486 31.6703 12.3101 35.956 12.3311Z" fill="url(#paint1_linear_399_894)"/>
<path d="M42.9285 29.9004C43.6977 30.2298 44.1568 30.7901 44.5781 31.5C44.8564 32.3349 44.843 33.1697 44.4663 33.9718C43.9492 34.9534 43.1599 35.6833 42.377 36.4516C42.216 36.612 42.055 36.7726 41.8942 36.9333C41.5588 37.2679 41.2222 37.6013 40.8847 37.9338C40.4535 38.3586 40.0245 38.7855 39.5963 39.2133C39.2647 39.5442 38.9324 39.8743 38.5999 40.2042C38.4415 40.3614 38.2832 40.5187 38.1251 40.6762C37.9038 40.8962 37.6815 41.1153 37.459 41.3341C37.2702 41.5207 37.2702 41.5207 37.0775 41.7111C36.334 42.3781 35.7121 42.7671 34.708 42.794C34.5813 42.7992 34.4546 42.8045 34.324 42.8099C33.1359 42.6458 32.371 41.8765 31.5632 41.0598C31.4534 40.9506 31.3436 40.8413 31.2305 40.7288C31 40.4986 30.7702 40.2678 30.541 40.0362C30.191 39.6832 29.8381 39.3333 29.4848 38.9836C29.2604 38.7589 29.0362 38.5339 28.8122 38.3088C28.7072 38.2049 28.6021 38.101 28.4939 37.994C27.7568 37.2435 27.2216 36.5464 27.2197 35.4463C27.2551 34.4754 27.6026 33.794 28.3096 33.1348C29.0805 32.5341 29.8071 32.4407 30.7535 32.5432C31.8423 32.8177 32.4831 33.5582 33.2402 34.3389C33.3572 34.4577 33.4741 34.5766 33.5945 34.699C33.8817 34.9911 34.1679 35.2842 34.4531 35.5782C34.8897 35.3845 35.1812 35.1636 35.5134 34.8221C35.6083 34.7254 35.7032 34.6287 35.8009 34.5291C35.9021 34.4246 36.0034 34.3202 36.1077 34.2126C36.325 33.9917 36.5423 33.7709 36.7597 33.5501C37.1006 33.2022 37.441 32.8539 37.7807 32.5049C38.1094 32.1676 38.44 31.8321 38.7708 31.4967C38.8708 31.3929 38.9709 31.289 39.0741 31.182C40.1778 30.0674 41.3401 29.463 42.9285 29.9004Z" fill="url(#paint2_linear_399_894)"/>
<path d="M0.562458 29.3906C0.608864 29.3906 0.65527 29.3906 0.703083 29.3906C0.703083 33.7528 0.703083 38.115 0.703083 42.6094C0.61027 42.563 0.517458 42.5166 0.421833 42.4688C-0.530949 38.5396 -0.424146 33.4718 0.421833 29.5312C0.468239 29.4848 0.514645 29.4384 0.562458 29.3906Z" fill="url(#paint3_linear_399_894)"/>
</g>
<defs>
<linearGradient id="paint0_linear_399_894" x1="-18.1068" y1="10.7699" x2="104.647" y2="57.8106" gradientUnits="userSpaceOnUse">
<stop offset="0.00899994" stop-color="#8FEEFC"/>
<stop offset="0.529" stop-color="#4E8AEE"/>
<stop offset="1" stop-color="#0048FF"/>
</linearGradient>
<linearGradient id="paint1_linear_399_894" x1="0.482927" y1="19.4316" x2="80.9804" y2="50.2213" gradientUnits="userSpaceOnUse">
<stop offset="0.00899994" stop-color="#8FEEFC"/>
<stop offset="0.529" stop-color="#4E8AEE"/>
<stop offset="1" stop-color="#0048FF"/>
</linearGradient>
<linearGradient id="paint2_linear_399_894" x1="22.8321" y1="31.7152" x2="49.8805" y2="45.621" gradientUnits="userSpaceOnUse">
<stop offset="0.00899994" stop-color="#8FEEFC"/>
<stop offset="0.529" stop-color="#4E8AEE"/>
<stop offset="1" stop-color="#0048FF"/>
</linearGradient>
<linearGradient id="paint3_linear_399_894" x1="-0.492391" y1="31.3734" x2="1.36972" y2="31.4249" gradientUnits="userSpaceOnUse">
<stop offset="0.00899994" stop-color="#8FEEFC"/>
<stop offset="0.529" stop-color="#4E8AEE"/>
<stop offset="1" stop-color="#0048FF"/>
</linearGradient>
<clipPath id="clip0_399_894">
<rect width="72" height="72" fill="white"/>
</clipPath>
</defs>
</svg>
