<svg width="72" height="72" viewBox="0 0 72 72" fill="none" xmlns="http://www.w3.org/2000/svg">
<g clip-path="url(#clip0_840_2995)">
<path d="M25.2686 -0.0335098C25.3828 -0.034887 25.4969 -0.0362643 25.6145 -0.0376833C28.1398 -0.061868 30.5789 -0.0392843 33.0469 0.562499C33.2337 0.606582 33.2337 0.606582 33.4243 0.651556C38.664 1.9206 43.8163 4.94079 47.25 9.14062C47.3096 9.21103 47.3692 9.28143 47.4306 9.35396C49.7625 12.1099 52.8566 16.5209 52.7789 20.2896C52.6901 21.0523 52.384 21.5848 51.8467 22.1221C50.9297 22.6979 50.1381 22.9334 49.0727 22.7252C48.2302 22.4748 47.751 21.9355 47.25 21.2344C47.0278 20.7874 46.8704 20.3279 46.7139 19.8545C45.607 16.7607 43.9274 14.1471 41.625 11.8125C41.4352 11.62 41.4352 11.62 41.2416 11.4236C37.4351 7.75342 31.997 5.68004 26.7188 5.76562C21.7434 5.92548 17.0092 7.56017 13.2188 10.8281C13.1445 10.8914 13.0702 10.9547 12.9937 11.0198C9.00251 14.4458 6.31926 19.6273 5.90629 24.8906C5.81549 27.1181 5.80749 29.3245 6.32817 31.5C6.35155 31.6022 6.37494 31.7043 6.39903 31.8096C6.7904 33.4834 7.40353 35.02 8.15629 36.5625C8.22572 36.7055 8.29515 36.8485 8.36668 36.9959C9.22408 38.6548 10.382 40.1418 11.6719 41.4844C11.7338 41.5507 11.7958 41.617 11.8596 41.6853C15.4165 45.4884 20.6439 47.8185 25.8399 47.9927C31.3206 48.0999 36.4753 46.5426 40.6407 42.8906C40.7554 42.7945 40.8702 42.6985 40.9884 42.5995C43.8748 40.1202 45.6835 36.8136 46.9985 33.2912C47.3701 32.3168 47.7748 31.6254 48.7491 31.1808C49.5821 30.9208 50.4428 30.9485 51.2403 31.3066C52.0003 31.7474 52.4534 32.3544 52.7344 33.1875C52.8657 34.2622 52.663 35.1784 52.2774 36.1758C52.2277 36.3075 52.178 36.4392 52.1267 36.575C51.2708 38.7671 50.1778 40.8456 48.7487 42.7183C48.3084 43.2959 48.3084 43.2959 48.2344 44.0156C48.5228 44.3821 48.5228 44.3821 48.9112 44.7473C48.9798 44.8152 49.0485 44.8831 49.1193 44.953C49.3387 45.1692 49.5599 45.3834 49.7813 45.5977C49.9305 45.744 50.0795 45.8905 50.2284 46.0371C50.5936 46.396 50.9604 46.7532 51.3282 47.1094C51.7484 46.9216 52.0308 46.7183 52.3466 46.3848C52.4298 46.2988 52.513 46.2128 52.5987 46.1242C52.7704 45.9439 52.9418 45.7634 53.1129 45.5826C53.8272 44.8458 54.4787 44.3889 55.5376 44.2985C56.6976 44.2919 57.3969 44.8048 58.2188 45.5625C58.5355 45.8898 58.8428 46.2254 59.1511 46.5606C60.2775 47.7728 61.4454 48.9402 62.6218 50.1038C62.99 50.4682 63.3575 50.8332 63.7249 51.1985C64.7675 52.2352 65.8105 53.2713 66.8557 54.3053C67.4994 54.9422 68.1418 55.5805 68.7832 56.2197C69.0265 56.4615 69.2703 56.7029 69.5146 56.9437C69.8547 57.2791 70.193 57.6162 70.531 57.9537C70.6314 58.0519 70.7318 58.15 70.8352 58.2511C71.5568 58.9772 72.0598 59.6728 72.0616 60.7412C72.0643 60.8498 72.067 60.9584 72.0698 61.0703C71.8837 62.0914 71.2654 62.8375 70.5581 63.5603C70.4679 63.6544 70.3777 63.7486 70.2847 63.8456C69.9676 64.1749 69.6481 64.5016 69.3282 64.8281C69.2042 64.9551 69.0803 65.0821 68.9526 65.2129C68.1088 66.0769 67.2594 66.9352 66.407 67.7908C66.1077 68.0913 65.8093 68.3927 65.5116 68.6948C65.1457 69.0661 64.7785 69.4361 64.4102 69.805C64.2721 69.9438 64.1344 70.083 63.9973 70.2228C63.1336 71.1021 62.3803 71.857 61.1285 72.0846C60.9833 72.0857 60.8381 72.0868 60.6885 72.0879C60.5437 72.0926 60.3988 72.0973 60.2496 72.1022C58.9749 71.833 58.0266 70.7437 57.1412 69.852C56.9471 69.659 56.9471 69.659 56.7492 69.4622C56.3975 69.1125 56.0472 68.7615 55.6972 68.4101C55.329 68.0408 54.9598 67.6726 54.5907 67.3042C53.9715 66.6858 53.3532 66.0665 52.7354 65.4467C52.0231 64.732 51.3093 64.019 50.5947 63.3067C49.9788 62.6927 49.3638 62.078 48.7495 61.4625C48.3836 61.096 48.0174 60.7297 47.6504 60.3641C47.2413 59.9565 46.834 59.5471 46.4268 59.1376C46.3064 59.018 46.1859 58.8984 46.0619 58.7753C45.1852 57.8892 44.3508 57.0278 44.2793 55.7281C44.3433 54.5567 44.901 53.8222 45.7032 53.0156C45.8275 52.8893 45.9519 52.7629 46.08 52.6328C46.421 52.2894 46.7641 51.9484 47.1094 51.6094C46.8896 51.0798 46.5601 50.7464 46.1547 50.3459C46.0896 50.2812 46.0244 50.2164 45.9573 50.1497C45.7502 49.9442 45.5421 49.7397 45.334 49.5352C45.193 49.3955 45.052 49.2558 44.9111 49.116C44.5665 48.7745 44.221 48.4339 43.875 48.0938C43.281 48.4231 42.7347 48.7586 42.1963 49.1748C37.8242 52.3854 32.3373 53.8899 26.9649 53.8945C26.8165 53.8947 26.8165 53.8947 26.6651 53.8948C22.1403 53.888 17.9029 52.7693 13.9219 50.625C13.7939 50.5573 13.7939 50.5573 13.6633 50.4883C12.3831 49.8081 11.2402 49.014 10.125 48.0938C10.0423 48.0255 9.95954 47.9572 9.87428 47.8869C6.98378 45.4856 4.68768 42.7095 2.95317 39.375C2.90422 39.281 2.85528 39.1869 2.80485 39.09C0.86886 35.3109 -0.0314532 31.1891 -0.0351129 26.9561C-0.0352077 26.8568 -0.0353026 26.7576 -0.0354004 26.6554C-0.0328374 24.96 0.0764779 23.3191 0.421918 21.6562C0.458117 21.4815 0.458117 21.4815 0.495046 21.3032C1.05439 18.6989 1.97062 16.2634 3.23442 13.9219C3.28028 13.8358 3.32614 13.7497 3.3734 13.661C4.02332 12.4489 4.76383 11.3386 5.62504 10.2656C5.71172 10.1572 5.71172 10.1572 5.80014 10.0467C10.2817 4.48157 16.6229 0.901074 23.7423 0.0300758C24.2507 -0.020126 24.758 -0.0284012 25.2686 -0.0335098ZM55.1437 51.7154C54.9655 51.8936 54.7878 52.0721 54.6103 52.251C54.5169 52.3446 54.4235 52.4383 54.3272 52.5347C54.0274 52.8353 53.7281 53.1364 53.4288 53.4375C53.2262 53.6408 53.0236 53.844 52.8209 54.0472C52.323 54.5468 51.8255 55.0467 51.3282 55.5469C51.8735 56.1992 52.4392 56.8185 53.0422 57.4175C53.1247 57.5 53.2071 57.5824 53.292 57.6674C53.561 57.9363 53.8305 58.2047 54.1 58.4731C54.288 58.6608 54.476 58.8486 54.6639 59.0364C55.156 59.5279 55.6485 60.0191 56.1412 60.5101C56.6448 61.0124 57.1481 61.515 57.6513 62.0175C58.637 63.0017 59.6231 63.9854 60.6094 64.9688C61.2024 64.6975 61.6055 64.2896 62.0574 63.8295C62.1826 63.7037 62.1826 63.7037 62.3104 63.5753C62.5761 63.308 62.8408 63.0398 63.1055 62.7715C63.2858 62.5898 63.4662 62.4081 63.6466 62.2266C64.0881 61.782 64.5287 61.3365 64.9688 60.8906C64.7358 60.2874 64.2816 59.8838 63.8317 59.4381C63.7441 59.3502 63.6565 59.2624 63.5662 59.1718C63.2769 58.882 62.9866 58.5932 62.6963 58.3044C62.4952 58.1035 62.2941 57.9025 62.0931 57.7015C61.6721 57.2807 61.2507 56.8604 60.8288 56.4405C60.2868 55.9008 59.7457 55.3602 59.2049 54.8193C58.7901 54.4046 58.3749 53.9901 57.9596 53.5759C57.7598 53.3766 57.5602 53.1772 57.3606 52.9777C57.0825 52.6999 56.8039 52.4226 56.5252 52.1454C56.442 52.0621 56.3588 51.9788 56.2731 51.893C55.7374 51.2422 55.7374 51.2422 55.1437 51.7154Z" fill="url(#paint0_linear_840_2995)"/>
<path d="M39.8409 19.2217C40.4652 19.7589 40.9532 20.2923 41.2032 21.0938C41.2309 21.4764 41.2446 21.8446 41.2441 22.2272C41.245 22.3393 41.246 22.4514 41.247 22.567C41.2496 22.9367 41.2502 23.3064 41.2505 23.6761C41.2514 23.9341 41.2523 24.1921 41.2533 24.45C41.255 24.9906 41.2555 25.5312 41.2554 26.0718C41.2553 26.7626 41.2592 27.4534 41.264 28.1442C41.2671 28.6771 41.2677 29.2099 41.2676 29.7428C41.2679 29.9974 41.2691 30.252 41.2713 30.5066C41.2741 30.8637 41.2732 31.2206 41.2716 31.5776C41.2731 31.6816 41.2747 31.7856 41.2763 31.8928C41.2663 32.7362 41.026 33.4826 40.4372 34.1062C39.6259 34.8074 39.0283 34.9395 37.9749 34.9189C37.1563 34.8349 36.5683 34.5147 36.0177 33.9082C35.4873 33.1282 35.3956 32.4145 35.3968 31.4885C35.3958 31.3777 35.3949 31.267 35.3939 31.1528C35.3912 30.7884 35.3907 30.4241 35.3904 30.0597C35.3895 29.8051 35.3885 29.5504 35.3875 29.2958C35.3859 28.7627 35.3853 28.2296 35.3855 27.6965C35.3855 27.0152 35.3817 26.3341 35.3768 25.6529C35.3737 25.1271 35.3731 24.6014 35.3733 24.0756C35.373 23.8246 35.3717 23.5735 35.3695 23.3224C35.3668 22.9704 35.3676 22.6186 35.3693 22.2666C35.3677 22.1642 35.3661 22.0617 35.3645 21.9561C35.3752 21.0737 35.6728 20.364 36.2358 19.6842C37.3181 18.7904 38.5661 18.5722 39.8409 19.2217Z" fill="url(#paint1_linear_840_2995)"/>
<path d="M28.8282 22.3594C29.7922 23.3234 29.8445 24.2338 29.8552 25.5352C29.8551 25.708 29.855 25.8809 29.8548 26.059C29.8554 26.2391 29.856 26.4192 29.8567 26.6048C29.8577 26.9848 29.8577 27.3648 29.8569 27.7448C29.8561 28.2291 29.8585 28.7133 29.8618 29.1976C29.8643 29.6632 29.8638 30.1287 29.8636 30.5942C29.8649 30.7668 29.8662 30.9394 29.8676 31.1172C29.8616 32.2321 29.7444 33.0329 29.1534 33.9961C28.464 34.6668 27.8131 34.9104 26.8506 34.9453C25.9474 34.9101 25.4402 34.7214 24.7896 34.0708C24.1878 33.4009 24.03 32.9475 24.022 32.0371C24.0202 31.8578 24.0184 31.6785 24.0166 31.4937C24.0154 31.2975 24.0144 31.1013 24.0134 30.9051C24.0128 30.806 24.0123 30.707 24.0117 30.6049C24.0087 30.0803 24.0067 29.5556 24.0054 29.0309C24.0039 28.4911 23.999 27.9513 23.9934 27.4115C23.9897 26.9947 23.9886 26.5779 23.9881 26.161C23.9874 25.9622 23.9858 25.7633 23.9831 25.5645C23.9692 24.4389 23.9799 23.5947 24.6094 22.6406C24.9165 22.3511 24.9165 22.3511 25.2334 22.1572C25.3377 22.0907 25.4419 22.0242 25.5493 21.9556C26.6782 21.4055 27.8425 21.658 28.8282 22.3594Z" fill="url(#paint2_linear_840_2995)"/>
<path d="M17.4363 25.1636C18.2467 25.9945 18.3668 26.9136 18.3608 28.0327C18.3621 28.237 18.3621 28.237 18.3634 28.4454C18.3644 28.7319 18.364 29.0184 18.3622 29.3049C18.3602 29.741 18.365 30.1767 18.3704 30.6128C18.3705 30.8925 18.3703 31.1721 18.3696 31.4517C18.3714 31.5807 18.3733 31.7098 18.3752 31.8428C18.3608 32.8465 18.0703 33.5351 17.3602 34.2507C16.623 34.8946 16.0009 34.926 15.0572 34.9123C14.4311 34.8583 13.9836 34.7186 13.4999 34.3125C12.6681 33.3205 12.4937 32.5437 12.487 31.2693C12.4861 31.151 12.4853 31.0327 12.4845 30.9109C12.4832 30.6608 12.4823 30.4107 12.4817 30.1606C12.4804 29.7806 12.476 29.4008 12.4716 29.0209C12.4707 28.7772 12.4699 28.5335 12.4694 28.2898C12.4676 28.1774 12.4659 28.065 12.4641 27.9492C12.4687 26.7814 12.8077 25.8641 13.6405 25.0312C14.9585 24.2512 16.1629 24.3343 17.4363 25.1636Z" fill="url(#paint3_linear_840_2995)"/>
</g>
<defs>
<linearGradient id="paint0_linear_840_2995" x1="-18.0617" y1="10.7782" x2="104.535" y2="57.627" gradientUnits="userSpaceOnUse">
<stop offset="0.00899994" stop-color="#8FEEFC"/>
<stop offset="0.529" stop-color="#4E8AEE"/>
<stop offset="1" stop-color="#0048FF"/>
</linearGradient>
<linearGradient id="paint1_linear_840_2995" x1="33.8865" y1="21.2575" x2="45.1826" y2="22.846" gradientUnits="userSpaceOnUse">
<stop offset="0.00899994" stop-color="#8FEEFC"/>
<stop offset="0.529" stop-color="#4E8AEE"/>
<stop offset="1" stop-color="#0048FF"/>
</linearGradient>
<linearGradient id="paint2_linear_840_2995" x1="22.5084" y1="23.65" x2="33.66" y2="25.539" gradientUnits="userSpaceOnUse">
<stop offset="0.00899994" stop-color="#8FEEFC"/>
<stop offset="0.529" stop-color="#4E8AEE"/>
<stop offset="1" stop-color="#0048FF"/>
</linearGradient>
<linearGradient id="paint3_linear_840_2995" x1="10.9863" y1="26.0547" x2="21.9871" y2="28.4401" gradientUnits="userSpaceOnUse">
<stop offset="0.00899994" stop-color="#8FEEFC"/>
<stop offset="0.529" stop-color="#4E8AEE"/>
<stop offset="1" stop-color="#0048FF"/>
</linearGradient>
<clipPath id="clip0_840_2995">
<rect width="72" height="72" fill="white"/>
</clipPath>
</defs>
</svg>
