<svg width="24" height="24" viewBox="0 0 24 24" fill="none" xmlns="http://www.w3.org/2000/svg">
<path d="M7.70096 10.9939L8.40626 10.2634L10.6464 12.5036L11.5 13.3571V12.15V4.5H12.5V12.15V13.3571L13.3536 12.5036L15.5937 10.2634L16.299 10.9939L12 15.2929L7.70096 10.9939ZM4.5 17.9997V15.5H5.5V18V18.5H6H18H18.5V18V15.5H19.5V18C19.5 18.4165 19.3576 18.7607 19.0591 19.0597C18.7611 19.3583 18.4174 19.5005 18.0006 19.5H18H6C5.58354 19.5 5.23978 19.3577 4.94155 19.0594C4.64338 18.7613 4.50057 18.4171 4.5 17.9997Z" fill="black" stroke="white"/>
</svg>
