<svg width="275" height="275" viewBox="0 0 275 275" fill="none" xmlns="http://www.w3.org/2000/svg">
<g filter="url(#filter0_d_531_9780)">
<path d="M92.156 59.6647L106.547 64.3484L112.8 50.5656L125.574 58.6811L135.057 46.8862L145.413 57.9237L157.531 48.8577L164.816 62.1236L178.808 56.3563L182.565 71.0171L197.553 68.9107L197.545 84.0452L212.586 85.7322L208.815 100.389L222.963 105.764L215.666 119.023L228.033 127.747L217.667 138.774L227.476 150.3L214.694 158.403L221.328 172.006L206.932 176.676L209.976 191.501L194.871 192.444L194.131 207.561L179.266 204.718L174.791 219.176L161.1 212.725L153.17 225.616L141.513 215.963L130.626 226.476L121.736 214.228L108.577 221.704L103.012 207.629L88.407 211.597L86.5173 196.581L71.3843 196.793L73.2883 181.779L58.5781 178.22L64.1562 164.151L50.7932 157.046L59.6948 144.806L48.5186 134.601L60.1845 124.959L51.8974 112.295L65.5945 105.858L60.7172 91.5306L75.5849 88.7017L74.4238 73.6118L89.5279 74.5693L92.156 59.6647Z" fill="white"/>
<path d="M92.5163 60.2647L106.405 64.7849L106.796 64.912L106.966 64.538L112.999 51.2364L125.328 59.0686L125.675 59.2888L125.932 58.9688L135.084 47.5856L145.078 58.2378L145.359 58.5372L145.688 58.2913L157.383 49.5418L164.414 62.3446L164.611 62.7045L164.991 62.5481L178.495 56.982L182.121 71.131L182.223 71.5288L182.629 71.4717L197.093 69.4388L197.086 84.045L197.086 84.4556L197.494 84.5014L212.009 86.1295L208.37 100.275L208.268 100.673L208.652 100.819L222.306 106.005L215.263 118.801L215.065 119.161L215.401 119.398L227.336 127.817L217.333 138.46L217.051 138.759L217.318 139.072L226.784 150.195L214.448 158.015L214.101 158.235L214.281 158.604L220.684 171.732L206.791 176.239L206.4 176.366L206.483 176.768L209.42 191.076L194.842 191.986L194.432 192.012L194.412 192.422L193.699 207.011L179.353 204.267L178.949 204.19L178.828 204.582L174.509 218.535L161.296 212.31L160.924 212.135L160.709 212.485L153.056 224.925L141.806 215.609L141.489 215.348L141.194 215.633L130.687 225.779L122.108 213.958L121.866 213.626L121.509 213.829L108.809 221.044L103.439 207.461L103.288 207.079L102.892 207.186L88.7965 211.016L86.9728 196.524L86.9215 196.117L86.5109 196.122L71.9062 196.326L73.7437 181.836L73.7953 181.429L73.3962 181.332L59.1996 177.898L64.5829 164.32L64.7343 163.938L64.3717 163.745L51.4752 156.888L60.0661 145.076L60.3076 144.744L60.0044 144.467L49.2183 134.618L60.477 125.313L60.7935 125.051L60.5686 124.708L52.5708 112.486L65.7898 106.273L66.1614 106.098L66.0291 105.71L61.322 91.8828L75.6707 89.1527L76.0741 89.0759L76.0426 88.6665L74.922 74.1034L89.4989 75.0274L89.9087 75.0534L89.98 74.649L92.5163 60.2647Z" stroke="url(#paint0_linear_531_9780)" stroke-width="0.918117"/>
</g>
<path d="M97.3214 133.504L102.071 149.725L98.4495 151.9L93.534 131.632L95.7961 130.273L97.3214 133.504ZM108.635 145.783L96.5244 133.982L94.3544 131.139L96.6517 129.759L112.28 143.594L108.635 145.783ZM104.942 139.341L106.652 142.189L98.9516 146.814L97.2412 143.966L104.942 139.341ZM110.416 131.142L116.406 141.116L113.112 143.094L105.496 130.412L108.579 128.561L110.416 131.142ZM111.845 134.637L110.98 135.189C110.392 134.245 109.968 133.335 109.708 132.46C109.456 131.58 109.354 130.764 109.402 130.012C109.454 129.248 109.653 128.57 109.999 127.979C110.349 127.376 110.845 126.881 111.485 126.497C111.978 126.201 112.479 126.017 112.988 125.945C113.505 125.868 114.025 125.928 114.547 126.125C115.07 126.322 115.6 126.683 116.14 127.21C116.675 127.729 117.212 128.437 117.752 129.336L122.594 137.4L119.301 139.378L114.444 131.29C114.115 130.743 113.807 130.354 113.52 130.123C113.227 129.884 112.936 129.772 112.647 129.786C112.353 129.792 112.042 129.894 111.714 130.091C111.402 130.279 111.178 130.535 111.044 130.86C110.905 131.178 110.845 131.538 110.864 131.941C110.891 132.34 110.985 132.772 111.148 133.238C111.319 133.699 111.551 134.165 111.845 134.637ZM128.835 129.681L125.316 123.821C125.086 123.438 124.856 123.161 124.626 122.991C124.404 122.816 124.173 122.731 123.932 122.738C123.694 122.732 123.45 122.804 123.2 122.954C122.919 123.123 122.72 123.322 122.603 123.552C122.486 123.782 122.446 124.034 122.483 124.309C122.529 124.58 122.643 124.867 122.826 125.172L119.533 127.15C119.204 126.603 119 126.024 118.92 125.413C118.835 124.794 118.886 124.179 119.072 123.567C119.261 122.944 119.577 122.355 120.021 121.801C120.464 121.248 121.042 120.758 121.753 120.331C122.597 119.824 123.434 119.518 124.264 119.413C125.089 119.3 125.878 119.437 126.632 119.825C127.385 120.212 128.058 120.898 128.649 121.882L132.042 127.532C132.469 128.243 132.851 128.8 133.189 129.203C133.535 129.602 133.878 129.916 134.219 130.148L134.338 130.347L131.033 132.332C130.674 132.069 130.297 131.7 129.905 131.223C129.515 130.734 129.159 130.22 128.835 129.681ZM126.334 124.613L127.528 126.575L126.321 127.3C126.008 127.487 125.765 127.702 125.592 127.945C125.426 128.182 125.321 128.442 125.278 128.723C125.229 128.997 125.239 129.278 125.306 129.567C125.381 129.852 125.501 130.131 125.665 130.404C125.848 130.709 126.046 130.941 126.259 131.1C126.471 131.26 126.697 131.343 126.934 131.349C127.172 131.355 127.408 131.288 127.642 131.147C128.002 130.931 128.27 130.669 128.446 130.361C128.623 130.053 128.71 129.756 128.708 129.47C128.715 129.179 128.64 128.958 128.485 128.806L130.003 129.634C130.083 129.979 130.134 130.357 130.158 130.768C130.189 131.175 130.164 131.583 130.081 131.995C129.998 132.406 129.829 132.805 129.573 133.193C129.32 133.568 128.951 133.901 128.466 134.192C127.787 134.6 127.072 134.817 126.321 134.843C125.571 134.868 124.863 134.698 124.197 134.332C123.539 133.962 122.977 133.39 122.513 132.617C122.128 131.976 121.882 131.337 121.776 130.699C121.672 130.049 121.72 129.42 121.918 128.811C122.111 128.195 122.466 127.6 122.982 127.024C123.497 126.449 124.181 125.905 125.033 125.394L126.334 124.613ZM128.954 109.085L139.765 127.088L136.472 129.066L125.66 111.063L128.954 109.085ZM144.682 122.157L140.588 109.338L144.011 107.283L148.594 124.369C148.693 124.746 148.77 125.167 148.827 125.633C148.888 126.107 148.88 126.59 148.804 127.082C148.74 127.578 148.568 128.053 148.289 128.508C148.009 128.963 147.584 129.362 147.014 129.704C146.725 129.878 146.478 129.999 146.275 130.068C146.085 130.14 145.833 130.217 145.52 130.298L143.986 127.743C144.056 127.701 144.123 127.661 144.185 127.623C144.26 127.589 144.329 127.553 144.391 127.515C144.759 127.295 145.021 127.068 145.179 126.835C145.341 126.61 145.428 126.356 145.439 126.073C145.458 125.785 145.422 125.461 145.333 125.1L144.682 122.157ZM137.259 111.337L144.691 119.25L147.36 122.686L145.272 124.228L133.743 113.449L137.259 111.337ZM156.627 112.305C156.496 112.086 156.304 111.935 156.052 111.853C155.801 111.77 155.461 111.735 155.032 111.748C154.599 111.752 154.049 111.801 153.382 111.894C152.663 112.006 152.006 112.072 151.41 112.089C150.814 112.106 150.269 112.057 149.773 111.94C149.286 111.818 148.846 111.609 148.455 111.312C148.064 111.015 147.719 110.616 147.419 110.116C147.095 109.577 146.894 109.022 146.818 108.452C146.744 107.869 146.791 107.293 146.96 106.724C147.124 106.147 147.417 105.599 147.839 105.08C148.264 104.548 148.816 104.078 149.496 103.67C150.449 103.097 151.366 102.775 152.248 102.703C153.133 102.618 153.937 102.762 154.661 103.136C155.385 103.509 155.984 104.09 156.458 104.879L153.176 106.85C153.007 106.569 152.814 106.345 152.596 106.177C152.374 106.002 152.128 105.911 151.858 105.903C151.595 105.891 151.304 105.981 150.983 106.173C150.749 106.314 150.568 106.492 150.442 106.706C150.323 106.915 150.261 107.139 150.255 107.377C150.251 107.602 150.318 107.827 150.454 108.054C150.557 108.226 150.684 108.357 150.834 108.448C150.992 108.534 151.191 108.59 151.43 108.616C151.669 108.643 151.967 108.644 152.325 108.621C152.686 108.585 153.119 108.527 153.624 108.447C154.656 108.252 155.549 108.173 156.304 108.209C157.067 108.24 157.727 108.418 158.283 108.743C158.835 109.06 159.322 109.57 159.745 110.273C160.083 110.836 160.281 111.413 160.339 112.006C160.404 112.593 160.335 113.177 160.131 113.757C159.926 114.337 159.593 114.888 159.13 115.411C158.675 115.928 158.1 116.396 157.405 116.813C156.381 117.428 155.396 117.744 154.449 117.76C153.501 117.776 152.658 117.575 151.918 117.158C151.174 116.733 150.596 116.177 150.183 115.489L153.3 113.617C153.569 114.03 153.847 114.315 154.133 114.472C154.422 114.618 154.72 114.662 155.027 114.606C155.333 114.549 155.638 114.43 155.943 114.247C156.248 114.064 156.474 113.874 156.623 113.679C156.774 113.471 156.849 113.251 156.848 113.018C156.841 112.777 156.768 112.539 156.627 112.305ZM161.873 96.5558L163.358 99.0289L156.888 102.914L155.403 100.441L161.873 96.5558ZM155.012 96.4178L158.282 94.454L165.455 106.397C165.666 106.749 165.863 106.998 166.046 107.143C166.229 107.288 166.414 107.358 166.602 107.351C166.793 107.332 167.009 107.25 167.251 107.105C167.415 107.006 167.563 106.907 167.694 106.807C167.821 106.699 167.912 106.612 167.968 106.547L169.51 109.113C169.313 109.37 169.087 109.612 168.83 109.84C168.582 110.064 168.262 110.293 167.872 110.528C167.215 110.922 166.57 111.14 165.935 111.18C165.308 111.217 164.698 111.041 164.104 110.654C163.505 110.258 162.936 109.611 162.396 108.713L155.012 96.4178ZM127.765 170.095L129.468 172.932L122.049 177.387L120.345 174.551L127.765 170.095ZM112.867 159.681L123.115 176.747L119.681 178.809L109.433 161.744L112.867 159.681ZM122.376 163.38L124.03 166.134L117.607 169.992L115.953 167.237L122.376 163.38ZM119.196 155.88L120.906 158.729L113.511 163.17L111.8 160.322L119.196 155.88ZM135.533 165.478L126.404 150.276L129.697 148.298L140.509 166.301L137.539 168.101L135.533 165.478ZM127.1 166.332L126.593 165.488C125.973 164.457 125.517 163.503 125.225 162.626C124.94 161.745 124.818 160.94 124.86 160.214C124.902 159.487 125.102 158.846 125.46 158.291C125.821 157.723 126.333 157.24 126.997 156.841C127.599 156.48 128.218 156.315 128.854 156.348C129.493 156.368 130.135 156.551 130.779 156.898C131.423 157.245 132.064 157.727 132.7 158.344C133.337 158.961 133.957 159.684 134.56 160.512L135.292 161.731C135.696 162.616 136.016 163.476 136.252 164.312C136.497 165.144 136.614 165.924 136.605 166.652C136.604 167.376 136.468 168.026 136.198 168.603C135.923 169.172 135.485 169.637 134.883 169.999C134.219 170.398 133.549 170.619 132.874 170.663C132.206 170.702 131.542 170.57 130.881 170.265C130.223 169.948 129.576 169.465 128.941 168.815C128.309 168.152 127.695 167.325 127.1 166.332ZM129.875 163.518L130.381 164.362C130.738 164.955 131.073 165.451 131.385 165.848C131.701 166.232 132.008 166.521 132.305 166.715C132.605 166.896 132.908 166.985 133.215 166.982C133.516 166.971 133.835 166.864 134.171 166.663C134.609 166.4 134.899 166.077 135.041 165.694C135.178 165.303 135.196 164.872 135.094 164.402C134.996 163.919 134.799 163.415 134.505 162.89L133.175 160.675C132.901 160.254 132.618 159.898 132.326 159.606C132.033 159.313 131.736 159.093 131.434 158.945C131.133 158.796 130.825 158.726 130.51 158.734C130.204 158.737 129.898 158.831 129.594 159.014C129.266 159.211 129.024 159.446 128.869 159.72C128.723 159.989 128.667 160.303 128.703 160.665C128.735 161.018 128.847 161.434 129.039 161.914C129.235 162.381 129.513 162.916 129.875 163.518ZM138.812 150.065L146.428 162.747L143.134 164.725L135.518 152.043L138.812 150.065ZM133.395 148.852C133.09 148.345 132.999 147.83 133.123 147.31C133.249 146.777 133.586 146.346 134.133 146.017C134.687 145.684 135.226 145.589 135.748 145.733C136.265 145.869 136.677 146.191 136.982 146.699C137.282 147.199 137.369 147.715 137.243 148.248C137.119 148.769 136.788 149.191 136.249 149.515C135.694 149.848 135.154 149.949 134.629 149.818C134.107 149.674 133.695 149.352 133.395 148.852ZM146.946 145.18L148.431 147.653L141.961 151.538L140.476 149.065L146.946 145.18ZM140.085 145.042L143.356 143.078L150.528 155.022C150.739 155.373 150.936 155.622 151.119 155.767C151.302 155.912 151.487 155.982 151.675 155.975C151.866 155.957 152.082 155.874 152.324 155.729C152.488 155.63 152.636 155.531 152.767 155.431C152.894 155.323 152.985 155.236 153.042 155.171L154.583 157.737C154.386 157.994 154.16 158.236 153.903 158.465C153.655 158.688 153.335 158.917 152.945 159.152C152.288 159.546 151.643 159.764 151.008 159.805C150.381 159.841 149.771 159.665 149.177 159.278C148.578 158.883 148.009 158.236 147.469 157.337L140.085 145.042ZM152.22 142.012L159.836 154.694L156.543 156.672L148.927 143.99L152.22 142.012ZM146.804 140.8C146.499 140.292 146.408 139.778 146.531 139.257C146.657 138.724 146.994 138.293 147.541 137.965C148.096 137.632 148.634 137.537 149.157 137.681C149.674 137.816 150.085 138.138 150.39 138.646C150.691 139.146 150.777 139.663 150.651 140.196C150.528 140.717 150.197 141.139 149.657 141.462C149.103 141.796 148.563 141.897 148.037 141.766C147.515 141.622 147.104 141.3 146.804 140.8ZM158.516 147.45L158.002 146.594C157.406 145.602 156.995 144.652 156.77 143.746C156.552 142.835 156.511 141.987 156.647 141.204C156.778 140.413 157.076 139.697 157.542 139.056C158.01 138.402 158.635 137.841 159.417 137.372C160.206 136.898 160.995 136.61 161.785 136.508C162.577 136.394 163.353 136.464 164.113 136.72C164.876 136.964 165.608 137.396 166.311 138.016C167.013 138.636 167.662 139.443 168.258 140.435L168.771 141.291C169.363 142.275 169.767 143.223 169.985 144.134C170.202 145.046 170.242 145.899 170.103 146.695C169.972 147.486 169.674 148.202 169.208 148.843C168.743 149.484 168.119 150.039 167.338 150.508C166.556 150.978 165.769 151.269 164.977 151.384C164.192 151.494 163.416 151.423 162.649 151.171C161.881 150.92 161.146 150.484 160.444 149.864C159.75 149.239 159.107 148.434 158.516 147.45ZM161.284 144.623L161.798 145.479C162.15 146.065 162.494 146.549 162.83 146.932C163.174 147.31 163.508 147.593 163.834 147.781C164.167 147.963 164.486 148.053 164.793 148.05C165.099 148.047 165.401 147.956 165.698 147.777C165.995 147.599 166.22 147.373 166.375 147.1C166.53 146.826 166.597 146.504 166.576 146.133C166.564 145.758 166.463 145.335 166.276 144.863C166.096 144.386 165.83 143.855 165.478 143.269L164.964 142.413C164.622 141.843 164.278 141.368 163.934 140.99C163.585 140.604 163.251 140.321 162.93 140.142C162.605 139.954 162.283 139.861 161.964 139.861C161.648 139.848 161.346 139.929 161.057 140.103C160.768 140.276 160.554 140.505 160.417 140.79C160.283 141.062 160.218 141.388 160.223 141.768C160.231 142.135 160.323 142.563 160.5 143.053C160.68 143.529 160.941 144.053 161.284 144.623ZM171.627 134.042L177.617 144.016L174.323 145.994L166.707 133.313L169.79 131.461L171.627 134.042ZM173.056 137.538L172.191 138.089C171.603 137.145 171.179 136.235 170.919 135.36C170.667 134.48 170.565 133.664 170.613 132.912C170.665 132.148 170.864 131.47 171.21 130.879C171.56 130.276 172.056 129.782 172.696 129.397C173.189 129.101 173.69 128.917 174.199 128.845C174.717 128.768 175.236 128.828 175.758 129.025C176.281 129.222 176.811 129.584 177.351 130.11C177.886 130.629 178.423 131.338 178.963 132.236L183.805 140.3L180.512 142.278L175.655 134.191C175.327 133.644 175.018 133.255 174.731 133.023C174.438 132.784 174.148 132.672 173.858 132.686C173.564 132.692 173.253 132.794 172.925 132.991C172.613 133.179 172.389 133.435 172.255 133.761C172.116 134.078 172.056 134.438 172.075 134.841C172.102 135.24 172.196 135.672 172.359 136.138C172.53 136.599 172.762 137.066 173.056 137.538Z" fill="#0091FE"/>
<defs>
<filter id="filter0_d_531_9780" x="43.928" y="46.8862" width="188.695" height="193.362" filterUnits="userSpaceOnUse" color-interpolation-filters="sRGB">
<feFlood flood-opacity="0" result="BackgroundImageFix"/>
<feColorMatrix in="SourceAlpha" type="matrix" values="0 0 0 0 0 0 0 0 0 0 0 0 0 0 0 0 0 0 127 0" result="hardAlpha"/>
<feOffset dy="9.18117"/>
<feGaussianBlur stdDeviation="2.29529"/>
<feComposite in2="hardAlpha" operator="out"/>
<feColorMatrix type="matrix" values="0 0 0 0 0.812405 0 0 0 0 0.890261 0 0 0 0 0.948333 0 0 0 0.6 0"/>
<feBlend mode="normal" in2="BackgroundImageFix" result="effect1_dropShadow_531_9780"/>
<feBlend mode="normal" in="SourceGraphic" in2="effect1_dropShadow_531_9780" result="shape"/>
</filter>
<linearGradient id="paint0_linear_531_9780" x1="-9.67739" y1="152.314" x2="312.889" y2="95.0772" gradientUnits="userSpaceOnUse">
<stop offset="0.00899994" stop-color="#8FEEFC"/>
<stop offset="0.529" stop-color="#4E8AEE"/>
<stop offset="1" stop-color="#0048FF"/>
</linearGradient>
</defs>
</svg>
