<svg width="72" height="72" viewBox="0 0 72 72" fill="none" xmlns="http://www.w3.org/2000/svg">
<g clip-path="url(#clip0_840_2303)">
<path d="M33.7411 21.0564C34.0117 21.056 34.0117 21.056 34.2877 21.0556C34.6663 21.0552 35.0449 21.0558 35.4236 21.0571C35.9034 21.0587 36.3831 21.0578 36.8629 21.0561C37.3282 21.0548 37.7935 21.0557 38.2587 21.0564C38.5128 21.0555 38.5128 21.0555 38.772 21.0547C41.0404 21.067 43.0213 21.3968 44.7137 23.0186C46.1877 24.6934 46.4722 26.6828 46.4607 28.8449C46.4618 29.1069 46.4618 29.1069 46.463 29.3743C46.4646 29.8529 46.4644 30.3315 46.4634 30.8102C46.4627 31.3288 46.4645 31.8474 46.4659 32.366C46.4683 33.3793 46.4685 34.3926 46.4677 35.4059C46.4672 36.2297 46.4674 37.0535 46.4681 37.8774C46.4682 37.9949 46.4683 38.1125 46.4684 38.2337C46.4687 38.4726 46.4689 38.7115 46.4691 38.9504C46.471 41.1862 46.4703 43.4219 46.4686 45.6576C46.4672 47.7012 46.4691 49.7448 46.4724 51.7884C46.4759 53.8902 46.4772 55.992 46.4763 58.0938C46.4758 59.2725 46.4761 60.4511 46.4786 61.6298C46.4806 62.6325 46.4807 63.6352 46.4783 64.6379C46.4771 65.1491 46.4768 65.6602 46.4789 66.1713C46.4812 66.7262 46.4792 67.281 46.4767 67.8359C46.4787 68.0764 46.4787 68.0764 46.4808 68.3218C46.4712 69.3639 46.3558 70.4318 45.6402 71.2477C45.0415 71.7682 44.5257 72.0343 43.7367 72.0386C43.5956 72.04 43.4545 72.0414 43.309 72.0428C43.078 72.0429 43.078 72.0429 42.8424 72.0431C42.6795 72.0443 42.5166 72.0454 42.3488 72.0466C41.8094 72.05 41.2701 72.0513 40.7306 72.0522C40.4505 72.0531 40.1704 72.0541 39.8903 72.0551C39.0092 72.0581 38.1281 72.0594 37.247 72.0598C36.3399 72.0604 35.4328 72.0646 34.5257 72.0704C33.7456 72.0753 32.9655 72.0775 32.1853 72.0776C31.72 72.0777 31.2547 72.0793 30.7894 72.0829C30.2696 72.0867 29.7501 72.086 29.2303 72.0843C29.0774 72.0864 28.9246 72.0885 28.7671 72.0906C27.812 72.0814 27.1755 71.9202 26.4374 71.2969C26.1787 71.0019 26.1787 71.0019 26.0244 70.7256C25.9709 70.634 25.9174 70.5425 25.8623 70.4482C25.62 69.9251 25.576 69.4535 25.5752 68.8802C25.5744 68.6577 25.5744 68.6577 25.5736 68.4307C25.5737 68.2679 25.5738 68.1051 25.5739 67.9374C25.5735 67.7643 25.5731 67.5912 25.5727 67.4129C25.5717 66.9321 25.5713 66.4514 25.5712 65.9706C25.5709 65.4522 25.5699 64.9338 25.5689 64.4153C25.567 63.2812 25.5662 62.1472 25.5655 61.0131C25.5651 60.3045 25.5646 59.5959 25.5639 58.8874C25.5622 56.9244 25.5608 54.9614 25.5603 52.9985C25.5602 52.8728 25.5602 52.7472 25.5602 52.6177C25.5602 52.4918 25.5601 52.3658 25.5601 52.236C25.56 51.9808 25.56 51.7256 25.5599 51.4704C25.5599 51.2805 25.5599 51.2805 25.5598 51.0868C25.5593 49.038 25.5568 46.9892 25.5535 44.9405C25.5502 42.8355 25.5484 40.7306 25.5483 38.6257C25.5481 37.4445 25.5473 36.2633 25.5448 35.082C25.5426 34.0756 25.5419 33.0692 25.5431 32.0627C25.5436 31.5498 25.5435 31.0369 25.5415 30.524C25.5394 29.9662 25.5405 29.4084 25.542 28.8506C25.5409 28.6909 25.5397 28.5312 25.5386 28.3667C25.5508 26.3683 25.9381 24.5503 27.2861 23.0186C29.1253 21.2562 31.3011 21.0482 33.7411 21.0564ZM31.3593 27.2813C31.2966 27.5921 31.2966 27.5921 31.3074 27.9437C31.3066 28.0807 31.3057 28.2177 31.3049 28.3589C31.3061 28.5098 31.3073 28.6607 31.3086 28.8161C31.3082 28.9761 31.3079 29.1361 31.3075 29.301C31.3068 29.84 31.3091 30.3789 31.3114 30.9178C31.3118 31.303 31.3115 31.6883 31.3112 32.0735C31.311 32.9043 31.3123 33.7351 31.3147 34.5659C31.3181 35.7671 31.3192 36.9682 31.3198 38.1694C31.3207 40.1182 31.3235 42.067 31.3275 44.0157C31.3314 45.909 31.3343 47.8023 31.3361 49.6955C31.3362 49.8122 31.3364 49.9288 31.3365 50.049C31.337 50.6343 31.3376 51.2195 31.3381 51.8048C31.3425 56.6615 31.3502 61.5183 31.3593 66.375C34.4221 66.375 37.4849 66.375 40.6406 66.375C40.6499 61.4019 40.6576 56.4287 40.6621 51.4556C40.6626 50.8689 40.6632 50.2822 40.6637 49.6955C40.6638 49.5787 40.664 49.4619 40.6641 49.3416C40.6659 47.4486 40.6692 45.5556 40.6731 43.6626C40.6771 41.7212 40.6794 39.7798 40.6803 37.8385C40.6808 36.6398 40.6827 35.4412 40.6861 34.2426C40.6883 33.4215 40.689 32.6003 40.6884 31.7792C40.6882 31.3049 40.6888 30.8307 40.6909 30.3564C40.6929 29.843 40.6925 29.3296 40.6913 28.8161C40.6925 28.6653 40.6938 28.5144 40.695 28.3589C40.6942 28.2219 40.6933 28.0849 40.6925 27.9437C40.6927 27.7658 40.6927 27.7658 40.693 27.5843C40.6282 27.2096 40.5201 27.0852 40.2187 26.8594C39.8387 26.7952 39.8387 26.7952 39.403 26.8048C39.2354 26.8035 39.0679 26.8021 38.8953 26.8008C38.7142 26.8016 38.5332 26.8025 38.3466 26.8033C38.1591 26.8031 37.9715 26.8027 37.7839 26.8021C37.391 26.8015 36.9981 26.8024 36.6051 26.8044C36.1015 26.8068 35.598 26.8054 35.0943 26.8029C34.7071 26.8013 34.3198 26.8018 33.9326 26.8029C33.6566 26.8033 33.3806 26.8021 33.1046 26.8008C32.8533 26.8028 32.8533 26.8028 32.5969 26.8048C32.3754 26.8053 32.3754 26.8053 32.1494 26.8058C31.7167 26.8688 31.6212 26.9402 31.3593 27.2813Z" fill="url(#paint0_linear_840_2303)"/>
<path d="M56.6076 34.4145C56.707 34.4138 56.8064 34.4131 56.9089 34.4123C57.2338 34.4104 57.5588 34.4105 57.8838 34.4108C58.1121 34.4103 58.3404 34.4097 58.5688 34.409C59.0461 34.408 59.5233 34.408 60.0006 34.4087C60.609 34.4095 61.2173 34.4072 61.8256 34.4039C62.2968 34.4018 62.7681 34.4017 63.2393 34.4021C63.4635 34.4021 63.6876 34.4013 63.9117 34.3999C65.7976 34.3894 67.1776 34.6571 68.7657 35.7187C68.9528 35.8406 68.9528 35.8406 69.1437 35.9648C70.4666 37.252 71.1457 38.9252 71.1761 40.7593C71.1778 41.0315 71.1787 41.3038 71.179 41.576C71.1797 41.7252 71.1804 41.8744 71.1811 42.0281C71.1832 42.5203 71.1841 43.0125 71.1849 43.5048C71.1857 43.8477 71.1865 44.1906 71.1873 44.5335C71.1888 45.252 71.1896 45.9705 71.1901 46.6889C71.1909 47.6085 71.1943 48.528 71.1983 49.4476C71.2009 50.1557 71.2016 50.8639 71.2019 51.5721C71.2023 51.911 71.2034 52.25 71.2053 52.589C71.2077 53.0635 71.2074 53.538 71.2065 54.0126C71.2078 54.1518 71.2091 54.2911 71.2104 54.4346C71.2029 55.676 70.9245 56.6225 70.0313 57.5156C69.2441 58.1061 68.2994 58.0216 67.3595 57.9375C66.5387 57.6943 66.0264 57.067 65.5313 56.3906C65.3986 55.9925 65.3721 55.7444 65.3694 55.3317C65.3682 55.2012 65.3671 55.0706 65.3659 54.9362C65.3653 54.7932 65.3647 54.6503 65.3641 54.5031C65.3623 54.277 65.3623 54.277 65.3605 54.0464C65.3581 53.7188 65.356 53.3913 65.3541 53.0637C65.3512 52.5462 65.3474 52.0286 65.3433 51.5111C65.3335 50.226 65.3251 48.9409 65.3167 47.6558C65.3096 46.5698 65.3019 45.4838 65.2934 44.3979C65.2897 43.8864 65.2868 43.375 65.2839 42.8636C65.2815 42.5521 65.2792 42.2407 65.2767 41.9293C65.2762 41.7858 65.2756 41.6423 65.275 41.4945C65.2738 41.3647 65.2726 41.235 65.2714 41.1013C65.2703 40.9312 65.2703 40.9312 65.2692 40.7577C65.2781 40.4974 65.2781 40.4974 65.1095 40.3594C64.8376 40.3462 64.5653 40.3429 64.2932 40.3434C64.1186 40.3434 63.9441 40.3434 63.7642 40.3434C63.5723 40.3442 63.3804 40.3449 63.1885 40.3456C62.9932 40.3459 62.798 40.3461 62.6027 40.3462C62.0878 40.3468 61.573 40.3482 61.0581 40.3497C60.5331 40.3512 60.0081 40.3518 59.4831 40.3525C58.4523 40.354 57.4215 40.3564 56.3907 40.3594C56.1831 40.7747 56.2285 41.196 56.2278 41.6514C56.2272 41.7567 56.2265 41.8621 56.2257 41.9706C56.2236 42.3254 56.2224 42.6801 56.2212 43.0349C56.2199 43.2885 56.2185 43.542 56.217 43.7956C56.2132 44.4856 56.2102 45.1756 56.2074 45.8657C56.2044 46.5862 56.2005 47.3067 56.1967 48.0272C56.1897 49.3923 56.1834 50.7574 56.1773 52.1225C56.1704 53.6763 56.1627 55.2302 56.1549 56.784C56.1389 59.981 56.1238 63.178 56.1095 66.375C56.3515 66.3727 56.3515 66.3727 56.5984 66.3703C58.1212 66.356 59.6439 66.3455 61.1667 66.3386C61.9496 66.3349 62.7323 66.3299 63.5152 66.322C64.271 66.3143 65.0269 66.3101 65.7828 66.3083C66.0707 66.307 66.3587 66.3045 66.6466 66.3007C67.0509 66.2955 67.455 66.2949 67.8594 66.2952C68.0367 66.2914 68.0367 66.2914 68.2177 66.2875C69.249 66.2964 69.9248 66.6904 70.6466 67.4121C71.2014 68.3084 71.239 69.1653 71.0157 70.1719C70.7134 70.959 70.2086 71.4484 69.4906 71.8717C69.1352 72.0222 68.8732 72.0369 68.4878 72.0395C68.3469 72.0411 68.206 72.0427 68.0608 72.0444C67.907 72.0447 67.7532 72.045 67.5948 72.0453C67.4321 72.0467 67.2695 72.0481 67.1019 72.0496C66.5632 72.0537 66.0245 72.0556 65.4858 72.0571C65.2059 72.0583 64.9261 72.0595 64.6462 72.0608C63.8662 72.0641 63.0862 72.0662 62.3062 72.0672C61.2997 72.0684 60.2934 72.0734 59.2869 72.0815C58.5075 72.0876 57.7282 72.0905 56.9487 72.0908C56.4839 72.0911 56.0192 72.0932 55.5544 72.0978C55.035 72.1026 54.5158 72.1021 53.9964 72.1003C53.8441 72.1028 53.6917 72.1054 53.5347 72.1081C52.5019 72.0968 51.8172 71.8592 51.047 71.1562C50.355 70.2842 50.3229 69.367 50.325 68.2958C50.3247 68.1781 50.3244 68.0604 50.3241 67.9391C50.3232 67.5449 50.3233 67.1507 50.3234 66.7565C50.323 66.4737 50.3225 66.1909 50.322 65.9082C50.3207 65.1399 50.3204 64.3717 50.3203 63.6034C50.3202 63.123 50.3199 62.6427 50.3196 62.1623C50.3183 60.4854 50.3177 58.8085 50.3178 57.1316C50.3179 55.5705 50.3164 54.0095 50.3142 52.4484C50.3123 51.1068 50.3116 49.7653 50.3117 48.4237C50.3117 47.6231 50.3113 46.8225 50.3098 46.0218C50.3084 45.268 50.3084 44.5142 50.3095 43.7603C50.3096 43.4846 50.3093 43.2089 50.3084 42.9332C50.3009 40.3339 50.4097 38.0676 52.3274 36.1214C53.5882 34.9474 54.8746 34.4208 56.6076 34.4145Z" fill="url(#paint1_linear_840_2303)"/>
<path d="M7.54406 47.2273C7.7239 47.226 7.90374 47.2246 8.08903 47.2232C8.28318 47.2226 8.47732 47.222 8.67146 47.2214C8.77067 47.221 8.86988 47.2206 8.9721 47.2202C9.49758 47.2181 10.0231 47.2168 10.5485 47.2162C11.0861 47.2154 11.6235 47.2121 12.1611 47.2081C12.579 47.2054 12.9969 47.2047 13.4149 47.2045C13.6128 47.2041 13.8107 47.203 14.0085 47.2011C16.3243 47.1808 18.22 47.5678 19.9484 49.166C21.4525 50.8317 21.6776 52.7354 21.6766 54.8784C21.6771 55.0331 21.6776 55.1878 21.6781 55.3472C21.6794 55.8561 21.6797 56.3651 21.6798 56.874C21.6803 57.2291 21.6807 57.5843 21.6812 57.9394C21.6821 58.6827 21.6824 59.426 21.6823 60.1692C21.6822 61.0262 21.6837 61.8831 21.6859 62.7401C21.6879 63.5675 21.6884 64.395 21.6884 65.2224C21.6885 65.5731 21.6891 65.9239 21.6902 66.2746C21.6916 66.7653 21.6912 67.256 21.6904 67.7466C21.6912 67.8907 21.6919 68.0348 21.6928 68.1833C21.6885 69.1494 21.657 70.1674 21.0673 70.9805C21.016 71.0552 20.9647 71.1298 20.9119 71.2068C20.0333 72.0512 19.2113 72.082 18.0445 72.075C17.8816 72.0762 17.7186 72.0774 17.5508 72.0787C17.0136 72.0819 16.4766 72.0809 15.9395 72.0796C15.6599 72.0802 15.3803 72.0807 15.1007 72.0815C14.2222 72.0839 13.3437 72.0834 12.4652 72.0811C11.5612 72.0787 10.6572 72.0809 9.7532 72.0854C8.97486 72.0892 8.19655 72.0902 7.4182 72.089C6.95427 72.0883 6.49041 72.0889 6.02649 72.0915C5.5088 72.094 4.9913 72.0919 4.47362 72.0887C4.24531 72.0912 4.24531 72.0912 4.0124 72.0937C2.85934 72.0793 2.16612 71.7755 1.35347 70.9629C0.7722 70.0239 0.802591 69.0605 0.805076 67.9882C0.804357 67.8276 0.803639 67.6669 0.802898 67.5014C0.800947 66.9716 0.801078 66.4418 0.801403 65.9119C0.800856 65.5422 0.800246 65.1724 0.799577 64.8027C0.798423 64.0278 0.798548 63.253 0.799308 62.4781C0.800156 61.5863 0.79843 60.6944 0.795431 59.8026C0.792641 58.9407 0.792228 58.0788 0.792722 57.2169C0.79265 56.8521 0.791919 56.4873 0.790499 56.1225C0.788752 55.6107 0.78972 55.0989 0.791343 54.5871C0.790268 54.4382 0.789193 54.2894 0.788086 54.136C0.802285 52.0962 1.3909 50.4458 2.77894 48.9479C4.11548 47.7094 5.75274 47.2383 7.54406 47.2273ZM6.60933 53.4375C6.56984 53.8592 6.55608 54.2514 6.56143 54.673C6.56137 54.7993 6.56131 54.9255 6.56125 55.0556C6.56154 55.4733 6.56482 55.891 6.56813 56.3088C6.56891 56.5982 6.56951 56.8877 6.56994 57.1772C6.57155 57.9394 6.57569 58.7016 6.58036 59.4638C6.58543 60.3781 6.58737 61.2925 6.58983 62.2068C6.59392 63.5962 6.60201 64.9856 6.60933 66.375C9.67214 66.375 12.735 66.375 15.8906 66.375C15.9028 64.1143 15.9028 64.1143 15.9112 61.8536C15.9137 60.9317 15.9167 60.0098 15.9224 59.088C15.927 58.3449 15.9295 57.6018 15.9306 56.8586C15.9314 56.5749 15.9329 56.2912 15.9352 56.0075C15.9382 55.6106 15.9387 55.2137 15.9385 54.8167C15.94 54.6991 15.9415 54.5814 15.9431 54.4602C15.9406 54.0047 15.9194 53.6407 15.7276 53.2239C15.3631 52.9307 15.1181 52.9451 14.653 52.9451C14.4854 52.9438 14.3179 52.9424 14.1453 52.9411C13.9642 52.9427 13.7832 52.9442 13.5966 52.9459C13.4091 52.9458 13.2215 52.9456 13.034 52.9452C12.641 52.945 12.2481 52.9468 11.8552 52.95C11.3515 52.954 10.848 52.9536 10.3443 52.9518C9.95707 52.9509 9.56984 52.9519 9.18259 52.9537C8.90659 52.9546 8.6306 52.954 8.35461 52.9534C8.18708 52.9552 8.01954 52.957 7.84694 52.9588C7.62541 52.9599 7.62541 52.9599 7.39941 52.9611C6.9693 53.0248 6.87403 53.1031 6.60933 53.4375Z" fill="url(#paint2_linear_840_2303)"/>
<path d="M13.1575 26.8347C13.8325 27.4372 14.3932 28.1408 14.9651 28.8396C15.3369 29.2901 15.72 29.7308 16.1018 30.1728C17.8045 32.1485 17.8045 32.1485 17.7618 33.5577C17.6471 34.4494 17.3025 35.0946 16.594 35.6484C16.0061 36.0618 15.5142 36.1599 14.801 36.1494C14.6886 36.1481 14.5762 36.1469 14.4604 36.1456C14.3756 36.1439 14.2908 36.1423 14.2034 36.1406C14.2013 36.2853 14.1993 36.43 14.1971 36.579C14.189 37.1185 14.1781 37.6578 14.1665 38.1971C14.1618 38.4301 14.1578 38.663 14.1546 38.896C14.1499 39.2319 14.1425 39.5676 14.1347 39.9034C14.1338 40.0067 14.1329 40.11 14.132 40.2165C14.1076 41.0804 13.8751 41.6341 13.3157 42.2842C12.512 42.9757 11.8682 43.1121 10.824 43.0785C10.0495 42.9909 9.53993 42.7719 9.03045 42.1743C8.39383 41.2713 8.27884 40.5802 8.28338 39.4777C8.28358 39.382 8.28378 39.2862 8.28398 39.1875C8.28476 38.8838 8.28653 38.5801 8.28832 38.2764C8.28903 38.0695 8.28967 37.8627 8.29025 37.6559C8.29179 37.1508 8.29421 36.6457 8.29711 36.1406C8.20253 36.1431 8.10795 36.1455 8.01051 36.148C7.88538 36.1499 7.76026 36.1518 7.63134 36.1538C7.50776 36.1563 7.38417 36.1587 7.25684 36.1612C6.53151 36.1204 6.0028 35.8347 5.51373 35.3051C4.80223 34.3874 4.67652 33.6358 4.78149 32.4844C5.02065 31.5056 5.81533 30.8133 6.48711 30.1053C6.85826 29.7122 7.20218 29.3022 7.54125 28.8809C7.95925 28.3649 8.38033 27.853 8.81567 27.3516C8.91192 27.2399 9.00818 27.1282 9.10735 27.0132C10.2895 25.9074 11.8856 25.9095 13.1575 26.8347Z" fill="url(#paint3_linear_840_2303)"/>
<path d="M62.0333 13.5703C63.1159 14.193 63.8683 15.2316 64.636 16.1905C64.9792 16.6062 65.3394 16.9996 65.7072 17.3936C66.6581 18.4273 67.2782 19.2891 67.2573 20.7241C67.1564 21.6945 66.6433 22.3033 65.9088 22.9037C65.4307 23.2243 65.0075 23.2185 64.4503 23.2119C64.3106 23.2106 64.1708 23.2094 64.0268 23.2081C63.92 23.2064 63.8133 23.2048 63.7033 23.2031C63.7055 23.3286 63.7077 23.454 63.71 23.5832C63.7172 24.0542 63.7225 24.5251 63.7264 24.9961C63.7285 25.1989 63.7314 25.4017 63.7351 25.6045C63.7614 27.0959 63.7605 28.461 62.681 29.6098C62.1125 30.0833 61.4711 30.2518 60.7413 30.2871C59.7491 30.1926 59.0675 29.8012 58.3595 29.1094C57.9231 28.4128 57.8802 27.8704 57.8964 27.0758C57.897 26.9646 57.8976 26.8535 57.8982 26.7389C57.9006 26.3864 57.9059 26.0341 57.9113 25.6816C57.9134 25.4416 57.9153 25.2015 57.917 24.9615C57.9217 24.3753 57.9289 23.7892 57.9376 23.2031C57.8222 23.2058 57.7068 23.2084 57.588 23.2112C57.3605 23.2142 57.3605 23.2142 57.1285 23.2174C56.9783 23.2201 56.8281 23.2227 56.6733 23.2254C55.9673 23.1882 55.5695 22.9371 55.0603 22.4401C54.3867 21.6867 54.2113 21.0338 54.2391 20.0451C54.3659 18.9732 55.0577 18.2865 55.77 17.5254C56.1021 17.1643 56.4097 16.7922 56.716 16.4092C57.2101 15.8026 57.7148 15.208 58.2365 14.625C58.3374 14.5085 58.3374 14.5085 58.4404 14.3897C59.3807 13.3546 60.7196 12.9896 62.0333 13.5703Z" fill="url(#paint4_linear_840_2303)"/>
<path d="M37.334 0.120852C38.3084 0.696945 39.0083 1.6794 39.7157 2.54396C39.9388 2.81382 40.1663 3.07928 40.3959 3.34369C40.4708 3.42998 40.5457 3.51626 40.6228 3.60517C40.7648 3.76844 40.9069 3.9316 41.0492 4.09461C41.9721 5.16462 42.5304 5.91446 42.5069 7.36963C42.4316 8.09428 42.1686 8.61735 41.6335 9.11151C40.9382 9.65056 40.4506 9.86302 39.5598 9.85254C39.4201 9.85127 39.2803 9.85 39.1363 9.8487C39.0295 9.84706 38.9228 9.84543 38.8127 9.84375C38.8172 9.99048 38.8216 10.1372 38.8261 10.2884C38.8415 10.8379 38.8511 11.3875 38.8591 11.9372C38.8633 12.1741 38.8691 12.411 38.8764 12.6478C38.9482 15.0225 38.9482 15.0225 38.1929 15.9516C37.4888 16.6443 36.9935 16.773 36.0178 16.8223C35.1989 16.797 34.6754 16.647 34.0128 16.1713C33.2842 15.3924 33.1045 14.7346 33.1328 13.7027C33.1336 13.5917 33.1344 13.4808 33.1352 13.3664C33.1383 13.0153 33.1454 12.6645 33.1526 12.3135C33.1554 12.0741 33.158 11.8347 33.1603 11.5952C33.1664 11.0113 33.1761 10.4276 33.1877 9.84375C33.0831 9.8462 32.9785 9.84865 32.8707 9.85117C32.7326 9.85307 32.5945 9.85498 32.4522 9.85694C32.3157 9.85938 32.1791 9.86183 32.0385 9.86435C31.2917 9.82566 30.7679 9.55474 30.2643 9.00824C29.7708 8.37331 29.5116 7.88306 29.4963 7.06641C29.4927 6.95112 29.4891 6.83583 29.4854 6.71704C29.5996 5.75374 30.0899 5.11686 30.718 4.4209C30.8689 4.24936 31.0198 4.07779 31.1707 3.90619C31.2481 3.81898 31.3255 3.73176 31.4052 3.6419C31.7904 3.20559 32.168 2.76278 32.5461 2.32031C32.6141 2.24118 32.6821 2.16204 32.7521 2.0805C33.0733 1.70629 33.3909 1.33003 33.703 0.948123C34.6335 -0.144215 35.9804 -0.347372 37.334 0.120852Z" fill="url(#paint5_linear_840_2303)"/>
</g>
<defs>
<linearGradient id="paint0_linear_840_2303" x1="20.303" y1="28.7101" x2="60.1291" y2="34.9586" gradientUnits="userSpaceOnUse">
<stop offset="0.00899994" stop-color="#8FEEFC"/>
<stop offset="0.529" stop-color="#4E8AEE"/>
<stop offset="1" stop-color="#0048FF"/>
</linearGradient>
<linearGradient id="paint1_linear_840_2303" x1="45.0825" y1="40.0559" x2="84.0604" y2="48.317" gradientUnits="userSpaceOnUse">
<stop offset="0.00899994" stop-color="#8FEEFC"/>
<stop offset="0.529" stop-color="#4E8AEE"/>
<stop offset="1" stop-color="#0048FF"/>
</linearGradient>
<linearGradient id="paint2_linear_840_2303" x1="-4.43808" y1="50.9344" x2="32.4883" y2="62.791" gradientUnits="userSpaceOnUse">
<stop offset="0.00899994" stop-color="#8FEEFC"/>
<stop offset="0.529" stop-color="#4E8AEE"/>
<stop offset="1" stop-color="#0048FF"/>
</linearGradient>
<linearGradient id="paint3_linear_840_2303" x1="1.4931" y1="28.6992" x2="24.8478" y2="35.5717" gradientUnits="userSpaceOnUse">
<stop offset="0.00899994" stop-color="#8FEEFC"/>
<stop offset="0.529" stop-color="#4E8AEE"/>
<stop offset="1" stop-color="#0048FF"/>
</linearGradient>
<linearGradient id="paint4_linear_840_2303" x1="50.9809" y1="15.8432" x2="74.3478" y2="22.6896" gradientUnits="userSpaceOnUse">
<stop offset="0.00899994" stop-color="#8FEEFC"/>
<stop offset="0.529" stop-color="#4E8AEE"/>
<stop offset="1" stop-color="#0048FF"/>
</linearGradient>
<linearGradient id="paint5_linear_840_2303" x1="26.2298" y1="2.42514" x2="49.5857" y2="9.29095" gradientUnits="userSpaceOnUse">
<stop offset="0.00899994" stop-color="#8FEEFC"/>
<stop offset="0.529" stop-color="#4E8AEE"/>
<stop offset="1" stop-color="#0048FF"/>
</linearGradient>
<clipPath id="clip0_840_2303">
<rect width="72" height="72" fill="white"/>
</clipPath>
</defs>
</svg>
