<svg width="32" height="26" viewBox="0 0 32 26" fill="none" xmlns="http://www.w3.org/2000/svg">
<path d="M7 12.1875H27C27.2652 12.1875 27.5196 12.2731 27.7071 12.4255C27.8946 12.5778 28 12.7845 28 13C28 13.2155 27.8946 13.4222 27.7071 13.5745C27.5196 13.7269 27.2652 13.8125 27 13.8125H7C6.73478 13.8125 6.48043 13.7269 6.29289 13.5745C6.10536 13.4222 6 13.2155 6 13C6 12.7845 6.10536 12.5778 6.29289 12.4255C6.48043 12.2731 6.73478 12.1875 7 12.1875Z" fill="white"/>
<path d="M7.41383 13L15.7078 19.7373C15.8956 19.8899 16.0011 20.0968 16.0011 20.3125C16.0011 20.5283 15.8956 20.7352 15.7078 20.8878C15.5201 21.0404 15.2654 21.1261 14.9998 21.1261C14.7343 21.1261 14.4796 21.0404 14.2918 20.8878L5.29183 13.5753C5.19871 13.4998 5.12482 13.4102 5.07441 13.3115C5.024 13.2127 4.99805 13.1069 4.99805 13C4.99805 12.8932 5.024 12.7874 5.07441 12.6886C5.12482 12.5899 5.19871 12.5003 5.29183 12.4248L14.2918 5.1123C14.4796 4.95973 14.7343 4.87402 14.9998 4.87402C15.2654 4.87402 15.5201 4.95973 15.7078 5.1123C15.8956 5.26487 16.0011 5.47179 16.0011 5.68755C16.0011 5.90331 15.8956 6.11023 15.7078 6.2628L7.41383 13Z" fill="white"/>
</svg>
