<svg width="72" height="72" viewBox="0 0 72 72" fill="none" xmlns="http://www.w3.org/2000/svg">
<g clip-path="url(#clip0_840_2233)">
<path d="M26.0507 38.1886C26.9591 38.7147 27.3941 39.4608 27.8613 40.3771C28.3313 41.2116 28.7664 41.4373 29.6537 41.7394C31.3521 42.384 32.4043 43.7687 33.1814 45.344C33.6202 46.4189 33.651 47.3599 33.6502 48.5153C33.6511 48.6979 33.6521 48.8805 33.653 49.0686C33.6555 49.5675 33.6562 50.0664 33.6563 50.5654C33.6565 50.8778 33.6571 51.1903 33.6579 51.5028C33.6605 52.5953 33.6616 53.6877 33.6614 54.7802C33.6613 55.7947 33.6642 56.8093 33.6687 57.8238C33.6724 58.6978 33.6738 59.5718 33.6737 60.4458C33.6736 60.9665 33.6744 61.4872 33.6774 62.0078C33.6806 62.5897 33.6793 63.1715 33.6776 63.7533C33.6792 63.9232 33.6808 64.0931 33.6824 64.2682C33.6678 66.2629 32.9605 67.9594 31.6142 69.4337C29.9172 71.0166 28.0279 71.3613 25.7989 71.3538C25.5812 71.3546 25.3634 71.3556 25.1457 71.3567C24.5579 71.3592 23.9701 71.3591 23.3823 71.3583C22.8899 71.3579 22.3976 71.3587 21.9052 71.3596C20.7428 71.3615 19.5804 71.3613 18.418 71.3597C17.2225 71.3581 16.027 71.3601 14.8315 71.3639C13.8016 71.367 12.7718 71.3679 11.7419 71.3671C11.1283 71.3666 10.5148 71.3669 9.90123 71.3694C9.32385 71.3716 8.74653 71.371 8.16914 71.3683C7.95851 71.3678 7.74786 71.3682 7.53723 71.3697C5.38662 71.3837 3.52986 70.863 1.93352 69.3634C0.463937 67.802 -0.0869261 66.0167 -0.0728547 63.9082C-0.0738404 63.7241 -0.0748261 63.5401 -0.0758416 63.3504C-0.0783844 62.8501 -0.0774215 62.3498 -0.0756292 61.8495C-0.0741935 61.3229 -0.0755282 60.7963 -0.0764081 60.2697C-0.0774283 59.3856 -0.0760914 58.5016 -0.073404 57.6175C-0.0703447 56.5994 -0.0713347 55.5814 -0.0744318 54.5633C-0.0769952 53.6851 -0.0773385 52.8069 -0.0758717 51.9287C-0.0750004 51.406 -0.0748623 50.8833 -0.0767364 50.3606C-0.0786827 49.7771 -0.0759754 49.1937 -0.0728547 48.6103C-0.0739933 48.4399 -0.075132 48.2696 -0.0763051 48.0941C-0.0573606 46.1711 0.572924 44.5403 1.85882 43.105C3.22316 41.7805 5.00189 41.0213 6.90466 41.039C7.02726 41.0416 7.14986 41.0441 7.27617 41.0468C7.55029 41.0499 7.82442 41.0531 8.09854 41.0562C8.24245 41.0583 8.38636 41.0605 8.53463 41.0627C9.30438 41.0729 10.0742 41.0743 10.844 41.0772C11.8201 41.0813 12.796 41.088 13.772 41.1045C14.564 41.1177 15.3555 41.1217 16.1475 41.1199C16.4471 41.1209 16.7468 41.1251 17.0463 41.1327C18.8394 41.1767 20.0156 41.0388 21.3644 39.7866C21.5264 39.629 21.6874 39.4703 21.8472 39.3105C22.9895 38.2385 24.5209 37.4988 26.0507 38.1886ZM22.7532 45.9784C21.8161 46.6619 21.0512 46.7483 19.9211 46.7373C19.7783 46.7376 19.6355 46.7379 19.4884 46.7382C19.1796 46.7386 18.8709 46.7381 18.5621 46.7368C18.0733 46.7348 17.5845 46.7357 17.0956 46.7375C15.7062 46.7418 14.3168 46.7411 12.9274 46.7383C12.0765 46.7368 11.2256 46.7386 10.3747 46.7425C10.0508 46.7433 9.72685 46.7427 9.40296 46.7408C8.95021 46.7381 8.49766 46.7397 8.04491 46.7422C7.91142 46.7403 7.77793 46.7385 7.6404 46.7365C7.03132 46.7441 6.59851 46.7694 6.10649 47.15C5.6327 47.68 5.60765 48.075 5.60518 48.7688C5.60438 48.9043 5.60357 49.0397 5.60275 49.1792C5.60259 49.3269 5.60243 49.4745 5.60227 49.6266C5.60157 49.7829 5.60087 49.9391 5.60015 50.1001C5.5981 50.6173 5.59714 51.1345 5.59636 51.6518C5.59556 52.0112 5.59475 52.3706 5.59394 52.73C5.59265 53.3875 5.59176 54.0451 5.59134 54.7026C5.59071 55.6688 5.58824 56.635 5.58416 57.6013C5.58075 58.4395 5.57967 59.2777 5.57943 60.116C5.579 60.472 5.57787 60.8279 5.57603 61.1839C5.57363 61.6821 5.57389 62.1802 5.5748 62.6784C5.57351 62.8252 5.57221 62.972 5.57088 63.1232C5.57556 63.9394 5.63903 64.5352 6.0468 65.2501C6.53495 65.5755 6.72335 65.5674 7.29946 65.5699C7.55972 65.572 7.55972 65.572 7.82522 65.5742C8.01783 65.5743 8.21043 65.5744 8.40303 65.5745C8.60561 65.5755 8.8082 65.5767 9.01078 65.578C9.56137 65.5811 10.112 65.5823 10.6626 65.583C11.0065 65.5836 11.3505 65.5844 11.6944 65.5854C12.8942 65.5889 14.094 65.5907 15.2939 65.5912C16.4124 65.5917 17.531 65.5959 18.6495 65.6018C19.6097 65.6067 20.5699 65.6089 21.5301 65.609C22.1037 65.6091 22.6772 65.6103 23.2508 65.6143C23.7903 65.618 24.3297 65.6183 24.8692 65.616C25.0671 65.6158 25.265 65.6167 25.4629 65.619C26.5793 65.6418 26.5793 65.6418 27.6097 65.2773C27.969 64.5877 27.9405 63.9516 27.9324 63.1847C27.9334 63.0184 27.9344 62.8521 27.9355 62.6807C27.9374 62.2257 27.9363 61.7708 27.9335 61.3158C27.9312 60.839 27.9324 60.3623 27.9331 59.8855C27.9338 59.0849 27.9316 58.2844 27.9276 57.4839C27.9231 56.5591 27.9231 55.6344 27.9255 54.7096C27.9278 53.819 27.9268 52.9284 27.9244 52.0378C27.9235 51.6592 27.9236 51.2807 27.9246 50.9021C27.9254 50.3732 27.9225 49.8444 27.9187 49.3155C27.9196 49.1588 27.9205 49.002 27.9215 48.8404C27.9125 47.9954 27.9125 47.9954 27.5885 47.2285C27.1758 46.8799 26.7525 46.7815 26.2353 46.6788C25.5212 46.5321 25.0064 46.3609 24.4687 45.8439C24.3257 45.6109 24.1845 45.3768 24.0468 45.1407C23.522 45.1407 23.1378 45.65 22.7532 45.9784Z" fill="url(#paint0_linear_840_2233)"/>
<path d="M46.2011 0.646287C46.4189 0.645483 46.6366 0.644503 46.8544 0.643362C47.4422 0.640852 48.03 0.641003 48.6178 0.641807C49.1101 0.642243 49.6025 0.641383 50.0948 0.640536C51.2573 0.638565 52.4197 0.638777 53.5821 0.640381C54.7776 0.641995 55.973 0.640017 57.1685 0.636248C58.1984 0.633123 59.2283 0.6322 60.2581 0.633024C60.8717 0.633496 61.4852 0.633171 62.0988 0.630739C62.6762 0.62855 63.2535 0.629134 63.8309 0.631766C64.0415 0.632281 64.2522 0.631858 64.4628 0.630376C66.6134 0.616408 68.4702 1.13711 70.0665 2.6367C71.5639 4.2307 72.0874 6.08838 72.0729 8.23561C72.0739 8.41831 72.0749 8.60101 72.0759 8.78925C72.0784 9.28523 72.0775 9.78115 72.0757 10.2771C72.0742 10.7994 72.0756 11.3217 72.0765 11.8439C72.0775 12.7205 72.0761 13.5971 72.0734 14.4737C72.0704 15.4831 72.0714 16.4924 72.0745 17.5018C72.077 18.3729 72.0774 19.2439 72.0759 20.1149C72.075 20.6332 72.0749 21.1515 72.0768 21.6698C72.0787 22.2482 72.076 22.8266 72.0729 23.405C72.074 23.5738 72.0752 23.7426 72.0764 23.9165C72.0574 25.8278 71.431 27.4902 70.1264 28.9001C68.1493 30.7779 66.028 30.9979 63.4208 30.9523C62.9681 30.945 62.5156 30.9417 62.0629 30.9397C60.7768 30.9338 59.4908 30.9263 58.2048 30.9033C57.4152 30.8894 56.6259 30.8847 55.8361 30.8856C55.5376 30.8843 55.2392 30.8798 54.9409 30.8717C53.1512 30.8247 51.9826 30.9639 50.6364 32.2133C50.4742 32.371 50.3131 32.5297 50.153 32.6895C49.2216 33.5631 48.1945 34.0883 46.9167 34.0697C45.9938 33.9737 45.3577 33.4983 44.7853 32.7931C44.5343 32.4188 44.3434 32.0244 44.1388 31.623C43.6687 30.7885 43.2337 30.5628 42.3464 30.2607C40.648 29.6161 39.5957 28.2314 38.8187 26.6561C38.3798 25.5812 38.349 24.6402 38.3499 23.4848C38.3489 23.3022 38.348 23.1196 38.347 22.9315C38.3445 22.4326 38.3439 21.9337 38.3437 21.4347C38.3435 21.1223 38.3429 20.8098 38.3422 20.4973C38.3396 19.4048 38.3384 18.3124 38.3386 17.2199C38.3388 16.2054 38.3358 15.1908 38.3314 14.1763C38.3277 13.3023 38.3262 12.4283 38.3264 11.5543C38.3264 11.0336 38.3257 10.5129 38.3227 9.99227C38.3194 9.41041 38.3207 8.82864 38.3224 8.24677C38.3208 8.07686 38.3193 7.90696 38.3176 7.7319C38.3323 5.73715 39.0396 4.04074 40.3859 2.56639C42.0828 0.983546 43.9721 0.638817 46.2011 0.646287ZM44.3906 6.72203C44.0298 7.41493 44.0573 8.05764 44.0632 8.82832C44.0617 8.996 44.0602 9.16368 44.0587 9.33644C44.0556 9.79525 44.0556 10.2539 44.0573 10.7127C44.0583 11.0961 44.0571 11.4795 44.0559 11.8628C44.0531 12.7673 44.0539 13.6718 44.057 14.5763C44.0601 15.5088 44.0576 16.4411 44.0523 17.3736C44.0479 18.175 44.0468 18.9763 44.0484 19.7777C44.0493 20.256 44.049 20.7343 44.0457 21.2126C44.0429 21.7459 44.0454 22.2789 44.0494 22.8123C44.0475 22.9704 44.0456 23.1285 44.0436 23.2914C44.0366 24.051 44.0366 24.051 44.3378 24.7231C44.7816 25.1094 45.1872 25.2588 45.7648 25.3125C46.5063 25.4204 46.9995 25.6229 47.5314 26.1562C47.8038 26.5517 47.8038 26.5517 47.9532 26.8594C48.5437 26.5866 49.0418 26.2087 49.5655 25.8266C50.393 25.286 51.0832 25.2731 52.047 25.2788C52.1897 25.2785 52.3325 25.2782 52.4796 25.2779C52.7891 25.2774 53.0987 25.2775 53.4082 25.2782C53.8982 25.279 54.3882 25.2777 54.8782 25.2758C56.2712 25.2706 57.6641 25.2679 59.0572 25.2695C59.9096 25.2704 60.762 25.2678 61.6144 25.2631C61.9391 25.262 62.2638 25.2621 62.5885 25.2636C63.0426 25.2657 63.4965 25.2634 63.9507 25.2601C64.0846 25.2618 64.2185 25.2634 64.3565 25.2651C64.9664 25.2566 65.4011 25.2311 65.8938 24.8499C66.3673 24.3201 66.3924 23.9248 66.3949 23.2313C66.3957 23.0958 66.3965 22.9604 66.3973 22.8209C66.3975 22.6732 66.3976 22.5256 66.3978 22.3735C66.3985 22.2172 66.3992 22.061 66.3999 21.9C66.4019 21.3828 66.4029 20.8656 66.4037 20.3483C66.4045 19.9889 66.4053 19.6295 66.4061 19.2701C66.4074 18.6125 66.4083 17.955 66.4087 17.2975C66.4093 16.3313 66.4118 15.3651 66.4159 14.3988C66.4193 13.5606 66.4204 12.7224 66.4206 11.8841C66.421 11.5281 66.4222 11.1722 66.424 10.8162C66.4264 10.318 66.4262 9.8199 66.4252 9.32171C66.4272 9.10151 66.4272 9.10151 66.4292 8.87687C66.4245 8.06068 66.361 7.4649 65.9532 6.74998C65.4651 6.42455 65.2767 6.43267 64.7006 6.43018C64.5271 6.42878 64.3536 6.42737 64.1748 6.42593C63.9822 6.4258 63.7896 6.42571 63.597 6.42564C63.3944 6.42457 63.1919 6.42339 62.9893 6.4221C62.4387 6.41901 61.8881 6.41777 61.3375 6.41706C60.9935 6.41655 60.6496 6.41567 60.3056 6.41467C59.1058 6.41122 57.906 6.40939 56.7062 6.40889C55.5876 6.40838 54.4691 6.40417 53.3505 6.39829C52.3903 6.39341 51.4301 6.39123 50.4699 6.39114C49.8963 6.39103 49.3228 6.38979 48.7493 6.38579C48.2098 6.38212 47.6703 6.3818 47.1308 6.38406C46.9329 6.38431 46.735 6.38337 46.5371 6.38113C45.4211 6.35837 45.4211 6.35837 44.3906 6.72203Z" fill="url(#paint1_linear_840_2233)"/>
<path d="M7.8423 0.630352C8.06009 0.629588 8.27789 0.628585 8.49569 0.627365C9.08232 0.62482 9.66889 0.625787 10.2555 0.627578C10.8724 0.629012 11.4892 0.627679 12.1061 0.626798C13.1416 0.625778 14.1771 0.627116 15.2125 0.629803C16.406 0.632863 17.5994 0.631871 18.7928 0.628775C19.8215 0.626214 20.8501 0.625866 21.8788 0.627334C22.4914 0.628207 23.104 0.628341 23.7166 0.62647C24.2929 0.624833 24.8691 0.625994 25.4453 0.629223C25.6555 0.62996 25.8657 0.629765 26.0758 0.628513C28.2819 0.616597 30.0946 1.19025 31.7461 2.69825C33.2285 4.2876 33.6735 6.0912 33.6684 8.19925C33.6696 8.38145 33.6708 8.56366 33.672 8.75139C33.6751 9.2474 33.6756 9.74337 33.6753 10.2394C33.6753 10.6555 33.6765 11.0717 33.6776 11.4878C33.6803 12.4709 33.6808 13.454 33.6798 14.4371C33.6789 15.4463 33.6821 16.4555 33.6873 17.4647C33.6916 18.3355 33.6932 19.2062 33.6927 20.077C33.6924 20.5952 33.6931 21.1133 33.6966 21.6315C33.7003 22.2106 33.6983 22.7895 33.6959 23.3686C33.6977 23.5369 33.6996 23.7051 33.7015 23.8784C33.683 25.767 33.0489 27.4226 31.7812 28.8281C30.7998 29.7802 29.697 30.3666 28.4062 30.7969C28.2331 31.0107 28.2331 31.0107 28.0871 31.2781C28.0288 31.376 27.9705 31.4739 27.9105 31.5747C27.7912 31.7804 27.6721 31.9862 27.5534 32.1922C27.0935 32.9632 26.6254 33.4763 25.8398 33.9346C24.8275 34.1877 23.9678 34.1079 23.0515 33.6044C22.2008 33.0324 21.4196 32.3673 20.6387 31.7046C20.5568 31.6371 20.475 31.5696 20.3906 31.5C20.3198 31.4273 20.2489 31.3545 20.1759 31.2795C19.6396 30.969 19.1244 31.021 18.5153 31.0263C18.3159 31.0255 18.3159 31.0255 18.1124 31.0247C17.8237 31.0238 17.535 31.0238 17.2462 31.0247C16.7879 31.026 16.3296 31.0245 15.8712 31.0223C14.5679 31.0167 13.2646 31.0165 11.9613 31.0169C11.1637 31.0169 10.3662 31.0141 9.56862 31.0099C9.11956 31.0084 8.67059 31.0101 8.22153 31.0119C5.75786 31.0074 3.7087 30.6035 1.84733 28.8688C0.386526 27.3038 -0.0863449 25.4882 -0.0750346 23.3943C-0.0762462 23.2105 -0.0774577 23.0266 -0.078706 22.8372C-0.0818406 22.338 -0.0814625 21.8389 -0.0802075 21.3397C-0.0794832 20.9208 -0.080519 20.5018 -0.0815395 20.0828C-0.0839209 19.0934 -0.083438 18.104 -0.0810771 17.1145C-0.0786982 16.0986 -0.0809255 15.0827 -0.0854679 14.0668C-0.089238 13.1899 -0.090241 12.313 -0.0890518 11.4361C-0.0883633 10.9144 -0.0886446 10.3928 -0.0915533 9.87109C-0.094646 9.28864 -0.0919511 8.70634 -0.0887675 8.12389C-0.0904117 7.95428 -0.092056 7.78467 -0.09375 7.60992C-0.0722611 5.66573 0.688907 3.99205 2.00389 2.57521C3.66442 1.00551 5.63232 0.617191 7.8423 0.630352ZM6.00307 6.79085C5.66266 7.33708 5.60745 7.7745 5.60618 8.41125C5.60558 8.54708 5.60498 8.68291 5.60436 8.82285C5.60442 8.97094 5.60449 9.11903 5.60455 9.27162C5.60408 9.4283 5.60361 9.58499 5.60312 9.74642C5.60178 10.265 5.60151 10.7836 5.60136 11.3022C5.60091 11.6623 5.60044 12.0224 5.59994 12.3825C5.5991 13.1375 5.59883 13.8925 5.59892 14.6476C5.59901 15.5197 5.59752 16.3918 5.5953 17.264C5.59324 18.1037 5.59274 18.9435 5.59282 19.7832C5.59266 20.1402 5.59203 20.4972 5.59095 20.8542C5.58957 21.3531 5.58997 21.8519 5.59082 22.3508C5.59003 22.4986 5.58924 22.6465 5.58843 22.7987C5.58902 22.935 5.58961 23.0712 5.59021 23.2115C5.59014 23.3294 5.59006 23.4473 5.58998 23.5688C5.6478 24.1263 5.81952 24.5102 6.18706 24.9305C6.79862 25.2801 7.32931 25.2469 8.0223 25.2375C8.16416 25.2378 8.30602 25.2381 8.45218 25.2385C8.75987 25.2388 9.06757 25.2379 9.37525 25.2359C9.86307 25.2328 10.3508 25.2334 10.8386 25.2349C12.0506 25.2379 13.2626 25.2355 14.4746 25.2318C15.4982 25.2288 16.5217 25.2286 17.5453 25.2322C18.0244 25.2329 18.5034 25.2294 18.9824 25.2258C19.2786 25.2266 19.5749 25.2275 19.8711 25.2287C20.003 25.2266 20.1349 25.2245 20.2708 25.2224C21.6072 25.2366 22.6166 25.7875 23.5722 26.6995C23.7599 26.8893 23.7599 26.8893 24.0469 26.8594C24.2284 26.6269 24.38 26.381 24.5374 26.1315C25.1422 25.4017 25.9664 25.3308 26.8511 25.1774C27.4137 24.9863 27.5433 24.8443 27.8437 24.3281C27.9287 23.7807 27.922 23.2376 27.9187 22.6846C27.92 22.5183 27.9212 22.352 27.9224 22.1806C27.9251 21.7256 27.9252 21.2707 27.9239 20.8157C27.9232 20.4354 27.9242 20.0552 27.9253 19.675C27.9276 18.7779 27.9271 17.8809 27.9248 16.9838C27.9224 16.059 27.9246 15.1343 27.9292 14.2095C27.9329 13.4146 27.934 12.6199 27.9328 11.825C27.9321 11.3507 27.9324 10.8764 27.9353 10.402C27.9377 9.87308 27.9357 9.34436 27.9325 8.81544C27.9341 8.65865 27.9358 8.50186 27.9375 8.34032C27.9297 7.71337 27.9021 7.28372 27.6095 6.72329C26.8366 6.30377 26.0359 6.37101 25.1743 6.37778C24.9717 6.37683 24.7691 6.37558 24.5665 6.37405C24.017 6.37084 23.4677 6.37208 22.9182 6.37431C22.3429 6.3761 21.7676 6.37444 21.1923 6.37334C20.2263 6.37206 19.2603 6.37374 18.2942 6.37709C17.1777 6.38092 16.0613 6.37968 14.9447 6.37581C13.9857 6.37262 13.0267 6.37217 12.0677 6.37401C11.4951 6.3751 10.9225 6.37525 10.3499 6.37293C9.81155 6.3709 9.27328 6.37231 8.73491 6.37637C8.53747 6.3773 8.34002 6.37703 8.14258 6.37548C6.99179 6.31297 6.99179 6.31297 6.00307 6.79085Z" fill="url(#paint2_linear_840_2233)"/>
<path d="M48.9485 38.3956C49.7992 38.9677 50.5803 39.6327 51.3613 40.2955C51.4431 40.363 51.525 40.4305 51.6093 40.5C51.6802 40.5728 51.751 40.6455 51.824 40.7205C52.3603 41.031 52.8756 40.979 53.4847 40.9738C53.6841 40.9746 53.6841 40.9746 53.8875 40.9754C54.1762 40.9763 54.465 40.9762 54.7537 40.9753C55.2121 40.9741 55.6704 40.9755 56.1288 40.9777C57.432 40.9833 58.7353 40.9835 60.0386 40.9832C60.8362 40.9832 61.6338 40.9859 62.4313 40.9901C62.8804 40.9916 63.3294 40.9899 63.7784 40.9882C66.2421 40.9926 68.2913 41.3966 70.1526 43.1312C71.6262 44.7099 72.102 46.561 72.0887 48.6679C72.0879 48.9653 72.0945 49.2618 72.1016 49.5591C72.1124 50.7254 71.9947 51.5924 71.1562 52.4531C70.5084 53.0059 69.7434 53.1927 68.9062 53.1563C67.9237 52.9611 67.2305 52.5833 66.6425 51.7577C66.263 51.0777 66.2911 50.3851 66.2871 49.6231C66.2835 49.3502 66.2787 49.0774 66.2728 48.8046C66.272 48.6849 66.2711 48.5653 66.2703 48.442C66.2173 47.9289 66.0955 47.5497 65.7483 47.162C65.1833 46.8568 64.6257 46.913 63.9936 46.9191C63.8518 46.9188 63.7099 46.9185 63.5638 46.9182C63.2557 46.9178 62.9476 46.9183 62.6396 46.9196C62.1512 46.9215 61.6629 46.9206 61.1745 46.9189C59.7859 46.9146 58.3973 46.9153 57.0087 46.9181C56.1592 46.9196 55.3097 46.9178 54.4601 46.9139C54.1371 46.9131 53.814 46.9137 53.491 46.9156C53.0376 46.9183 52.5845 46.9167 52.1311 46.9142C51.9329 46.917 51.9329 46.917 51.7307 46.9199C50.4638 46.9043 49.4687 46.3873 48.498 45.5889C48.3932 45.5039 48.2885 45.4189 48.1805 45.3313C48.1055 45.2684 48.0304 45.2055 47.9531 45.1406C47.9163 45.2476 47.8795 45.3545 47.8416 45.4647C47.5662 46.0798 47.1357 46.3779 46.5468 46.6875C46.073 46.8222 45.6056 46.9219 45.1203 47.0056C44.6866 47.1177 44.5627 47.1822 44.2968 47.5313C44.233 47.8606 44.233 47.8606 44.2423 48.2349C44.2409 48.3802 44.2395 48.5255 44.2381 48.6752C44.2387 48.8345 44.2394 48.9939 44.24 49.158C44.2386 49.4098 44.2386 49.4098 44.2371 49.6667C44.235 50.1272 44.2347 50.5877 44.2355 51.0483C44.236 51.4327 44.2351 51.8171 44.2343 52.2015C44.2323 53.1084 44.2325 54.0153 44.2341 54.9222C44.2357 55.8579 44.2338 56.7935 44.23 57.7291C44.2269 58.5324 44.2259 59.3357 44.2268 60.139C44.2272 60.6187 44.2269 61.0985 44.2245 61.5783C44.2224 62.1133 44.2239 62.6482 44.2263 63.1832C44.2242 63.4218 44.2242 63.4218 44.2222 63.6652C44.2236 63.8109 44.2249 63.9566 44.2264 64.1067C44.2264 64.2332 44.2264 64.3597 44.2264 64.49C44.3226 64.952 44.4802 65.1141 44.8593 65.3906C45.2588 65.475 45.2588 65.475 45.708 65.4621C45.8819 65.4637 46.0558 65.4652 46.2349 65.4669C46.4273 65.4658 46.6196 65.4646 46.8119 65.4634C47.0147 65.4642 47.2176 65.4652 47.4204 65.4664C47.971 65.469 48.5215 65.468 49.0721 65.4662C49.6482 65.4648 50.2243 65.4661 50.8004 65.467C51.7679 65.468 52.7354 65.4667 53.7029 65.464C54.8215 65.4609 55.9401 65.4619 57.0588 65.465C58.0191 65.4676 58.9794 65.4679 59.9398 65.4664C60.5134 65.4656 61.087 65.4655 61.6606 65.4673C62.1999 65.4689 62.7391 65.4678 63.2784 65.4646C63.4763 65.4638 63.6743 65.464 63.8722 65.4653C64.1423 65.4668 64.4125 65.4645 64.6826 65.4621C64.8338 65.4619 64.985 65.4617 65.1407 65.4614C65.6288 65.3729 65.7925 65.2152 66.0937 64.8281C66.2261 64.404 66.2261 64.404 66.2959 63.9405C66.4892 63.0234 66.7067 62.4134 67.4549 61.8322C68.2611 61.3471 69.116 61.336 70.0312 61.4531C70.8536 61.6608 71.4138 62.1457 71.8495 62.8671C72.3709 64.3021 72.0636 66.0119 71.4375 67.3594C70.5515 69.155 69.1887 70.3452 67.3112 71.0353C66.2651 71.3727 65.2435 71.3761 64.1576 71.3697C63.9399 71.3704 63.7221 71.3714 63.5043 71.3727C62.9176 71.3752 62.3311 71.3742 61.7444 71.3725C61.1276 71.371 60.5107 71.3724 59.8938 71.3732C58.8584 71.3743 57.8229 71.3729 56.7874 71.3702C55.594 71.3672 54.4006 71.3682 53.2072 71.3713C52.1785 71.3738 51.1498 71.3742 50.1211 71.3727C49.5085 71.3718 48.8959 71.3717 48.2833 71.3736C47.7071 71.3752 47.1309 71.374 46.5547 71.3708C46.3445 71.3701 46.1343 71.3703 45.9241 71.3715C43.7181 71.3834 41.9053 70.8098 40.2539 69.3018C38.7696 67.7105 38.3259 65.9068 38.3338 63.7963C38.3328 63.6137 38.3318 63.431 38.3308 63.2428C38.3283 62.7457 38.3285 62.2485 38.3293 61.7514C38.3297 61.3345 38.3289 60.9177 38.328 60.5008C38.3261 59.5164 38.3263 58.5319 38.3279 57.5475C38.3295 56.536 38.3275 55.5246 38.3237 54.5132C38.3206 53.641 38.3197 52.7688 38.3205 51.8965C38.321 51.3773 38.3207 50.858 38.3182 50.3388C38.3156 49.759 38.3176 49.1793 38.32 48.5995C38.3187 48.4302 38.3173 48.261 38.3159 48.0866C38.3323 46.1884 38.953 44.5671 40.2132 43.1411C41.1506 42.2351 42.3618 41.6138 43.5937 41.2031C43.7668 40.9893 43.7668 40.9893 43.9129 40.7219C43.9711 40.6241 44.0294 40.5262 44.0895 40.4253C44.2088 40.2197 44.3278 40.0139 44.4465 39.8079C44.9065 39.0368 45.3745 38.5237 46.1601 38.0654C47.1724 37.8124 48.0321 37.8922 48.9485 38.3956Z" fill="url(#paint3_linear_840_2233)"/>
</g>
<defs>
<linearGradient id="paint0_linear_840_2233" x1="-8.51734" y1="42.9384" x2="48.7383" y2="65.0331" gradientUnits="userSpaceOnUse">
<stop offset="0.00899994" stop-color="#8FEEFC"/>
<stop offset="0.529" stop-color="#4E8AEE"/>
<stop offset="1" stop-color="#0048FF"/>
</linearGradient>
<linearGradient id="paint1_linear_840_2233" x1="29.8777" y1="5.64551" x2="87.1294" y2="27.7447" gradientUnits="userSpaceOnUse">
<stop offset="0.00899994" stop-color="#8FEEFC"/>
<stop offset="0.529" stop-color="#4E8AEE"/>
<stop offset="1" stop-color="#0048FF"/>
</linearGradient>
<linearGradient id="paint2_linear_840_2233" x1="-8.54257" y1="5.64301" x2="48.7571" y2="27.7788" gradientUnits="userSpaceOnUse">
<stop offset="0.00899994" stop-color="#8FEEFC"/>
<stop offset="0.529" stop-color="#4E8AEE"/>
<stop offset="1" stop-color="#0048FF"/>
</linearGradient>
<linearGradient id="paint3_linear_840_2233" x1="29.8663" y1="42.9431" x2="87.1699" y2="65.0824" gradientUnits="userSpaceOnUse">
<stop offset="0.00899994" stop-color="#8FEEFC"/>
<stop offset="0.529" stop-color="#4E8AEE"/>
<stop offset="1" stop-color="#0048FF"/>
</linearGradient>
<clipPath id="clip0_840_2233">
<rect width="72" height="72" fill="white"/>
</clipPath>
</defs>
</svg>
