<svg width="44" height="44" viewBox="0 0 44 44" fill="none" xmlns="http://www.w3.org/2000/svg">
<path d="M11 20C10.7348 20 10.4804 19.8946 10.2929 19.7071C10.1054 19.5195 10 19.2652 10 19V11.002C10 10.7367 10.1054 10.4824 10.2929 10.2948C10.4804 10.1073 10.7348 10.002 11 10.002H19C19.2652 10.002 19.5196 10.1073 19.7071 10.2948C19.8946 10.4824 20 10.7367 20 11.002V19C20 19.2652 19.8946 19.5195 19.7071 19.7071C19.5196 19.8946 19.2652 20 19 20H11ZM25 20C24.7348 20 24.4804 19.8946 24.2929 19.7071C24.1054 19.5195 24 19.2652 24 19V11.002C24 10.7367 24.1054 10.4824 24.2929 10.2948C24.4804 10.1073 24.7348 10.002 25 10.002H32.998C33.2632 10.002 33.5176 10.1073 33.7051 10.2948C33.8926 10.4824 33.998 10.7367 33.998 11.002V19C33.998 19.2652 33.8926 19.5195 33.7051 19.7071C33.5176 19.8946 33.2632 20 32.998 20H25ZM11 34C10.7348 34 10.4804 33.8946 10.2929 33.7071C10.1054 33.5195 10 33.2652 10 33V25C10 24.7347 10.1054 24.4804 10.2929 24.2928C10.4804 24.1053 10.7348 24 11 24H19C19.2652 24 19.5196 24.1053 19.7071 24.2928C19.8946 24.4804 20 24.7347 20 25V33C20 33.2652 19.8946 33.5195 19.7071 33.7071C19.5196 33.8946 19.2652 34 19 34H11ZM25 34C24.7348 34 24.4804 33.8946 24.2929 33.7071C24.1054 33.5195 24 33.2652 24 33V25C24 24.7347 24.1054 24.4804 24.2929 24.2928C24.4804 24.1053 24.7348 24 25 24H32.998C33.2632 24 33.5176 24.1053 33.7051 24.2928C33.8926 24.4804 33.998 24.7347 33.998 25V33C33.998 33.2652 33.8926 33.5195 33.7051 33.7071C33.5176 33.8946 33.2632 34 32.998 34H25Z" fill="#2D2D2D"/>
</svg>
