<svg width="72" height="72" viewBox="0 0 72 72" fill="none" xmlns="http://www.w3.org/2000/svg">
<g clip-path="url(#clip0_399_1170)">
<path d="M32.7393 11.1708C33.4293 11.9791 33.6307 12.4825 33.6263 13.5486C33.6265 13.7076 33.6265 13.7076 33.6267 13.8699C33.6269 14.2261 33.6261 14.5824 33.6254 14.9387C33.6253 15.1937 33.6254 15.4487 33.6254 15.7036C33.6255 16.3968 33.6246 17.09 33.6237 17.7832C33.6228 18.5073 33.6227 19.2314 33.6225 19.9555C33.6221 21.327 33.6209 22.6986 33.6195 24.0702C33.618 25.6315 33.6172 27.1928 33.6165 28.7541C33.615 31.9663 33.6125 35.1784 33.6094 38.3905C33.742 38.3902 33.8746 38.3898 34.0111 38.3894C37.2363 38.38 40.4615 38.3731 43.6867 38.3687C45.2464 38.3665 46.8061 38.3635 48.3658 38.3587C49.7251 38.3545 51.0844 38.3518 52.4438 38.3508C53.1636 38.3503 53.8834 38.349 54.6033 38.3459C55.2808 38.3431 55.9583 38.3422 56.6358 38.3428C56.8845 38.3427 57.1331 38.3419 57.3817 38.3403C57.7214 38.3382 58.061 38.3387 58.4006 38.3398C58.4988 38.3386 58.5971 38.3374 58.6983 38.3361C59.5402 38.3438 60.0816 38.5945 60.7061 39.1464C61.7596 40.3422 61.6561 41.5546 61.5769 43.0739C61.3989 45.8685 60.8623 48.5728 59.9854 51.2314C59.9349 51.3847 59.8844 51.5379 59.8324 51.6959C59.2685 53.3352 58.7263 54.827 57.1905 55.7402C56.2514 55.9585 55.3862 55.9364 54.5378 55.4545C53.8528 54.9499 53.3763 54.3693 53.2436 53.5171C53.1687 52.2916 53.4962 51.4175 53.9707 50.3048C54.3025 49.5247 54.5904 48.7524 54.8174 47.9355C54.843 47.8469 54.8686 47.7583 54.895 47.667C55.0976 46.9132 55.2196 46.1473 55.3457 45.3779C55.3651 45.2604 55.3845 45.1428 55.4045 45.0217C55.4522 44.7332 55.4996 44.4447 55.5469 44.1562C55.4175 44.1566 55.2881 44.1569 55.1547 44.1573C52.0046 44.1667 48.8544 44.1736 45.7042 44.178C44.1808 44.1802 42.6574 44.1832 41.1339 44.188C39.806 44.1922 38.4781 44.1949 37.1502 44.1959C36.4471 44.1964 35.7441 44.1977 35.0411 44.2008C34.3791 44.2036 33.717 44.2045 33.0549 44.2039C32.8123 44.204 32.5697 44.2048 32.3271 44.2065C31.9949 44.2086 31.6628 44.208 31.3307 44.2069C31.2354 44.2081 31.1402 44.2094 31.0421 44.2106C30.2119 44.2029 29.4416 44.0109 28.7941 43.4717C28.7183 43.3785 28.6426 43.2854 28.5645 43.1894C28.4865 43.0969 28.4086 43.0045 28.3283 42.9092C27.8771 42.2434 27.8033 41.6446 27.81 40.8553C27.8097 40.7508 27.8095 40.6462 27.8092 40.5385C27.8088 40.1889 27.8103 39.8394 27.8119 39.4898C27.8119 39.239 27.8119 38.9881 27.8117 38.7372C27.8116 38.0565 27.8133 37.3758 27.8153 36.6952C27.817 35.9837 27.8172 35.2722 27.8175 34.5607C27.8184 33.2135 27.8207 31.8663 27.8235 30.5192C27.8267 28.9854 27.8282 27.4516 27.8296 25.9178C27.8326 22.7629 27.8375 19.608 27.8438 16.453C27.4383 16.5193 27.0329 16.5859 26.6275 16.6527C26.5134 16.6713 26.3993 16.6899 26.2817 16.709C25.4616 16.8445 24.6603 17.009 23.8623 17.2441C23.6802 17.2973 23.6802 17.2973 23.4944 17.3516C17.3418 19.223 11.9686 23.5249 8.88358 29.1798C6.89152 32.9608 5.84269 36.9155 5.85355 41.1943C5.85362 41.3083 5.8537 41.4223 5.85378 41.5397C5.85963 43.4432 6.00058 45.2573 6.46878 47.1093C6.49817 47.2284 6.52756 47.3476 6.55784 47.4703C8.15411 53.7526 12.2484 59.2095 17.7671 62.5737C22.4409 65.3503 27.8908 66.7122 33.3282 66.0937C33.4537 66.0796 33.5793 66.0655 33.7087 66.051C37.9134 65.5421 41.7308 63.9899 45.2189 61.6221C45.3294 61.5473 45.4399 61.4725 45.5537 61.3954C45.6507 61.3285 45.7477 61.2616 45.8476 61.1926C46.5356 60.7922 47.3346 60.7995 48.1009 60.9455C48.9334 61.1976 49.4324 61.7337 49.9219 62.4374C50.2052 63.2873 50.1734 64.2957 49.9307 65.1532C48.8692 66.5364 47.3264 67.3436 45.8438 68.203C45.7572 68.2545 45.6706 68.306 45.5813 68.3591C42.8662 69.968 39.7813 70.9512 36.7032 71.578C36.5862 71.6029 36.4692 71.6277 36.3486 71.6532C32.7498 72.3834 28.4778 72.3499 24.8907 71.578C24.7759 71.5554 24.6612 71.5328 24.5429 71.5094C21.6205 70.9289 18.7827 69.9211 16.1719 68.4843C16.0102 68.3982 15.8485 68.3121 15.6819 68.2234C11.8707 66.1324 8.46756 63.1335 5.90628 59.6249C5.81782 59.506 5.72936 59.3871 5.63821 59.2646C2.26316 54.6009 0.0239099 48.6915 -0.0334776 42.9048C-0.0355531 42.731 -0.0355531 42.731 -0.0376705 42.5536C-0.115495 34.3312 2.21834 26.8852 7.73441 20.6718C7.8564 20.5326 7.9784 20.3934 8.1041 20.2499C8.78383 19.4861 9.4821 18.7954 10.2657 18.1405C10.3886 18.0301 10.5115 17.9198 10.6381 17.806C14.4167 14.4401 27.6967 6.80055 32.7393 11.1708Z" fill="url(#paint0_linear_399_1170)"/>
<path d="M54.479 2.80588C54.8429 2.98797 55.2025 3.17709 55.5604 3.37085C55.8347 3.51927 56.1109 3.66381 56.3873 3.80845C57.8052 4.56431 59.0736 5.46777 60.3281 6.46879C60.4457 6.56168 60.4457 6.56168 60.5656 6.65645C62.6499 8.31464 64.5236 10.2243 66.0937 12.375C66.1822 12.494 66.2706 12.6129 66.3618 12.7354C69.3334 16.8417 71.094 21.5906 71.8593 26.5782C71.8867 26.7525 71.9141 26.9269 71.9423 27.1066C72.0437 27.9635 72.0315 28.8279 72.0351 29.6895C72.0394 29.953 72.0394 29.953 72.0439 30.2218C72.045 30.4766 72.045 30.4766 72.0461 30.7365C72.0474 30.8899 72.0487 31.0432 72.0501 31.2013C71.9671 31.9281 71.6659 32.4783 71.1035 32.9414C71.0241 33.0089 70.9447 33.0763 70.8629 33.1458C70.1694 33.6156 69.5155 33.6502 68.6978 33.647C68.5181 33.648 68.5181 33.648 68.3347 33.6489C67.9333 33.6507 67.532 33.6505 67.1306 33.6503C66.8428 33.6511 66.555 33.6521 66.2671 33.6531C65.4852 33.6556 64.7034 33.6563 63.9215 33.6565C63.2687 33.6567 62.6159 33.6578 61.9631 33.6587C60.4228 33.661 58.8826 33.6617 57.3423 33.6615C55.7537 33.6614 54.1652 33.6643 52.5766 33.6688C51.2125 33.6724 49.8484 33.674 48.4842 33.6738C47.6696 33.6737 46.855 33.6745 46.0404 33.6775C45.2741 33.6802 44.5078 33.6802 43.7415 33.6782C43.4606 33.6779 43.1796 33.6785 42.8987 33.6802C42.5145 33.6824 42.1305 33.6811 41.7463 33.6789C41.6357 33.6804 41.5251 33.6818 41.4111 33.6833C40.5492 33.6726 39.8042 33.4427 39.1596 32.8484C38.4576 32.0513 38.3489 31.3386 38.353 30.3073C38.3523 30.1874 38.3517 30.0676 38.351 29.9442C38.3493 29.5428 38.3495 29.1415 38.3497 28.7401C38.3489 28.4523 38.3479 28.1644 38.3469 27.8766C38.3444 27.0947 38.3437 26.3128 38.3435 25.531C38.3433 24.8782 38.3422 24.2254 38.3412 23.5726C38.3389 22.0323 38.3383 20.492 38.3385 18.9518C38.3386 17.3632 38.3357 15.7746 38.3312 14.1861C38.3275 12.8219 38.326 11.4578 38.3262 10.0937C38.3263 9.27909 38.3255 8.4645 38.3225 7.64989C38.3198 6.88358 38.3198 6.11731 38.3218 5.351C38.3221 5.07006 38.3214 4.78911 38.3197 4.50817C38.3176 4.12397 38.3189 3.73994 38.321 3.35575C38.3189 3.18985 38.3189 3.18985 38.3167 3.02059C38.3279 2.11164 38.6036 1.38053 39.2085 0.694922C39.2895 0.630932 39.3706 0.566942 39.454 0.501013C39.5354 0.434485 39.6168 0.367958 39.7007 0.299414C43.0267 -1.93076 51.3015 1.27603 54.479 2.80588ZM44.1562 5.90629C44.1562 13.1457 44.1562 20.385 44.1562 27.8438C46.1981 27.8438 48.2399 27.8438 50.3437 27.8438C50.349 27.3156 50.3542 26.7873 50.3596 26.2431C50.3661 25.7306 50.3733 25.2182 50.3806 24.7058C50.3853 24.3501 50.3892 23.9944 50.3924 23.6386C50.3971 23.1269 50.4045 22.6152 50.4124 22.1034C50.4137 21.8654 50.4137 21.8654 50.4151 21.6226C50.4298 20.8321 50.4453 20.2211 50.9062 19.5469C51.614 18.8699 52.1578 18.5558 53.1298 18.5098C54.0884 18.5326 54.6964 18.8559 55.3886 19.503C56.0284 20.5002 56.0134 21.649 56.0269 22.8038C56.0294 22.9325 56.0319 23.0611 56.0344 23.1937C56.0432 23.6685 56.0498 24.1433 56.0566 24.6182C56.074 25.6826 56.0914 26.7471 56.1093 27.8438C59.4042 27.8438 62.699 27.8438 66.0937 27.8438C65.5366 21.716 62.452 15.9839 57.8534 11.9109C54.0971 8.84515 49.1616 5.90629 44.1562 5.90629Z" fill="url(#paint1_linear_399_1170)"/>
</g>
<defs>
<linearGradient id="paint0_linear_399_1170" x1="-15.4552" y1="19.2041" x2="89.6545" y2="58.9666" gradientUnits="userSpaceOnUse">
<stop offset="0.00899994" stop-color="#8FEEFC"/>
<stop offset="0.529" stop-color="#4E8AEE"/>
<stop offset="1" stop-color="#0048FF"/>
</linearGradient>
<linearGradient id="paint1_linear_399_1170" x1="29.8833" y1="4.65697" x2="87.4075" y2="26.384" gradientUnits="userSpaceOnUse">
<stop offset="0.00899994" stop-color="#8FEEFC"/>
<stop offset="0.529" stop-color="#4E8AEE"/>
<stop offset="1" stop-color="#0048FF"/>
</linearGradient>
<clipPath id="clip0_399_1170">
<rect width="72" height="72" fill="white"/>
</clipPath>
</defs>
</svg>
