<svg width="72" height="72" viewBox="0 0 72 72" fill="none" xmlns="http://www.w3.org/2000/svg">
<g clip-path="url(#clip0_399_830)">
<path d="M11.6793 -0.0715C11.8989 -0.0721499 12.1185 -0.0730444 12.338 -0.0741591C12.9353 -0.0764865 13.5325 -0.0753562 14.1297 -0.0736043C14.7762 -0.0723236 15.4227 -0.0743 16.0692 -0.075843C17.3332 -0.0783363 18.5972 -0.0778076 19.8613 -0.0761734C20.8891 -0.0748999 21.917 -0.0747322 22.9449 -0.0753431C23.0915 -0.0754293 23.2381 -0.0755155 23.3892 -0.0756043C23.6871 -0.0757841 23.9851 -0.0759665 24.283 -0.0761514C27.0728 -0.077753 29.8625 -0.0759148 32.6523 -0.0728887C35.0429 -0.0703758 37.4334 -0.0708123 39.824 -0.0734055C42.6042 -0.0764198 45.3844 -0.0775985 48.1646 -0.0758736C48.4614 -0.0756944 48.7582 -0.0755175 49.055 -0.0753431C49.274 -0.0752129 49.274 -0.0752129 49.4975 -0.0750801C50.5234 -0.0745957 51.5493 -0.0754115 52.5752 -0.0767378C53.8265 -0.07832 55.0777 -0.0778789 56.329 -0.0748924C56.9667 -0.0734203 57.6043 -0.0728246 58.242 -0.0746951C58.827 -0.076385 59.412 -0.0754276 59.997 -0.0724577C60.2073 -0.0718352 60.4177 -0.0721357 60.628 -0.0735128C62.478 -0.084685 64.2158 0.219461 65.8652 1.09856C65.9586 1.14684 66.052 1.19511 66.1482 1.24485C67.2007 1.80364 68.0943 2.50211 68.9062 3.37493C68.9999 3.46792 69.0936 3.56092 69.1902 3.65673C70.8024 5.32386 72.0137 7.74451 72.0188 10.1003C72.0194 10.2338 72.0201 10.3673 72.0207 10.5048C72.0207 10.723 72.0207 10.723 72.0206 10.9456C72.0212 11.101 72.0217 11.2564 72.0222 11.4166C72.0238 11.9384 72.0243 12.4602 72.0248 12.9821C72.0257 13.3558 72.0267 13.7296 72.0276 14.1033C72.0304 15.2253 72.0318 16.3473 72.0331 17.4693C72.0337 17.998 72.0345 18.5266 72.0352 19.0552C72.0376 20.8127 72.0396 22.5703 72.0406 24.3278C72.0409 24.7836 72.0412 25.2394 72.0415 25.6951C72.0415 25.8084 72.0416 25.9217 72.0417 26.0384C72.0428 27.874 72.0464 29.7097 72.0509 31.5453C72.0556 33.4306 72.0581 35.3159 72.0586 37.2013C72.0589 38.2595 72.0601 39.3178 72.0637 40.376C72.0668 41.2771 72.0679 42.1781 72.0665 43.0792C72.0659 43.5388 72.0665 43.9983 72.0689 44.4578C72.0714 44.9565 72.0704 45.4551 72.0685 45.9538C72.0709 46.1706 72.0708 46.1706 72.0732 46.3918C72.0643 47.3832 71.9075 48.1801 71.182 48.9149C71.101 48.9659 71.02 49.0168 70.9365 49.0693C70.8551 49.1227 70.7737 49.1762 70.6898 49.2313C69.8967 49.6601 68.8715 49.6295 68.0125 49.4186C67.1091 49.0342 66.9718 48.5671 66.3749 47.6718C66.3749 44.7946 66.3749 41.9174 66.3749 38.9531C57.2793 38.9531 48.1837 38.9531 38.8124 38.9531C38.8124 48.0023 38.8124 57.0515 38.8124 66.3749C44.1898 66.3488 44.1898 66.3488 49.6757 66.3222C50.8057 66.3174 51.9356 66.3126 53.0998 66.3077C54.1169 66.3021 54.1169 66.3021 55.134 66.2961C55.5853 66.2935 56.0366 66.2916 56.488 66.2902C57.0654 66.2883 57.6427 66.2852 58.2201 66.2811C58.431 66.2798 58.6418 66.279 58.8527 66.2787C61.0629 66.2751 63.0265 66.1163 64.7127 64.5496C65.6958 63.4589 66.0713 62.2721 66.2079 60.829C66.3412 59.7984 66.5362 59.1103 67.3297 58.4225C67.9956 57.9516 68.6528 57.7483 69.4687 57.7968C70.4562 57.995 71.1529 58.3695 71.7335 59.2097C72.0785 59.8312 72.0859 60.4028 72.0703 61.1015C72.0684 61.2254 72.0665 61.3492 72.0645 61.4768C71.988 63.9282 70.9888 66.3865 69.3281 68.2031C69.2155 68.3285 69.1029 68.4539 68.9869 68.5832C67.1964 70.48 64.7084 71.8325 62.076 72.0394C61.5074 72.0544 60.9401 72.057 60.3713 72.0545C60.1521 72.055 59.9329 72.0558 59.7137 72.0567C59.1155 72.0588 58.5173 72.0582 57.9191 72.0572C57.2724 72.0565 56.6256 72.0582 55.9788 72.0597C54.7133 72.0621 53.4478 72.0622 52.1823 72.0615C51.1532 72.0609 50.1241 72.0611 49.0951 72.0619C48.9484 72.062 48.8017 72.0621 48.6505 72.0622C48.3525 72.0624 48.0545 72.0626 47.7564 72.0628C44.9638 72.0648 42.1713 72.064 39.3787 72.0624C36.8267 72.061 34.2748 72.0628 31.7229 72.0662C29.0994 72.0696 26.4759 72.071 23.8524 72.07C22.3808 72.0695 20.9092 72.0698 19.4376 72.0723C18.1847 72.0744 16.9319 72.0745 15.6791 72.072C15.0406 72.0708 14.4021 72.0705 13.7635 72.0727C13.1777 72.0746 12.592 72.0739 12.0062 72.0712C11.7955 72.0707 11.5849 72.0711 11.3743 72.0726C9.52342 72.0846 7.78468 71.7814 6.13471 70.9013C6.04068 70.8524 5.94666 70.8035 5.84979 70.7532C5.09741 70.3519 4.42762 69.9048 3.79682 69.3281C3.67138 69.2155 3.54593 69.1029 3.41669 68.9869C1.51989 67.1964 0.167406 64.7084 -0.0395225 62.076C-0.0545647 61.5074 -0.0570776 60.9401 -0.054574 60.3713C-0.0551618 60.1521 -0.0559326 59.9329 -0.0568689 59.7137C-0.0588911 59.1155 -0.0583075 58.5173 -0.0572669 57.9191C-0.0565992 57.2724 -0.0583632 56.6256 -0.059801 55.9788C-0.0622145 54.7133 -0.062337 53.4478 -0.0615992 52.1823C-0.06103 51.1532 -0.0612347 50.1241 -0.0619854 49.095C-0.0620907 48.9483 -0.0621967 48.8017 -0.0623052 48.6505C-0.0625205 48.3525 -0.0627359 48.0544 -0.0629532 47.7564C-0.064882 44.9638 -0.06412 42.1712 -0.0625058 39.3787C-0.0611094 36.8267 -0.0629281 34.2748 -0.0662931 31.7229C-0.0697261 29.0994 -0.071074 26.4759 -0.0701394 23.8524C-0.0696489 22.3808 -0.0699578 20.9092 -0.0724246 19.4376C-0.0744987 18.1847 -0.0745786 16.9319 -0.0721328 15.6791C-0.0709388 15.0406 -0.0706272 14.4021 -0.0727872 13.7635C-0.0747443 13.1777 -0.0740523 12.592 -0.0713474 12.0062C-0.0708216 11.7955 -0.0712212 11.5849 -0.0726993 11.3742C-0.0847551 9.52293 0.21903 7.78528 1.09858 6.13469C1.17084 5.99458 1.17084 5.99458 1.24456 5.85162C1.64298 5.10004 2.11497 4.43983 2.67182 3.7968C2.75575 3.68532 2.83968 3.57384 2.92615 3.45897C5.09067 0.893189 8.43925 -0.0927127 11.6793 -0.0715ZM6.89057 7.7343C5.61166 9.48151 5.60358 11.2937 5.60898 13.3785C5.60902 13.5969 5.609 13.8153 5.60893 14.0337C5.6089 14.616 5.60971 15.1984 5.6107 15.7807C5.6115 16.3281 5.61154 16.8755 5.61164 17.4229C5.61238 19.0215 5.61434 20.6201 5.61615 22.2187C5.61905 25.792 5.62195 29.3652 5.62494 33.0468C14.7206 33.0468 23.8162 33.0468 33.1874 33.0468C33.1874 23.9976 33.1874 14.9484 33.1874 5.62493C29.6026 5.61913 26.0177 5.61333 22.3242 5.60735C21.1942 5.60479 20.0643 5.60223 18.9001 5.59959C17.883 5.59865 17.883 5.59865 16.8659 5.59809C16.4146 5.59782 15.9633 5.59678 15.5119 5.59524C14.9345 5.59329 14.3572 5.59273 13.7798 5.59313C13.5689 5.59304 13.3581 5.59249 13.1472 5.5914C10.6887 5.57923 8.62286 5.83309 6.89057 7.7343ZM38.8124 5.62493C38.8124 14.6741 38.8124 23.7234 38.8124 33.0468C47.9081 33.0468 57.0037 33.0468 66.3749 33.0468C66.3807 29.4851 66.3865 25.9234 66.3925 22.2538C66.3951 21.1313 66.3976 20.0087 66.4003 18.8521C66.4012 17.8415 66.4012 17.8415 66.4018 16.8309C66.402 16.3825 66.4031 15.9341 66.4046 15.4857C66.4066 14.9121 66.4071 14.3384 66.4067 13.7648C66.4068 13.5553 66.4074 13.3458 66.4085 13.1363C66.42 10.8224 66.2165 8.92146 64.5809 7.17785C62.8543 5.60466 60.8122 5.6033 58.6084 5.60896C58.3886 5.60901 58.1689 5.60899 57.9491 5.60891C57.3629 5.60888 56.7768 5.60969 56.1907 5.61069C55.6397 5.61149 55.0888 5.61153 54.5379 5.61163C52.9289 5.61236 51.3199 5.61433 49.7109 5.61614C44.3162 5.62049 44.3162 5.62049 38.8124 5.62493ZM5.62494 38.9531C5.61914 42.5147 5.61334 46.0764 5.60737 49.746C5.6048 50.8686 5.60224 51.9912 5.59961 53.1478C5.59867 54.1584 5.59867 54.1584 5.5981 55.1689C5.59784 55.6173 5.59679 56.0657 5.59525 56.5141C5.59331 57.0878 5.59275 57.6614 5.59314 58.2351C5.59306 58.4446 5.59251 58.6541 5.59141 58.8635C5.57989 61.1774 5.78341 63.0784 7.41901 64.822C9.14561 66.3952 11.1877 66.3966 13.3915 66.3909C13.6112 66.3909 13.831 66.3909 14.0508 66.391C14.6369 66.391 15.2231 66.3902 15.8092 66.3892C16.3602 66.3884 16.9111 66.3883 17.462 66.3882C19.071 66.3875 20.68 66.3855 22.289 66.3837C25.8855 66.3808 29.482 66.3779 33.1874 66.3749C33.1874 57.3257 33.1874 48.2765 33.1874 38.9531C24.0918 38.9531 14.9962 38.9531 5.62494 38.9531Z" fill="url(#paint0_linear_399_830)"/>
<path d="M17.6045 46.7579C18.2591 47.1319 18.7614 47.682 19.2657 48.2345C19.8754 47.969 20.29 47.5442 20.7681 47.0919C21.4536 46.537 22.0957 46.4846 22.9521 46.503C23.7509 46.5926 24.3417 46.9248 24.8731 47.5226C25.4777 48.3939 25.5676 49.162 25.4532 50.2032C25.1847 51.165 24.4843 51.7974 23.7657 52.4532C24.0312 53.063 24.456 53.4776 24.9082 53.9556C25.4855 54.6687 25.5223 55.3575 25.507 56.2484C25.4021 57.0738 24.9851 57.5791 24.3897 58.131C23.5294 58.7045 22.8232 58.7439 21.7969 58.6407C20.8341 58.3802 20.2013 57.6702 19.5469 56.9532C18.9371 57.2187 18.5226 57.6435 18.0445 58.0958C17.3314 58.673 16.6427 58.7099 15.7517 58.6946C14.9264 58.5896 14.421 58.1726 13.8692 57.5772C13.2957 56.717 13.2563 56.0108 13.3594 54.9845C13.6199 54.0217 14.3299 53.3888 15.0469 52.7345C14.7814 52.1247 14.3566 51.7101 13.9043 51.2321C13.3494 50.5465 13.297 49.9044 13.3155 49.048C13.4051 48.2492 13.7372 47.6584 14.335 47.127C15.3115 46.4494 16.492 46.261 17.6045 46.7579Z" fill="url(#paint1_linear_399_830)"/>
<path d="M20.9356 12.3399C21.5366 12.7726 21.9277 13.243 22.2188 13.9219C22.2507 14.2181 22.2507 14.2181 22.2463 14.5306C22.2454 14.6429 22.2445 14.7553 22.2435 14.8711C22.24 15.0452 22.24 15.0452 22.2364 15.2227C22.2351 15.3409 22.2338 15.4591 22.2325 15.5808C22.2292 15.8716 22.2242 16.1624 22.2188 16.4532C22.3377 16.4499 22.4566 16.4466 22.5792 16.4433C23.8754 16.4226 24.9778 16.4205 26.0157 17.2969C26.6612 18.0506 26.9314 18.836 26.8594 19.8282C26.6517 20.8064 26.2539 21.3777 25.4257 21.9293C25.0058 22.1756 24.7645 22.2358 24.2787 22.2325C24.0993 22.2318 24.0993 22.2318 23.9162 22.2311C23.7911 22.23 23.666 22.2288 23.5372 22.2276C23.411 22.2269 23.2848 22.2263 23.1548 22.2256C22.8428 22.224 22.5308 22.2217 22.2188 22.2188C22.2335 22.4861 22.2335 22.4861 22.2485 22.7588C22.3389 25.0906 22.3389 25.0906 21.6233 25.9316C20.8889 26.5962 20.1226 26.9028 19.1251 26.8594C18.1378 26.6632 17.4437 26.2841 16.858 25.4504C16.5011 24.811 16.5304 24.2088 16.5586 23.4932C16.5612 23.3702 16.5637 23.2472 16.5663 23.1205C16.5729 22.8198 16.583 22.5193 16.5938 22.2188C16.3265 22.2335 16.3265 22.2335 16.0538 22.2484C13.7207 22.339 13.7207 22.339 12.881 21.6228C12.1652 20.8335 11.911 20.06 11.9532 18.9844C12.1146 18.1772 12.5024 17.5914 13.0782 17.0157C13.9299 16.4901 14.7489 16.4343 15.7325 16.4444C15.8945 16.4456 16.0566 16.4469 16.2236 16.4482C16.3457 16.4498 16.4679 16.4515 16.5938 16.4532C16.5856 16.2835 16.5775 16.1138 16.5691 15.939C16.4944 13.738 16.4944 13.738 17.0975 12.9947C17.1633 12.9294 17.2291 12.8641 17.2969 12.7969C17.4071 12.6867 17.5174 12.5765 17.6309 12.4629C18.6518 11.8309 19.8673 11.7759 20.9356 12.3399Z" fill="url(#paint2_linear_399_830)"/>
<path d="M1.26565 5.76562C1.31205 5.76562 1.35846 5.76562 1.40627 5.76562C1.40627 25.7203 1.40627 45.675 1.40627 66.2344C1.03219 65.7356 0.842099 65.3739 0.624047 64.8018C0.536763 64.5769 0.536763 64.5769 0.447716 64.3475C0.0113413 63.0268 -0.0407273 61.7988 -0.0375835 60.4221C-0.0381095 60.2033 -0.0387569 59.9844 -0.0395144 59.7656C-0.0412296 59.1664 -0.0411982 58.5673 -0.040866 57.9682C-0.0408085 57.3211 -0.0423621 56.674 -0.0436947 56.0269C-0.0460281 54.76 -0.0468037 53.493 -0.0469607 52.226C-0.0470944 51.1957 -0.0476731 50.1654 -0.0485639 49.1351C-0.0510401 46.2118 -0.0523383 43.2884 -0.0521273 40.365C-0.052116 40.2075 -0.0521048 40.05 -0.0520932 39.8877C-0.0520817 39.73 -0.0520702 39.5723 -0.0520583 39.4098C-0.0519441 36.8551 -0.0546345 34.3005 -0.0586009 31.7458C-0.0626447 29.1204 -0.0645829 26.495 -0.0643402 23.8697C-0.0642469 22.3966 -0.0650137 20.9236 -0.0680464 19.4505C-0.0706125 18.1961 -0.0712146 16.9418 -0.0693094 15.6874C-0.0683936 15.048 -0.0683655 14.4087 -0.070815 13.7693C-0.0730391 13.1827 -0.0726124 12.5961 -0.0701726 12.0095C-0.0697435 11.7986 -0.0702416 11.5876 -0.0718207 11.3767C-0.0860627 9.3374 0.33929 7.59177 1.26565 5.76562Z" fill="url(#paint3_linear_399_830)"/>
<path d="M48.2656 54.6806C48.3686 54.6799 48.4715 54.6792 48.5776 54.6784C48.9182 54.6764 49.2588 54.6754 49.5995 54.6747C49.8365 54.6738 50.0734 54.673 50.3104 54.6722C50.8075 54.6708 51.3046 54.6699 51.8017 54.6694C52.4377 54.6687 53.0737 54.6653 53.7097 54.6613C54.1994 54.6587 54.689 54.6579 55.1787 54.6577C55.4131 54.6573 55.6475 54.6562 55.8819 54.6543C56.2104 54.6519 56.5389 54.6522 56.8674 54.6531C57.0117 54.6512 57.0117 54.6512 57.159 54.6492C57.9972 54.6564 58.5377 54.9099 59.1592 55.4591C59.8499 56.2431 60.0709 56.8931 60.0469 57.9376C59.8952 58.7595 59.4434 59.5332 58.7813 60.047C57.6913 60.598 56.5634 60.5303 55.3711 60.5249C55.1484 60.5252 54.9257 60.5256 54.703 60.5261C54.2378 60.5267 53.7726 60.5258 53.3073 60.5238C52.7135 60.5214 52.1197 60.5228 51.5258 60.5254C51.0664 60.5269 50.607 60.5264 50.1476 60.5253C49.9287 60.525 49.7098 60.5254 49.491 60.5263C47.0153 60.5351 47.0153 60.5351 46.091 59.7943C45.4103 58.9801 45.0983 58.3246 45.1494 57.2433C45.2742 56.2899 45.6707 55.6511 46.4239 55.0636C47.0548 54.7207 47.5646 54.6817 48.2656 54.6806Z" fill="url(#paint4_linear_399_830)"/>
<path d="M48.6215 44.6962C48.763 44.6951 48.763 44.6951 48.9072 44.6941C49.2184 44.692 49.5295 44.6911 49.8406 44.6903C50.0578 44.6895 50.275 44.6887 50.4922 44.6878C50.9475 44.6864 51.4029 44.6855 51.8582 44.6851C52.4395 44.6843 53.0207 44.6809 53.602 44.6769C54.0508 44.6743 54.4996 44.6736 54.9484 44.6733C55.1626 44.6729 55.3767 44.6718 55.5909 44.6699C58.0235 44.6504 58.0235 44.6504 59.1065 45.4659C59.7851 46.1445 59.9872 46.8009 60.0562 47.7384C60.0339 48.5886 59.6689 49.332 59.0625 49.922C57.9732 50.6687 56.7977 50.5664 55.5293 50.5592C55.294 50.5595 55.0587 50.5601 54.8234 50.5608C54.3317 50.5616 53.84 50.5604 53.3483 50.5578C52.7203 50.5546 52.0925 50.5564 51.4646 50.5598C50.9791 50.5618 50.4936 50.5612 50.0081 50.5597C49.7767 50.5594 49.5453 50.5598 49.3139 50.5611C46.7918 50.5723 46.7918 50.5723 45.8355 49.6396C45.2721 48.7746 44.9923 47.9764 45.2038 46.9408C45.4794 46.1044 45.9302 45.4799 46.6963 45.0265C47.3626 44.7571 47.8995 44.7003 48.6215 44.6962Z" fill="url(#paint5_linear_399_830)"/>
<path d="M48.8831 16.4326C49.0652 16.4318 49.2474 16.4309 49.435 16.4299C49.6321 16.4297 49.8292 16.4296 50.0263 16.4295C50.2305 16.429 50.4347 16.4285 50.6389 16.428C51.0661 16.4272 51.4932 16.4269 51.9204 16.427C52.4654 16.427 53.0104 16.4251 53.5554 16.4227C53.9769 16.4211 54.3984 16.4208 54.82 16.4209C55.0208 16.4208 55.2216 16.4201 55.4224 16.419C58.1478 16.4056 58.1478 16.4056 59.2032 17.2968C59.8487 18.0505 60.1189 18.836 60.0469 19.8281C59.8392 20.8064 59.4414 21.3776 58.6132 21.9292C58.0865 22.2382 57.6589 22.2431 57.0594 22.2481C56.902 22.2501 56.902 22.2501 56.7413 22.2522C56.3928 22.2564 56.0443 22.2594 55.6958 22.2621C55.517 22.2635 55.517 22.2635 55.3347 22.2649C54.7032 22.2695 54.0717 22.2729 53.4401 22.2757C52.9186 22.2782 52.3973 22.283 51.8758 22.2901C51.2454 22.2986 50.6151 22.3029 49.9847 22.3042C49.7451 22.3054 49.5056 22.3081 49.266 22.3122C47.0063 22.3492 47.0063 22.3492 46.0666 21.6011C45.4075 20.9322 45.1851 20.2686 45.127 19.3342C45.1644 18.3795 45.6045 17.6768 46.2657 17.0156C47.1029 16.499 47.9163 16.4359 48.8831 16.4326Z" fill="url(#paint6_linear_399_830)"/>
<path d="M0.281257 8.57812C0.327663 8.57812 0.374069 8.57812 0.421882 8.57812C0.421882 26.6766 0.421882 44.775 0.421882 63.4219C0.329069 63.3755 0.236257 63.3291 0.140632 63.2812C-0.0134026 62.7429 -0.0177389 62.221 -0.0180822 61.6638C-0.0183288 61.5735 -0.0185753 61.4832 -0.0188293 61.3901C-0.0194841 61.0872 -0.019138 60.7842 -0.0187964 60.4812C-0.0190591 60.262 -0.0193826 60.0427 -0.0197618 59.8234C-0.020623 59.2206 -0.0206033 58.6177 -0.0204376 58.0149C-0.0204089 57.3649 -0.0211848 56.7148 -0.0218519 56.0648C-0.0230205 54.7912 -0.0234066 53.5177 -0.0234849 52.2441C-0.0235517 51.2091 -0.0238405 50.1742 -0.0242866 49.1392C-0.0255251 46.2061 -0.0261737 43.273 -0.0260682 40.3399C-0.0260626 40.1817 -0.026057 40.0236 -0.0260512 39.8606C-0.0260455 39.7023 -0.0260397 39.5439 -0.0260338 39.3808C-0.0259766 36.8134 -0.0273229 34.246 -0.029305 31.6786C-0.0313234 29.0435 -0.0322962 26.4085 -0.0321747 23.7734C-0.0321279 22.2936 -0.0325164 20.8138 -0.0340278 19.3339C-0.0353062 18.0742 -0.0356158 16.8144 -0.0346593 15.5547C-0.0341992 14.9118 -0.0341958 14.2689 -0.0354121 13.626C-0.0365138 13.0376 -0.0363213 12.4493 -0.0350909 11.8609C-0.0348741 11.6479 -0.035134 11.4349 -0.035915 11.2219C-0.0369057 10.9325 -0.0361651 10.6432 -0.034993 10.3539C-0.0350236 10.1931 -0.0350542 10.0323 -0.0350857 9.8667C0.00191491 9.39769 0.114387 9.01643 0.281257 8.57812Z" fill="url(#paint7_linear_399_830)"/>
</g>
<defs>
<linearGradient id="paint0_linear_399_830" x1="-18.1111" y1="10.7451" x2="104.543" y2="57.6403" gradientUnits="userSpaceOnUse">
<stop offset="0.00899994" stop-color="#8FEEFC"/>
<stop offset="0.529" stop-color="#4E8AEE"/>
<stop offset="1" stop-color="#0048FF"/>
</linearGradient>
<linearGradient id="paint1_linear_399_830" x1="10.2632" y1="48.3105" x2="31.008" y2="56.2277" gradientUnits="userSpaceOnUse">
<stop offset="0.00899994" stop-color="#8FEEFC"/>
<stop offset="0.529" stop-color="#4E8AEE"/>
<stop offset="1" stop-color="#0048FF"/>
</linearGradient>
<linearGradient id="paint2_linear_399_830" x1="8.21823" y1="14.1874" x2="33.5817" y2="23.8911" gradientUnits="userSpaceOnUse">
<stop offset="0.00899994" stop-color="#8FEEFC"/>
<stop offset="0.529" stop-color="#4E8AEE"/>
<stop offset="1" stop-color="#0048FF"/>
</linearGradient>
<linearGradient id="paint3_linear_399_830" x1="-0.4419" y1="14.8359" x2="2.43882" y2="14.8629" gradientUnits="userSpaceOnUse">
<stop offset="0.00899994" stop-color="#8FEEFC"/>
<stop offset="0.529" stop-color="#4E8AEE"/>
<stop offset="1" stop-color="#0048FF"/>
</linearGradient>
<linearGradient id="paint4_linear_399_830" x1="41.4179" y1="55.5313" x2="56.3959" y2="70.0452" gradientUnits="userSpaceOnUse">
<stop offset="0.00899994" stop-color="#8FEEFC"/>
<stop offset="0.529" stop-color="#4E8AEE"/>
<stop offset="1" stop-color="#0048FF"/>
</linearGradient>
<linearGradient id="paint5_linear_399_830" x1="41.4026" y1="45.5504" x2="56.4345" y2="60.081" gradientUnits="userSpaceOnUse">
<stop offset="0.00899994" stop-color="#8FEEFC"/>
<stop offset="0.529" stop-color="#4E8AEE"/>
<stop offset="1" stop-color="#0048FF"/>
</linearGradient>
<linearGradient id="paint6_linear_399_830" x1="41.3941" y1="17.3025" x2="56.4398" y2="31.841" gradientUnits="userSpaceOnUse">
<stop offset="0.00899994" stop-color="#8FEEFC"/>
<stop offset="0.529" stop-color="#4E8AEE"/>
<stop offset="1" stop-color="#0048FF"/>
</linearGradient>
<linearGradient id="paint7_linear_399_830" x1="-0.150942" y1="16.8047" x2="0.74198" y2="16.8075" gradientUnits="userSpaceOnUse">
<stop offset="0.00899994" stop-color="#8FEEFC"/>
<stop offset="0.529" stop-color="#4E8AEE"/>
<stop offset="1" stop-color="#0048FF"/>
</linearGradient>
<clipPath id="clip0_399_830">
<rect width="72" height="72" fill="white"/>
</clipPath>
</defs>
</svg>
