<svg width="72" height="72" viewBox="0 0 72 72" fill="none" xmlns="http://www.w3.org/2000/svg">
<g clip-path="url(#clip0_840_2242)">
<path d="M3.77372 38.7738C3.92566 38.7731 4.07759 38.7724 4.23413 38.7716C4.73548 38.7697 5.2368 38.7698 5.73815 38.7702C6.08737 38.7696 6.43658 38.769 6.7858 38.7683C7.51753 38.7673 8.24924 38.7673 8.98097 38.7681C9.91756 38.7689 10.8541 38.7665 11.7907 38.7632C12.5119 38.7612 13.233 38.761 13.9542 38.7615C14.2995 38.7614 14.6447 38.7607 14.99 38.7592C15.4733 38.7575 15.9565 38.7585 16.4399 38.7601C16.5818 38.759 16.7237 38.7579 16.8699 38.7568C17.8252 38.7639 18.6541 38.8646 19.431 39.4747C20.0159 40.1716 20.3552 40.8398 20.6543 41.6953C21.3969 43.6681 22.3328 45.4056 23.7656 46.9687C23.941 47.1612 23.941 47.1612 24.1199 47.3576C25.9741 49.3013 28.2123 50.6323 30.7266 51.539C31.6679 51.8833 32.4193 52.2258 32.9062 53.1562C33.2436 53.9436 33.2282 54.6824 33.2261 55.5237C33.2268 55.6756 33.2276 55.8276 33.2283 55.9841C33.2302 56.4854 33.2301 56.9868 33.2298 57.4881C33.2303 57.8373 33.2309 58.1865 33.2316 58.5358C33.2327 59.2675 33.2326 59.9992 33.2319 60.7309C33.2311 61.6675 33.2334 62.6041 33.2367 63.5406C33.2388 64.2618 33.2389 64.983 33.2385 65.7042C33.2385 66.0495 33.2393 66.3947 33.2407 66.74C33.2424 67.2233 33.2415 67.7065 33.2398 68.1898C33.2409 68.3317 33.242 68.4736 33.2431 68.6198C33.2359 69.5844 33.1423 70.4322 32.4932 71.1952C32.3974 71.2722 32.3017 71.3493 32.2031 71.4287C32.1074 71.5082 32.0117 71.5878 31.9131 71.6698C31.0551 72.2666 29.8418 72.1028 28.8611 71.9324C22.7651 70.6782 16.9944 68.0282 12.3146 63.8974C12.1557 63.7576 11.9958 63.6189 11.8353 63.481C10.0834 61.9699 8.4367 60.3279 7.06811 58.4593C6.88476 58.2108 6.69675 57.9664 6.50774 57.7221C3.19837 53.3973 -0.244529 46.7819 -0.0637318 41.2031C0.0616306 40.3731 0.460107 39.893 1.04589 39.3222C1.92495 38.7648 2.76547 38.7714 3.77372 38.7738ZM6.46874 44.5781C6.74618 45.6878 7.00802 46.6536 7.4619 47.6806C7.54431 47.8692 7.54431 47.8692 7.62838 48.0616C9.26138 51.7399 11.4243 54.8957 14.2031 57.7968C14.3028 57.9023 14.4025 58.0078 14.5052 58.1165C15.2401 58.8753 16.0428 59.5383 16.875 60.1875C16.9516 60.2475 17.0283 60.3075 17.1073 60.3693C19.6676 62.3581 24.0452 65.5312 27.4219 65.5312C27.4219 62.5612 27.4219 59.5912 27.4219 56.5312C26.4937 56.0671 25.5656 55.6031 24.6094 55.125C20.3388 52.3842 17.7221 49.0848 15.4687 44.5781C12.4987 44.5781 9.52874 44.5781 6.46874 44.5781Z" fill="url(#paint0_linear_840_2242)"/>
<path d="M50.4937 2.32027C53.2544 3.52409 55.8522 5.02547 58.2187 6.89058C58.4281 7.05536 58.4281 7.05536 58.6417 7.22347C59.0212 7.52903 59.3948 7.84005 59.7656 8.15621C59.8723 8.24721 59.9791 8.33821 60.0891 8.43197C61.8559 9.98198 63.5354 11.6426 64.9296 13.5383C65.1141 13.7876 65.303 14.0331 65.4928 14.2783C68.8015 18.6036 72.2445 25.2178 72.0637 30.7968C71.9383 31.6268 71.5398 32.1069 70.9541 32.6777C70.075 33.2351 69.2345 33.2285 68.2262 33.2261C67.9983 33.2272 67.9983 33.2272 67.7658 33.2283C67.2645 33.2302 66.7631 33.2301 66.2618 33.2298C65.9126 33.2303 65.5634 33.2309 65.2141 33.2316C64.4824 33.2326 63.7507 33.2326 63.019 33.2318C62.0824 33.231 61.1459 33.2334 60.2093 33.2367C59.4881 33.2388 58.7669 33.2389 58.0457 33.2384C57.7004 33.2385 57.3552 33.2392 57.0099 33.2407C56.5266 33.2424 56.0434 33.2414 55.5601 33.2398C55.3472 33.2414 55.3472 33.2414 55.1301 33.2431C54.1747 33.236 53.3458 33.1354 52.5689 32.5253C51.9841 31.8283 51.6448 31.1601 51.3457 30.3046C50.5415 28.1742 49.5043 26.4172 47.9531 24.75C47.8387 24.6242 47.7243 24.4984 47.6065 24.3687C45.8479 22.5162 43.5218 21.1999 41.1152 20.3818C40.2148 20.0709 39.5625 19.6995 39.0937 18.8437C38.7555 18.057 38.7718 17.3171 38.7738 16.4762C38.7731 16.3243 38.7724 16.1724 38.7716 16.0158C38.7697 15.5145 38.7698 15.0132 38.7702 14.5118C38.7696 14.1626 38.769 13.8134 38.7683 13.4641C38.7673 12.7324 38.7673 12.0007 38.7681 11.269C38.7689 10.3324 38.7665 9.39586 38.7632 8.45928C38.7612 7.73808 38.761 7.0169 38.7615 6.29571C38.7614 5.95046 38.7607 5.6052 38.7592 5.25995C38.7575 4.77664 38.7585 4.2934 38.7601 3.81009C38.759 3.66818 38.7579 3.52628 38.7568 3.38007C38.7638 2.44358 38.8481 1.58909 39.4711 0.840414C39.5525 0.777693 39.6339 0.714972 39.7177 0.65035C39.7988 0.585454 39.8798 0.520558 39.9633 0.453695C42.5635 -1.30217 47.9351 1.24471 50.4937 2.32027ZM44.5781 6.46871C44.5781 9.43871 44.5781 12.4087 44.5781 15.4687C45.5062 15.9328 46.4343 16.3968 47.3906 16.875C51.737 19.6645 54.1054 22.7724 56.5312 27.4218C59.5012 27.4218 62.4712 27.4218 65.5312 27.4218C65.2538 26.3121 64.9919 25.3463 64.538 24.3193C64.4831 24.1936 64.4282 24.0678 64.3716 23.9383C62.7386 20.2601 60.5757 17.1042 57.7968 14.2031C57.6971 14.0976 57.5974 13.9921 57.4947 13.8834C54.1466 10.426 49.4769 7.7547 44.8593 6.46871C44.7665 6.46871 44.6737 6.46871 44.5781 6.46871Z" fill="url(#paint1_linear_840_2242)"/>
<path d="M31.8691 0.307668C32.5744 0.844163 32.9636 1.39031 33.1875 2.25005C33.2285 2.75803 33.2273 3.26436 33.2261 3.77379C33.2268 3.92572 33.2275 4.07765 33.2283 4.23419C33.2302 4.73554 33.2301 5.23686 33.2298 5.73821C33.2303 6.08743 33.2309 6.43665 33.2316 6.78586C33.2326 7.51759 33.2326 8.2493 33.2318 8.98103C33.231 9.91762 33.2334 10.8542 33.2367 11.7907C33.2388 12.5119 33.2389 13.2331 33.2384 13.9543C33.2385 14.2996 33.2392 14.6448 33.2407 14.9901C33.2424 15.4734 33.2414 15.9566 33.2398 16.4399C33.2409 16.5818 33.242 16.7237 33.2431 16.8699C33.236 17.8253 33.1353 18.6542 32.5253 19.4311C31.8283 20.0159 31.1601 20.3553 30.3046 20.6543C28.333 21.3965 26.5918 22.3317 25.0312 23.7657C24.9624 23.8286 24.8935 23.8914 24.8226 23.9562C22.7831 25.8399 21.3959 28.1296 20.4609 30.7266C20.1167 31.6679 19.774 32.4194 18.8437 32.9063C18.0563 33.2437 17.3175 33.2282 16.4762 33.2262C16.3243 33.2269 16.1723 33.2276 16.0158 33.2284C15.5145 33.2303 15.0131 33.2302 14.5118 33.2298C14.1626 33.2304 13.8134 33.231 13.4641 33.2317C12.7324 33.2327 12.0007 33.2327 11.269 33.2319C10.3324 33.2311 9.39585 33.2335 8.45927 33.2368C7.73808 33.2388 7.0169 33.239 6.2957 33.2385C5.95045 33.2386 5.6052 33.2393 5.25995 33.2408C4.77663 33.2425 4.29339 33.2415 3.81008 33.2399C3.59723 33.2415 3.59723 33.2415 3.38007 33.2432C2.44357 33.2362 1.58908 33.1519 0.840408 32.5289C0.777687 32.4475 0.714966 32.3661 0.650344 32.2823C0.585448 32.2012 0.520552 32.1202 0.453689 32.0367C-0.20864 31.0559 -0.130008 30.0021 0.0658717 28.8686C1.17804 23.391 3.42278 18.1814 6.89058 13.7813C7.00043 13.6417 7.11028 13.5021 7.22346 13.3583C7.52902 12.9788 7.84005 12.6052 8.1562 12.2344C8.2472 12.1277 8.3382 12.0209 8.43196 11.9109C9.98198 10.1441 11.6426 8.46458 13.5383 7.07044C13.7876 6.88593 14.0331 6.69704 14.2783 6.50725C15.6321 5.47165 17.067 4.61172 18.5625 3.79693C18.6553 3.74603 18.7482 3.69514 18.8439 3.6427C21.6997 2.09685 28.6762 -1.5866 31.8691 0.307668ZM14.2031 14.2032C14.101 14.2994 13.999 14.3957 13.8938 14.4949C13.1314 15.2333 12.4647 16.0388 11.8125 16.875C11.7524 16.9517 11.6924 17.0284 11.6306 17.1073C9.64181 19.6676 6.4687 24.0453 6.4687 27.4219C9.4387 27.4219 12.4087 27.4219 15.4687 27.4219C15.9328 26.4938 16.3968 25.5657 16.875 24.6094C19.6158 20.3389 22.9151 17.7222 27.4218 15.4688C27.4218 12.4988 27.4218 9.5288 27.4218 6.4688C22.7752 6.4688 17.3888 11.1703 14.2031 14.2032Z" fill="url(#paint2_linear_840_2242)"/>
<path d="M55.5238 38.7738C55.6758 38.7731 55.8277 38.7724 55.9842 38.7716C56.4856 38.7697 56.9869 38.7698 57.4883 38.7702C57.8375 38.7696 58.1867 38.769 58.5359 38.7683C59.2676 38.7673 59.9994 38.7673 60.7311 38.7681C61.6677 38.7689 62.6042 38.7665 63.5408 38.7632C64.262 38.7612 64.9832 38.761 65.7043 38.7615C66.0496 38.7614 66.3949 38.7607 66.7401 38.7592C67.2234 38.7575 67.7067 38.7585 68.19 38.7601C68.3319 38.759 68.4738 38.7579 68.62 38.7568C69.5565 38.7638 70.411 38.8481 71.1596 39.4711C71.2224 39.5525 71.2851 39.6339 71.3497 39.7177C71.4471 39.8393 71.4471 39.8393 71.5464 39.9633C72.2098 40.9458 72.1312 42.0034 71.9319 43.1382C71.3183 46.1236 70.3782 49.0087 69.047 51.75C68.9912 51.8652 68.9354 51.9804 68.8779 52.0991C67.1782 55.5664 64.9749 58.678 62.297 61.4531C62.2173 61.5358 62.1376 61.6186 62.0555 61.7038C61.0195 62.7742 59.9643 63.7782 58.7813 64.6875C58.649 64.7915 58.649 64.7915 58.514 64.8976C58.2206 65.1281 57.9256 65.3563 57.63 65.5839C57.5381 65.656 57.4462 65.7281 57.3515 65.8024C56.4011 66.5234 55.489 66.9118 54.2813 66.7968C53.3996 66.508 52.7482 66.0651 52.1896 65.3203C51.9046 64.4337 51.8056 63.311 52.2423 62.455C52.8204 61.6352 53.669 61.0618 54.4747 60.4863C55.1399 60.0106 55.7451 59.4959 56.3451 58.9411C56.6296 58.6795 56.9204 58.4311 57.2169 58.1835C61.2529 54.6419 63.8594 49.594 65.5313 44.5781C62.5613 44.5781 59.5913 44.5781 56.5313 44.5781C56.3921 44.9957 56.3921 44.9957 56.2501 45.4218C55.5443 46.9958 54.679 48.454 53.5782 49.7812C53.5156 49.8577 53.453 49.9342 53.3885 50.0129C51.043 52.874 48.2398 55.0183 44.8595 56.5312C44.7667 56.5312 44.6738 56.5312 44.5782 56.5312C44.5795 56.6943 44.5807 56.8574 44.582 57.0255C44.5934 58.5648 44.6018 60.1041 44.6074 61.6434C44.6103 62.4348 44.6143 63.2261 44.6207 64.0174C44.6268 64.7815 44.6301 65.5456 44.6316 66.3097C44.6326 66.6008 44.6347 66.8919 44.6377 67.1829C44.6418 67.5916 44.6423 68.0001 44.6421 68.4088C44.6451 68.5881 44.6451 68.5881 44.6482 68.7711C44.6421 69.6663 44.4321 70.4126 43.8221 71.0899C43.1098 71.73 42.3427 71.9384 41.4054 71.9115C40.6334 71.794 39.9264 71.4739 39.4163 70.8739C39.0195 70.2541 38.7956 69.7161 38.7928 68.9736C38.792 68.8433 38.7912 68.713 38.7904 68.5787C38.7903 68.4361 38.7901 68.2934 38.7899 68.1464C38.7892 67.9959 38.7885 67.8454 38.7878 67.6903C38.7858 67.1913 38.7848 66.6922 38.784 66.1931C38.7832 65.8465 38.7824 65.4998 38.7816 65.1531C38.7801 64.4255 38.7793 63.6979 38.7788 62.9703C38.778 62.0389 38.7747 61.1075 38.7707 60.1761C38.768 59.4596 38.7673 58.7432 38.7671 58.0267C38.7667 57.6834 38.7655 57.3401 38.7637 56.9968C38.7613 56.5158 38.7616 56.0349 38.7625 55.5539C38.7612 55.4126 38.7599 55.2714 38.7585 55.1258C38.7642 54.1716 38.8655 53.3449 39.4748 52.5689C40.1718 51.9841 40.84 51.6447 41.6954 51.3457C43.6682 50.603 45.4057 49.6672 46.9688 48.2343C47.0972 48.1174 47.2255 48.0005 47.3578 47.88C49.3015 46.0259 50.6324 43.7876 51.5392 41.2734C51.8834 40.3321 52.226 39.5806 53.1563 39.0937C53.9437 38.7563 54.6825 38.7718 55.5238 38.7738Z" fill="url(#paint3_linear_840_2242)"/>
<path d="M41.7443 28.2584C43.8802 29.8981 45.1975 32.2044 45.5626 34.8749C45.7525 37.6829 45.0328 40.2742 43.1736 42.445C41.4601 44.2917 39.1547 45.4252 36.6296 45.5959C33.6733 45.6529 31.1517 44.6977 28.9848 42.6384C27.1518 40.7065 26.3492 38.1211 26.3992 35.4978C26.5167 32.8656 27.7139 30.544 29.6193 28.7402C33.1598 25.8093 37.9921 25.69 41.7443 28.2584ZM32.7657 33.8905C32.1772 34.908 32.0134 35.9221 32.2911 37.0645C32.6491 38.1097 33.2679 38.874 34.2269 39.4288C35.3047 39.9134 36.3056 39.9689 37.4239 39.5859C38.4305 39.1332 39.1334 38.4303 39.5861 37.4237C39.9691 36.3054 39.9136 35.3046 39.4289 34.2267C38.8742 33.2677 38.1099 32.6489 37.0647 32.2909C35.3501 31.874 33.8162 32.4867 32.7657 33.8905Z" fill="url(#paint4_linear_840_2242)"/>
</g>
<defs>
<linearGradient id="paint0_linear_840_2242" x1="-8.39897" y1="43.7568" x2="48.2427" y2="65.4012" gradientUnits="userSpaceOnUse">
<stop offset="0.00899994" stop-color="#8FEEFC"/>
<stop offset="0.529" stop-color="#4E8AEE"/>
<stop offset="1" stop-color="#0048FF"/>
</linearGradient>
<linearGradient id="paint1_linear_840_2242" x1="30.4284" y1="4.86153" x2="87.0947" y2="26.4785" gradientUnits="userSpaceOnUse">
<stop offset="0.00899994" stop-color="#8FEEFC"/>
<stop offset="0.529" stop-color="#4E8AEE"/>
<stop offset="1" stop-color="#0048FF"/>
</linearGradient>
<linearGradient id="paint2_linear_840_2242" x1="-8.40201" y1="4.79825" x2="48.2994" y2="26.382" gradientUnits="userSpaceOnUse">
<stop offset="0.00899994" stop-color="#8FEEFC"/>
<stop offset="0.529" stop-color="#4E8AEE"/>
<stop offset="1" stop-color="#0048FF"/>
</linearGradient>
<linearGradient id="paint3_linear_840_2242" x1="30.4298" y1="43.7304" x2="86.9962" y2="65.4617" gradientUnits="userSpaceOnUse">
<stop offset="0.00899994" stop-color="#8FEEFC"/>
<stop offset="0.529" stop-color="#4E8AEE"/>
<stop offset="1" stop-color="#0048FF"/>
</linearGradient>
<linearGradient id="paint4_linear_840_2242" x1="21.5982" y1="29.306" x2="54.2179" y2="41.7963" gradientUnits="userSpaceOnUse">
<stop offset="0.00899994" stop-color="#8FEEFC"/>
<stop offset="0.529" stop-color="#4E8AEE"/>
<stop offset="1" stop-color="#0048FF"/>
</linearGradient>
<clipPath id="clip0_840_2242">
<rect width="72" height="72" fill="white"/>
</clipPath>
</defs>
</svg>
