<svg width="23" height="22" viewBox="0 0 23 22" fill="none" xmlns="http://www.w3.org/2000/svg">
<path d="M20.4707 13.136L20.3717 12.141L20.3387 12.144L20.3067 12.15L20.4707 13.136ZM20.4707 13.136L20.5707 14.131L20.6037 14.128L20.6357 14.123L20.4707 13.136ZM16.4307 18.618L17.0637 17.844L17.0557 17.838L16.4307 18.618ZM16.4307 18.618L15.7977 19.392L15.8057 19.399L16.4307 18.618ZM7.23466 18.618L6.60166 17.845L6.58566 17.858L6.57066 17.871L7.23466 18.618ZM7.23466 18.618L7.86766 19.393L7.88366 19.38L7.89866 19.366L7.23466 18.618ZM3.19366 8.86402V7.86402H3.14366L3.09466 7.86902L3.19366 8.86402ZM3.19366 8.86402V9.86402H3.24366L3.29366 9.85902L3.19366 8.86402ZM14.9637 2.26102C14.9469 2.0687 14.9233 1.87694 14.8947 1.68602C14.8635 1.47595 14.7994 1.27211 14.7047 1.08202L12.9277 2.00002C12.9047 1.95502 12.9097 1.93902 12.9227 2.01802C12.9377 2.10702 12.9507 2.23102 12.9737 2.46102L14.9637 2.26102ZM15.0587 3.21102C15.1217 3.29302 15.1007 3.33002 15.0657 3.13502C15.0327 2.94902 15.0067 2.68802 14.9637 2.26102L12.9727 2.46002C13.0127 2.85402 13.0467 3.20802 13.0977 3.49002C13.1467 3.76002 13.2327 4.11502 13.4677 4.42302L15.0587 3.21102ZM15.0587 3.21102L13.4677 4.42302C13.6817 4.70387 13.9662 4.92305 14.2924 5.05829C14.6186 5.19354 14.9747 5.24002 15.3247 5.19302L15.0587 3.21102ZM15.7967 2.60602C15.5725 2.79543 15.3421 2.9772 15.1057 3.15102C14.9427 3.26402 14.9557 3.22402 15.0587 3.21102L15.3247 5.19302C15.7087 5.14102 16.0207 4.95102 16.2467 4.79302C16.4817 4.63102 16.7567 4.40502 17.0627 4.15402L15.7967 2.60602ZM16.8127 1.95602C16.6115 2.02329 16.4222 2.12184 16.2517 2.24802C16.1117 2.34802 15.9547 2.47702 15.7967 2.60602L17.0627 4.15402C17.2417 4.00802 17.3387 3.92902 17.4127 3.87702C17.4777 3.83002 17.4687 3.84602 17.4217 3.86102L16.8127 1.95602ZM18.2167 2.02602C17.7726 1.83357 17.2737 1.80869 16.8127 1.95602L17.4217 3.86102L18.2167 2.02602ZM19.1627 2.77402C19.0281 2.63551 18.889 2.50144 18.7457 2.37202C18.5883 2.22955 18.4094 2.11279 18.2157 2.02602L17.4217 3.86102C17.3757 3.84102 17.3687 3.82502 17.4287 3.87802C17.4967 3.93802 17.5857 4.02502 17.7487 4.18802L19.1627 2.77402ZM20.0567 3.66802L19.1627 2.77402L17.7487 4.18802L18.6427 5.08202L20.0567 3.66802ZM20.8047 4.61402C20.7179 4.42027 20.6011 4.24141 20.4587 4.08402C20.329 3.94126 20.1949 3.80252 20.0567 3.66802L18.6427 5.08302C18.8057 5.24602 18.8927 5.33502 18.9527 5.40302C19.0057 5.46302 18.9897 5.45602 18.9697 5.41002L20.8047 4.61402ZM20.8747 6.01802C21.022 5.55697 20.9971 5.05813 20.8047 4.61402L18.9697 5.41002L20.8747 6.01802ZM20.2247 7.03402C20.3491 6.88644 20.4685 6.73469 20.5827 6.57902C20.6887 6.43102 20.8027 6.24702 20.8747 6.01802L18.9697 5.41002C18.9847 5.36302 18.9997 5.35302 18.9537 5.41902C18.9017 5.49202 18.8237 5.58902 18.6767 5.76802L20.2247 7.03402ZM19.6197 7.77302C19.6067 7.87602 19.5667 7.88802 19.6797 7.72502C19.7867 7.57002 19.9527 7.36602 20.2247 7.03402L18.6767 5.76802C18.4267 6.07402 18.1997 6.34902 18.0367 6.58402C17.8797 6.81002 17.6897 7.12202 17.6377 7.50602L19.6197 7.77302ZM19.6197 7.77302L17.6377 7.50602C17.5907 7.85597 17.6371 8.21213 17.7724 8.5383C17.9076 8.86446 18.1268 9.14901 18.4077 9.36302L19.6197 7.77302ZM20.5697 7.86802C20.2773 7.84355 19.9858 7.80919 19.6957 7.76502C19.5007 7.73002 19.5377 7.71002 19.6197 7.77302L18.4077 9.36302C18.7157 9.59802 19.0697 9.68402 19.3417 9.73302C19.6227 9.78302 19.9767 9.81802 20.3707 9.85802L20.5697 7.86802ZM21.7487 8.12602C21.5586 8.03133 21.3547 7.96721 21.1447 7.93602C20.9537 7.90742 20.762 7.88474 20.5697 7.86802L20.3707 9.85802C20.5187 9.87107 20.6664 9.88774 20.8137 9.90802C20.8937 9.92202 20.8767 9.92702 20.8317 9.90402L21.7487 8.12602ZM22.6917 9.16902C22.5139 8.71868 22.1789 8.34809 21.7487 8.12602L20.8327 9.90602L22.6917 9.16902ZM22.8317 10.367C22.8317 10.163 22.8317 9.96002 22.8207 9.78802C22.8103 9.5758 22.7664 9.36655 22.6907 9.16802L20.8327 9.90602C20.8147 9.85902 20.8207 9.84302 20.8267 9.92302C20.8327 10.013 20.8327 10.138 20.8327 10.369L22.8317 10.367ZM22.8317 11.631V10.367H20.8317V11.631H22.8317ZM22.6917 12.829C22.7797 12.606 22.8087 12.392 22.8207 12.209C22.8317 12.038 22.8317 11.835 22.8317 11.631H20.8317C20.8317 11.862 20.8317 11.987 20.8257 12.077C20.8197 12.157 20.8137 12.141 20.8317 12.094L22.6917 12.829ZM21.7487 13.872C22.1789 13.65 22.5139 13.2794 22.6917 12.829L20.8327 12.095L21.7487 13.872ZM20.5697 14.13C20.7737 14.11 20.9747 14.09 21.1447 14.062C21.3247 14.032 21.5347 13.982 21.7487 13.872L20.8327 12.095C20.8767 12.072 20.8937 12.077 20.8147 12.09C20.6675 12.1113 20.5198 12.1283 20.3717 12.141L20.5697 14.13ZM19.6207 14.225C19.5377 14.288 19.5007 14.268 19.6957 14.233C19.8817 14.2 20.1427 14.173 20.5697 14.13L20.3707 12.14C19.9777 12.18 19.6227 12.214 19.3417 12.265C19.0707 12.314 18.7157 12.4 18.4077 12.635L19.6207 14.225ZM19.6207 14.225L18.4077 12.635C18.1268 12.849 17.9076 13.1336 17.7724 13.4597C17.6371 13.7859 17.5907 14.1421 17.6377 14.492L19.6207 14.225ZM20.2247 14.963C20.0353 14.7392 19.8535 14.5091 19.6797 14.273C19.5667 14.11 19.6077 14.122 19.6207 14.225L17.6377 14.492C17.6897 14.876 17.8797 15.188 18.0377 15.414C18.2007 15.649 18.4267 15.924 18.6767 16.23L20.2247 14.963ZM20.8747 15.979C20.8073 15.7782 20.7088 15.5892 20.5827 15.419C20.4827 15.278 20.3537 15.122 20.2247 14.963L18.6767 16.23C18.8227 16.409 18.9017 16.505 18.9537 16.579C19.0007 16.644 18.9857 16.636 18.9697 16.589L20.8747 15.979ZM20.8047 17.384C20.9974 16.9396 21.0222 16.4404 20.8747 15.979L18.9697 16.589L20.8047 17.384ZM20.0567 18.33C20.2017 18.185 20.3447 18.043 20.4587 17.913C20.5787 17.775 20.7087 17.604 20.8047 17.383L18.9697 16.588C18.9897 16.542 19.0057 16.536 18.9527 16.596C18.8927 16.664 18.8057 16.752 18.6427 16.916L20.0567 18.33ZM19.1627 19.223L20.0567 18.33L18.6427 16.916L17.7487 17.809L19.1627 19.223ZM18.2167 19.972C18.4105 19.8849 18.5893 19.7678 18.7467 19.625C18.8757 19.512 19.0187 19.368 19.1627 19.223L17.7487 17.809C17.6449 17.9153 17.5382 18.0187 17.4287 18.119C17.3687 18.173 17.3757 18.157 17.4217 18.137L18.2167 19.972ZM16.8127 20.042C17.2737 20.1893 17.7726 20.1645 18.2167 19.972L17.4217 18.137L16.8127 20.042ZM15.7967 19.392C15.9547 19.521 16.1107 19.65 16.2517 19.75C16.3997 19.855 16.5837 19.969 16.8127 20.042L17.4217 18.137C17.4687 18.152 17.4777 18.167 17.4117 18.121C17.2927 18.0321 17.1763 17.9397 17.0627 17.844L15.7967 19.392ZM15.0587 18.788C14.9557 18.773 14.9427 18.733 15.1057 18.846C15.2607 18.954 15.4637 19.119 15.7957 19.391L17.0627 17.844C16.7567 17.593 16.4817 17.367 16.2467 17.204C16.0207 17.046 15.7087 16.857 15.3247 16.805L15.0587 18.788ZM15.0587 18.788L15.3247 16.805C14.9747 16.758 14.6186 16.8045 14.2924 16.9397C13.9662 17.075 13.6817 17.2942 13.4677 17.575L15.0587 18.788ZM14.9627 19.737C15.0057 19.31 15.0327 19.048 15.0657 18.863C15.1007 18.668 15.1207 18.704 15.0577 18.787L13.4677 17.574C13.2327 17.882 13.1467 18.237 13.0977 18.508C13.0477 18.79 13.0137 19.144 12.9737 19.538L14.9627 19.737ZM14.7037 20.916C14.8137 20.702 14.8637 20.492 14.8937 20.312C14.9237 20.142 14.9417 19.941 14.9627 19.737L12.9737 19.538C12.9603 19.6865 12.943 19.8335 12.9217 19.981C12.9087 20.061 12.9037 20.044 12.9267 19.999L14.7037 20.916ZM13.6627 21.859C14.1123 21.6809 14.4821 21.3459 14.7037 20.916L12.9277 20L13.6627 21.859ZM12.4627 21.999C12.6677 21.999 12.8707 21.999 13.0427 21.988C13.2247 21.976 13.4387 21.949 13.6627 21.859L12.9277 20C12.9747 19.982 12.9907 19.988 12.9107 19.994C12.7621 20.0003 12.6134 20.0023 12.4647 20L12.4627 21.999ZM11.1997 21.999H12.4627L12.4637 19.999H11.1997V21.999ZM10.0017 21.859C10.2247 21.947 10.4387 21.976 10.6217 21.988C10.7927 21.999 10.9957 21.999 11.1997 21.999V19.999C10.9687 19.999 10.8437 19.999 10.7537 19.993C10.6737 19.987 10.6897 19.981 10.7367 19.999L10.0017 21.859ZM8.95866 20.916C9.18073 21.3462 9.55132 21.6813 10.0017 21.859L10.7367 19.999L8.95866 20.916ZM8.70066 19.737C8.72066 19.941 8.74066 20.142 8.76866 20.312C8.79866 20.492 8.84866 20.702 8.95866 20.916L10.7387 20C10.7617 20.044 10.7567 20.061 10.7437 19.982C10.7224 19.8349 10.7054 19.6872 10.6927 19.539L8.70066 19.737ZM8.60566 18.787C8.54266 18.705 8.56266 18.667 8.59766 18.863C8.63066 19.048 8.65766 19.31 8.70066 19.737L10.6907 19.538C10.6507 19.144 10.6167 18.79 10.5657 18.508C10.5167 18.238 10.4307 17.883 10.1957 17.575L8.60566 18.787ZM8.60566 18.787L10.1957 17.575C9.98165 17.2942 9.6971 17.075 9.37094 16.9397C9.04477 16.8045 8.68861 16.758 8.33866 16.805L8.60566 18.787ZM7.86666 19.392C8.19966 19.12 8.40266 18.954 8.55766 18.847C8.72066 18.734 8.70866 18.774 8.60566 18.787L8.33866 16.805C7.95466 16.857 7.64266 17.047 7.41666 17.205C7.18166 17.367 6.90666 17.593 6.60066 17.844L7.86666 19.392ZM6.85066 20.042C7.05183 19.9747 7.24115 19.8762 7.41166 19.75C7.55166 19.65 7.70866 19.521 7.86666 19.392L6.60166 17.845C6.48767 17.9407 6.37196 18.0331 6.25266 18.122C6.18766 18.169 6.19666 18.154 6.24366 18.138L6.85066 20.042ZM5.44666 19.972C5.89077 20.1645 6.38961 20.1893 6.85066 20.042L6.24166 18.137L5.44666 19.972ZM4.49966 19.224C4.64466 19.369 4.78766 19.512 4.91766 19.626C5.05466 19.746 5.22566 19.877 5.44766 19.973L6.24166 18.137C6.28766 18.157 6.29466 18.173 6.23466 18.12C6.12503 18.0198 6.01831 17.9164 5.91466 17.81L4.49966 19.224ZM3.60666 18.33L4.50066 19.224L5.91466 17.81L5.02066 16.916L3.60666 18.33ZM2.85866 17.384C2.95366 17.604 3.08466 17.776 3.20466 17.914C3.31866 18.043 3.46166 18.186 3.60666 18.33L5.02066 16.916C4.91428 16.8124 4.8109 16.7056 4.71066 16.596C4.65766 16.536 4.67366 16.543 4.69366 16.589L2.85866 17.384ZM2.78866 15.98C2.64134 16.4411 2.66621 16.9399 2.85866 17.384L4.69366 16.589L2.78866 15.98ZM3.43866 14.964C3.31422 15.1116 3.19482 15.2634 3.08066 15.419C2.95448 15.5895 2.85594 15.7788 2.78866 15.98L4.69366 16.589C4.67766 16.636 4.66366 16.645 4.70966 16.579C4.76166 16.506 4.83966 16.409 4.98666 16.23L3.43866 14.964ZM4.04266 14.225C4.05666 14.122 4.09666 14.11 3.98366 14.273C3.87666 14.428 3.71066 14.632 3.43866 14.964L4.98666 16.23C5.23666 15.924 5.46366 15.649 5.62666 15.414C5.78366 15.188 5.97366 14.876 6.02566 14.492L4.04266 14.225ZM4.04266 14.225L6.02566 14.492C6.07266 14.1421 6.02618 13.7859 5.89094 13.4597C5.75569 13.1336 5.53651 12.849 5.25566 12.635L4.04266 14.225ZM3.09266 14.13C3.52066 14.173 3.78266 14.2 3.96766 14.233C4.16266 14.268 4.12566 14.288 4.04266 14.225L5.25566 12.635C4.94766 12.4 4.59366 12.314 4.32166 12.265C4.04066 12.215 3.68666 12.18 3.29166 12.14L3.09266 14.13ZM1.91466 13.872C2.12866 13.982 2.33866 14.032 2.51866 14.062C2.68866 14.09 2.88966 14.111 3.09366 14.131L3.29166 12.14C3.14354 12.1276 2.99681 12.111 2.84966 12.09C2.76966 12.076 2.78666 12.071 2.83166 12.094L1.91466 13.872ZM0.972662 12.83C1.15039 13.2804 1.48545 13.651 1.91566 13.873L2.83266 12.095L0.972662 12.83ZM0.832662 11.632C0.832662 11.836 0.832662 12.039 0.843662 12.211C0.855662 12.393 0.883662 12.607 0.973662 12.831L2.83266 12.094C2.85066 12.141 2.84466 12.157 2.83966 12.077C2.83307 11.9288 2.83073 11.7804 2.83266 11.632H0.832662ZM0.832662 10.368V11.632H2.83266V10.368H0.832662ZM0.972662 9.16902C0.897333 9.36762 0.853798 9.57686 0.843662 9.78902C0.831662 9.96102 0.832662 10.164 0.832662 10.369H2.83266C2.83266 10.137 2.83266 10.012 2.83966 9.92202C2.84466 9.84202 2.85066 9.85802 2.83266 9.90502L0.972662 9.16902ZM1.91566 8.12802C1.48581 8.3496 1.1508 8.71942 0.972662 9.16902L2.83266 9.90502L1.91566 8.12802ZM3.09466 7.86802C2.89066 7.88902 2.68966 7.90802 2.51966 7.93802C2.33966 7.96802 2.12966 8.01802 1.91566 8.12802L2.83266 9.90502C2.78766 9.92802 2.77166 9.92302 2.85066 9.91002C2.9978 9.88872 3.14553 9.87171 3.29366 9.85902L3.09466 7.86802ZM4.04466 7.77402C4.12766 7.71102 4.16466 7.73102 3.96866 7.76602C3.78366 7.79902 3.52166 7.82602 3.09466 7.86902L3.29366 9.85902C3.68666 9.81902 4.04166 9.78502 4.32366 9.73402C4.59466 9.68502 4.94966 9.59902 5.25766 9.36402L4.04466 7.77402ZM4.04466 7.77402L5.25766 9.36402C5.53833 9.1499 5.75732 8.8653 5.89238 8.53914C6.02745 8.21298 6.07378 7.85688 6.02666 7.50702L4.04466 7.77402ZM3.43966 7.03502C3.71166 7.36702 3.87766 7.57102 3.98566 7.72602C4.09866 7.88902 4.05866 7.87702 4.04466 7.77402L6.02666 7.50702C5.97466 7.12302 5.78566 6.81202 5.62766 6.58502C5.46466 6.35002 5.23766 6.07502 4.98766 5.76902L3.43966 7.03502ZM2.78966 6.01802C2.86266 6.24802 2.97566 6.43102 3.08166 6.58002C3.18166 6.72002 3.31066 6.87702 3.43966 7.03502L4.98766 5.76902C4.89198 5.65504 4.79961 5.53933 4.71066 5.42002C4.66366 5.35502 4.67966 5.36302 4.69466 5.41002L2.78966 6.01802ZM2.85966 4.61502C2.66746 5.05884 2.64259 5.55727 2.78966 6.01802L4.69466 5.41002L2.85966 4.61502ZM3.60766 3.66802C3.46266 3.81302 3.31966 3.95502 3.20566 4.08502C3.0632 4.24241 2.94643 4.42127 2.85966 4.61502L4.69466 5.41002C4.67466 5.45602 4.65866 5.46302 4.71166 5.40202C4.77166 5.33402 4.85866 5.24602 5.02166 5.08202L3.60766 3.66802ZM4.50166 2.77502L3.60766 3.66802L5.02166 5.08202L5.91666 4.18902L4.50166 2.77502ZM5.44766 2.02602C5.25384 2.11309 5.07498 2.2302 4.91766 2.37302C4.7749 2.50271 4.63617 2.63678 4.50166 2.77502L5.91666 4.18902C6.07966 4.02502 6.16766 3.93802 6.23566 3.87902C6.29566 3.82502 6.28866 3.84102 6.24266 3.86102L5.44766 2.02602ZM6.85166 1.95602C6.39061 1.80869 5.89177 1.83357 5.44766 2.02602L6.24266 3.86102L6.85166 1.95602ZM7.86666 2.60602C7.70866 2.47702 7.55366 2.34902 7.41266 2.24902C7.24222 2.12248 7.0529 2.0236 6.85166 1.95602L6.24266 3.86102C6.19566 3.84602 6.18666 3.83102 6.25266 3.87702C6.32566 3.93002 6.42266 4.00802 6.60166 4.15502L7.86666 2.60602ZM8.60666 3.21102C8.70966 3.22502 8.72166 3.26502 8.55866 3.15202C8.32259 2.97817 8.09246 2.7964 7.86866 2.60702L6.60166 4.15502C6.90766 4.40502 7.18166 4.63102 7.41666 4.79502C7.64266 4.95202 7.95466 5.14102 8.33866 5.19302L8.60666 3.21102ZM8.60666 3.21102L8.33966 5.19302C8.68961 5.24002 9.04577 5.19354 9.37194 5.05829C9.6981 4.92305 9.98265 4.70387 10.1967 4.42302L8.60666 3.21102ZM8.70166 2.26102C8.65866 2.68902 8.63166 2.95102 8.59866 3.13602C8.56366 3.33102 8.54366 3.29402 8.60666 3.21102L10.1967 4.42302C10.4317 4.11502 10.5177 3.76102 10.5667 3.49002C10.6167 3.20902 10.6527 2.85402 10.6917 2.46002L8.70166 2.26102ZM8.95966 1.08302C8.86497 1.27311 8.80085 1.47695 8.76966 1.68702C8.74166 1.85702 8.72166 2.05802 8.70166 2.26202L10.6917 2.46002C10.7047 2.31197 10.7214 2.16526 10.7417 2.01802C10.7557 1.93802 10.7607 1.95602 10.7377 2.00002L8.95966 1.08302ZM10.0027 0.14002C9.55232 0.317751 9.18173 0.652807 8.95966 1.08302L10.7377 2.00002L10.0027 0.14002ZM11.2007 2.04061e-05C10.9967 2.04061e-05 10.7937 2.04435e-05 10.6217 0.0110204C10.4095 0.0211561 10.2003 0.0646909 10.0017 0.14002L10.7387 2.00002C10.6917 2.01802 10.6757 2.01202 10.7557 2.00702C10.8457 2.00102 10.9707 2.00002 11.2017 2.00002L11.2007 2.04061e-05ZM12.4647 2.04061e-05H11.2007V2.00002H12.4647V2.04061e-05ZM13.6627 0.14002C13.4641 0.0646909 13.2548 0.0211561 13.0427 0.0110204C12.8727 -0.000979557 12.6697 2.04061e-05 12.4657 2.04061e-05V2.00002C12.6967 2.00002 12.8217 2.00002 12.9117 2.00702C12.9917 2.01202 12.9747 2.01802 12.9277 2.00002L13.6627 0.14002ZM14.7057 1.08302C14.4836 0.652807 14.113 0.317751 13.6627 0.14002L12.9277 2.00002L14.7057 1.08302ZM14.8327 11C14.8327 11.7957 14.5166 12.5587 13.954 13.1213C13.3914 13.6839 12.6283 14 11.8327 14V16C13.1587 16 14.4305 15.4732 15.3682 14.5356C16.3059 13.5979 16.8327 12.3261 16.8327 11H14.8327ZM11.8327 8.00002C12.6283 8.00002 13.3914 8.31609 13.954 8.8787C14.5166 9.44131 14.8327 10.2044 14.8327 11H16.8327C16.8327 9.67394 16.3059 8.40217 15.3682 7.46449C14.4305 6.5268 13.1587 6.00002 11.8327 6.00002V8.00002ZM8.83266 11C8.83266 10.2044 9.14873 9.44131 9.71134 8.8787C10.274 8.31609 11.037 8.00002 11.8327 8.00002V6.00002C10.5066 6.00002 9.23481 6.5268 8.29713 7.46449C7.35945 8.40217 6.83266 9.67394 6.83266 11H8.83266ZM11.8327 14C11.037 14 10.274 13.6839 9.71134 13.1213C9.14873 12.5587 8.83266 11.7957 8.83266 11H6.83266C6.83266 12.3261 7.35945 13.5979 8.29713 14.5356C9.23481 15.4732 10.5066 16 11.8327 16V14Z" fill="white"/>
</svg>
