<svg width="72" height="72" viewBox="0 0 72 72" fill="none" xmlns="http://www.w3.org/2000/svg">
<g clip-path="url(#clip0_399_908)">
<path d="M54.5625 1.54698C54.9129 1.81546 55.2267 2.08483 55.5469 2.39073C55.5469 2.48354 55.5469 2.57636 55.5469 2.67198C55.6831 2.64397 55.6831 2.64397 55.8221 2.6154C59.0659 2.00747 62.6313 2.02219 65.5312 3.79698C67.7651 5.36137 69.0047 7.40125 69.5748 10.0564C70.8539 17.9011 66.2732 26.3715 62.0156 32.6251C61.9375 32.7405 61.8595 32.8559 61.779 32.9748C60.3024 35.1557 60.3024 35.1557 59.9476 35.592C59.8875 35.6803 59.8275 35.7685 59.7656 35.8595C59.9041 36.462 60.2794 36.9085 60.6445 37.3976C61.2993 38.2916 61.9041 39.2138 62.499 40.1485C62.5838 40.2812 62.6686 40.4139 62.756 40.5506C63.5702 41.8366 64.0478 42.7355 63.8437 44.297C63.5084 45.1732 62.9022 45.7732 62.0508 46.1603C61.122 46.3746 60.32 46.3842 59.479 45.8945C58.6768 45.3384 58.166 44.4523 57.6738 43.629C57.1012 42.6907 56.4929 41.7984 55.8281 40.922C55.7547 41.0141 55.6813 41.1062 55.6056 41.201C54.8907 42.0875 54.1472 42.9339 53.3732 43.7685C53.093 44.0725 52.8192 44.379 52.5498 44.6925C51.1141 46.3366 49.5822 47.8856 48.041 49.4298C47.955 49.5161 47.8691 49.6025 47.7805 49.6914C46.1163 51.3612 46.1163 51.3612 45.2384 52.1087C44.8515 52.4396 44.4835 52.7905 44.1123 53.1388C43.42 53.7841 42.7102 54.3921 41.9678 54.9795C41.5964 55.2896 41.2592 55.6224 40.9219 55.9689C42.5241 57.0232 44.1457 58.0379 45.7988 59.0106C46.0871 59.1808 46.3737 59.3535 46.66 59.5268C49.925 61.4686 53.6368 63.0016 57.375 63.7032C57.4725 63.7215 57.57 63.7398 57.6705 63.7587C59.2802 64.0071 61.1587 64.0083 62.5781 63.1144C63.4671 62.3876 63.6987 61.2776 63.8437 60.1876C63.8667 59.4719 63.8375 58.7577 63.808 58.0425C63.7882 57.1264 63.8608 56.4441 64.4062 55.6876C64.6924 55.3981 64.6924 55.3981 64.9775 55.2042C65.072 55.1377 65.1664 55.0712 65.2637 55.0026C65.9259 54.6096 66.6134 54.6408 67.3594 54.7032C68.3042 54.9975 68.8816 55.4904 69.3633 56.3468C69.6693 57.0107 69.7274 57.6348 69.75 58.3595C69.7556 58.521 69.7612 58.6825 69.767 58.8489C69.8214 61.9365 69.154 64.7341 67.0045 67.0238C64.8012 69.1473 61.9497 69.8071 58.9702 69.7803C54.8177 69.6253 50.8201 68.1434 47.1094 66.3751C46.9627 66.3053 46.9627 66.3053 46.813 66.234C43.2135 64.5054 39.5108 62.4818 36.4093 59.9476C36.3207 59.8876 36.232 59.8276 36.1406 59.7657C35.5984 59.8978 35.2078 60.1947 34.7695 60.5304C34.0776 61.0451 33.3676 61.5223 32.6426 61.9894C32.5406 62.0552 32.4386 62.1209 32.3335 62.1887C32.1868 62.2828 32.1868 62.2828 32.0372 62.3788C31.9447 62.4392 31.8522 62.4996 31.7569 62.5618C31.5 62.7189 31.5 62.7189 31.082 62.9018C30.7375 63.1369 30.7375 63.1369 30.7172 63.6714C30.7149 63.8871 30.7152 64.1028 30.7178 64.3185C30.6659 66.5823 29.8799 68.3355 28.3332 69.9858C26.5491 71.6575 24.4777 72.0726 22.1281 72.0386C20.0918 71.9666 18.4743 70.973 17.0156 69.6095C16.9692 69.5167 16.9228 69.4239 16.875 69.3282C16.7881 69.341 16.7011 69.3538 16.6116 69.367C13.0283 69.8857 9.13867 70.1955 6.04688 67.922C3.80056 66.1641 2.79889 63.9614 2.29395 61.2071C1.82269 56.304 3.5533 51.4677 5.625 47.1095C5.66933 47.0154 5.71365 46.9214 5.75931 46.8245C6.07393 46.1611 6.40704 45.5086 6.75 44.8595C6.81456 44.737 6.87912 44.6144 6.94563 44.4882C8.14077 42.2412 9.4899 40.1247 10.9166 38.0205C10.9711 37.9397 11.0257 37.8588 11.0819 37.7755C11.3675 37.3549 11.6665 36.9523 11.9833 36.5549C12.278 36.1689 12.278 36.1689 12.1789 35.7831C11.9009 35.3577 11.6048 34.9515 11.2939 34.5499C9.48936 32.1469 7.9983 29.5193 6.60938 26.8595C6.55636 26.7581 6.50333 26.6567 6.4487 26.5523C6.11526 25.9103 5.79619 25.2622 5.48438 24.6095C5.43423 24.5057 5.38409 24.4018 5.33242 24.2949C3.05923 19.5553 1.13733 13.659 2.84821 8.43541C3.63705 6.22445 5.09999 4.48387 7.20099 3.41411C7.83545 3.12394 8.47476 2.87988 9.14063 2.67198C9.23616 2.64171 9.33169 2.61144 9.43012 2.58025C15.9803 0.830964 23.5515 4.61931 29.0825 7.80589C30.5774 8.68616 32.0328 9.6311 33.4775 10.5909C33.5632 10.6477 33.6489 10.7045 33.7371 10.763C34.1239 11.0215 34.4998 11.2853 34.8712 11.566C35.0558 11.7055 35.0558 11.7055 35.2441 11.8478C35.3991 11.9707 35.3991 11.9707 35.5573 12.0961C35.8553 12.269 35.8553 12.269 36.1824 12.1653C36.6954 11.8791 37.1612 11.5441 37.6348 11.1974C38.5463 10.5421 39.4725 9.91728 40.4209 9.31651C40.5944 9.20574 40.5944 9.20574 40.7714 9.09273C40.8789 9.02519 40.9864 8.95764 41.0971 8.88805C41.1924 8.82809 41.2876 8.76813 41.3857 8.70636C41.625 8.57823 41.625 8.57823 41.9062 8.57823C41.8997 8.43702 41.8932 8.29581 41.8865 8.15031C41.8076 5.70315 42.5473 3.81163 44.2288 2.01445C47.09 -0.662372 51.4712 -0.728484 54.5625 1.54698ZM48.3745 6.12663C47.8698 6.63131 47.6058 7.02839 47.5752 7.75206C47.6342 8.5364 47.9354 9.01863 48.5244 9.53624C49.0835 9.87892 49.5601 9.9071 50.2031 9.84386C50.807 9.58679 51.2284 9.28092 51.6094 8.74522C51.8482 7.98389 51.8829 7.43789 51.5215 6.71495C51.0782 6.20166 50.6413 5.87254 50.001 5.64268C49.3597 5.6114 48.8869 5.72608 48.3745 6.12663ZM9 9.14073C7.97466 10.4212 7.88006 12.0644 8.04467 13.637C8.84109 20.0911 12.4497 25.9504 16.0313 31.2189C17.0297 30.2328 17.958 29.1822 18.8795 28.1246C20.5345 26.2326 22.2635 24.4117 24.0381 22.6319C24.2228 22.4463 24.2228 22.4463 24.4112 22.2569C25.0291 21.6405 25.6556 21.0447 26.3177 20.476C26.7351 20.1139 27.1342 19.7328 27.5361 19.3536C28.2504 18.6847 28.98 18.0514 29.7438 17.4393C30.2484 17.0314 30.7345 16.6035 31.2188 16.172C30.6836 15.7307 30.1263 15.3335 29.5488 14.9503C29.4565 14.889 29.3642 14.8278 29.2691 14.7646C28.2966 14.1241 27.3047 13.5207 26.2969 12.9376C26.2007 12.8818 26.1045 12.826 26.0054 12.7685C17.6886 7.94663 17.6886 7.94663 9 9.14073ZM57.6562 8.15636C57.4516 8.74875 57.2854 9.34266 57.1289 9.94932C56.5639 11.9195 55.3316 13.506 53.5655 14.5592C51.6374 15.5323 49.4649 15.7877 47.3802 15.1953C46.5495 14.8959 45.6696 14.5378 44.9956 13.9571C44.7279 13.7476 44.7279 13.7476 44.3984 13.811C43.9483 13.9415 43.6297 14.1377 43.2394 14.3971C43.0958 14.4919 42.9521 14.5866 42.8041 14.6842C42.6557 14.7836 42.5074 14.883 42.3545 14.9855C42.2034 15.0854 42.0523 15.1854 41.8966 15.2884C41.5242 15.5351 41.1524 15.7827 40.7812 16.0314C41.2756 16.532 41.7819 17.0162 42.3018 17.4903C42.4131 17.5921 42.4131 17.5921 42.5266 17.696C43.0192 18.1452 43.5174 18.5873 44.0206 19.0246C44.5879 19.5197 45.1465 20.0242 45.7031 20.5314C45.7761 20.5978 45.849 20.6642 45.9242 20.7326C47.097 21.8037 48.2347 22.908 49.3594 24.0294C49.4837 24.1531 49.608 24.2768 49.7361 24.4042C50.355 25.0245 50.9535 25.6534 51.5244 26.3181C51.8864 26.7354 52.2675 27.1345 52.6465 27.5362C53.3154 28.2505 53.9487 28.9801 54.5608 29.7439C54.9687 30.2485 55.3966 30.7346 55.8281 31.2189C56.2182 30.8481 56.5277 30.4819 56.8169 30.0285C56.8952 29.906 56.9736 29.7834 57.0543 29.6572C57.1369 29.5258 57.2195 29.3943 57.3047 29.2589C57.3915 29.1213 57.4783 28.9837 57.5677 28.8419C62.853 20.4808 62.853 20.4808 63.8174 10.9425C63.5325 9.92903 63.1979 9.16176 62.2793 8.59581C60.8068 7.8669 59.2409 7.9778 57.6562 8.15636ZM35.0772 20.3819C34.5866 20.8423 34.0912 21.2806 33.5654 21.7003C32.8052 22.3156 32.0905 22.9715 31.3764 23.6388C31.0013 23.9893 30.6192 24.3311 30.2344 24.671C29.4262 25.3946 28.6666 26.1657 27.9045 26.9371C27.3899 27.4575 26.8702 27.9727 26.3507 28.4882C26.1042 28.7334 25.8578 28.9786 25.6113 29.2237C25.4272 29.4061 25.4272 29.4061 25.2394 29.5921C24.5301 30.2987 23.8542 31.0211 23.2031 31.7814C22.9986 32.0074 22.7936 32.2331 22.5879 32.4581C21.5647 33.5927 20.6177 34.7887 19.6875 36.0001C20.8138 37.5644 22.1121 38.9923 23.4201 40.4051C23.7113 40.7222 23.9951 41.0435 24.2754 41.3702C24.7282 41.8935 25.2167 42.3753 25.7091 42.8611C25.9822 43.1381 26.2379 43.4211 26.4902 43.7169C27.3789 44.7499 28.3601 45.6995 29.3961 46.5832C29.7121 46.864 30.0078 47.1601 30.3047 47.461C30.7761 47.9381 31.2602 48.3879 31.7692 48.8244C32.0977 49.1087 32.4182 49.4008 32.7393 49.6935C33.4766 50.3592 34.2435 50.9848 35.0156 51.6095C35.2978 51.8428 35.5787 52.0775 35.8594 52.3126C36.3982 52.0831 36.8102 51.7254 37.248 51.3458C37.3278 51.2773 37.4076 51.2089 37.4898 51.1383C37.6586 50.9935 37.8272 50.8483 37.9957 50.703C38.2404 50.4927 38.4866 50.2842 38.7334 50.0763C39.8697 49.1164 40.9637 48.1176 42.0445 47.0959C42.3467 46.8107 42.6499 46.5266 42.9532 46.2427C43.1638 46.0453 43.3744 45.8479 43.585 45.6505C43.6814 45.5603 43.7778 45.47 43.8771 45.3771C44.7241 44.581 45.5696 43.7824 46.3271 42.8995C46.6884 42.479 47.0662 42.0848 47.4609 41.6954C48.0303 41.1318 48.5573 40.5458 49.0781 39.9376C49.219 39.7758 49.36 39.6141 49.5011 39.4526C51.0548 37.8261 51.0548 37.8261 52.3125 36.0001C51.4414 34.8611 50.5473 33.7652 49.5676 32.7179C49.2836 32.4134 49.0072 32.1054 48.7354 31.7901C47.6503 30.5419 46.5174 29.3418 45.334 28.1866C45 27.8439 45 27.8439 44.7045 27.4742C44.4704 27.1818 44.2511 26.963 43.9629 26.7276C43.3877 26.2375 42.8589 25.709 42.3281 25.172C41.7317 24.5699 41.1345 23.9805 40.4874 23.4323C40.1656 23.1579 39.8544 22.873 39.542 22.588C38.9192 22.0256 38.2774 21.4915 37.6238 20.9653C37.3106 20.7089 37.0111 20.4434 36.7119 20.171C35.9974 19.6023 35.6716 19.8091 35.0772 20.3819ZM16.0313 40.7814C12.2932 45.8816 7.07171 54.0512 8.08155 60.7666C8.30047 61.8117 8.64702 62.6852 9.53669 63.3242C11.2429 64.2686 13.2106 64.0622 15.0469 63.7032C15.0777 63.5604 15.1085 63.4175 15.1403 63.2704C15.6805 60.8767 16.6216 58.9958 18.7295 57.5948C20.5961 56.5292 22.6772 56.2331 24.7764 56.6896C25.5325 56.9031 26.2113 57.2301 26.9028 57.5998C27.0277 57.6649 27.1526 57.7299 27.2813 57.797C27.3891 57.8564 27.4969 57.9158 27.608 57.9771C27.9907 58.1216 27.9907 58.1216 28.3611 57.9165C28.4929 57.8267 28.6247 57.7368 28.7606 57.6443C28.9042 57.5482 29.0479 57.4521 29.1959 57.3531C29.3443 57.2502 29.4926 57.1472 29.6455 57.0411C29.8721 56.8883 29.8721 56.8883 30.1034 56.7324C30.4768 56.4801 30.8484 56.2256 31.2188 55.9689C30.7704 55.515 30.3142 55.0759 29.8389 54.6505C29.7161 54.5406 29.5934 54.4308 29.467 54.3176C29.1614 54.0463 28.8548 53.7765 28.5469 53.5079C26.633 51.8386 24.7763 50.1135 22.9839 48.3148C22.7263 48.0564 22.4679 47.7988 22.2094 47.5412C21.4602 46.7925 20.7184 46.045 20.0314 45.2379C19.7008 44.8512 19.35 44.4834 19.002 44.1124C18.2558 43.3109 17.5587 42.4808 16.875 41.6251C16.6444 41.3398 16.4119 41.0589 16.1719 40.7814C16.1255 40.7814 16.0791 40.7814 16.0313 40.7814ZM21.2344 62.8595C20.8457 63.4061 20.7347 63.8946 20.7636 64.5536C20.882 65.2188 21.2761 65.5941 21.7881 65.9972C22.3974 66.3329 22.7163 66.4088 23.4053 66.296C23.9959 66.0577 24.3667 65.7556 24.75 65.2501C24.9407 64.6781 24.9653 64.1607 24.8906 63.5626C24.5175 62.8429 24.1128 62.4127 23.3438 62.1564C22.4531 62.0516 21.9001 62.2913 21.2344 62.8595Z" fill="url(#paint0_linear_399_908)"/>
<path d="M41.0565 29.7185C42.6289 30.9502 43.6395 32.9358 43.942 34.8848C44.1859 37.2388 43.5891 39.3888 42.1095 41.242C40.6945 42.8175 38.7975 43.8258 36.6768 43.9804C34.356 44.1036 32.2844 43.4308 30.5156 41.9062C28.9578 40.4144 28.0933 38.4461 27.98 36.2949C28.0004 34.271 28.6018 32.5507 29.8125 30.9374C29.9425 30.7631 29.9425 30.7631 30.0751 30.5853C32.8731 27.3107 37.7397 27.461 41.0565 29.7185ZM34.1279 34.8573C33.8342 35.4012 33.684 35.7945 33.8022 36.4141C34.0389 37.1875 34.4551 37.7034 35.1562 38.1093C35.7632 38.3215 36.1867 38.2788 36.7998 38.0917C37.5171 37.6857 37.9516 37.3216 38.1797 36.5185C38.2975 35.8377 38.1966 35.3196 37.8281 34.7343C37.4298 34.3085 36.9922 33.9223 36.3977 33.857C35.3497 33.8269 34.8058 34.0146 34.1279 34.8573Z" fill="url(#paint1_linear_399_908)"/>
</g>
<defs>
<linearGradient id="paint0_linear_399_908" x1="-14.7079" y1="10.7365" x2="102.022" y2="52.5704" gradientUnits="userSpaceOnUse">
<stop offset="0.00899994" stop-color="#8FEEFC"/>
<stop offset="0.529" stop-color="#4E8AEE"/>
<stop offset="1" stop-color="#0048FF"/>
</linearGradient>
<linearGradient id="paint1_linear_399_908" x1="23.9762" y1="30.4575" x2="51.1629" y2="40.9104" gradientUnits="userSpaceOnUse">
<stop offset="0.00899994" stop-color="#8FEEFC"/>
<stop offset="0.529" stop-color="#4E8AEE"/>
<stop offset="1" stop-color="#0048FF"/>
</linearGradient>
<clipPath id="clip0_399_908">
<rect width="72" height="72" fill="white"/>
</clipPath>
</defs>
</svg>
