<svg width="72" height="30" viewBox="0 0 72 30" fill="none" xmlns="http://www.w3.org/2000/svg">
<path d="M15.0957 19.0469C15.0957 18.6816 15.0384 18.3594 14.9238 18.0801C14.8164 17.7936 14.623 17.5358 14.3438 17.3066C14.0716 17.0775 13.6921 16.859 13.2051 16.6514C12.7253 16.4437 12.1165 16.2324 11.3789 16.0176C10.6055 15.7884 9.90723 15.5342 9.28418 15.2549C8.66113 14.9684 8.1276 14.6426 7.68359 14.2773C7.23958 13.9121 6.89941 13.4932 6.66309 13.0205C6.42676 12.5479 6.30859 12.0072 6.30859 11.3984C6.30859 10.7897 6.43392 10.2275 6.68457 9.71191C6.93522 9.19629 7.29329 8.7487 7.75879 8.36914C8.23145 7.98242 8.79362 7.68164 9.44531 7.4668C10.097 7.25195 10.8239 7.14453 11.626 7.14453C12.8005 7.14453 13.7959 7.37012 14.6123 7.82129C15.4359 8.2653 16.0625 8.84896 16.4922 9.57227C16.9219 10.2884 17.1367 11.0547 17.1367 11.8711H15.0742C15.0742 11.2839 14.9489 10.7646 14.6982 10.3135C14.4476 9.85514 14.068 9.49707 13.5596 9.23926C13.0511 8.97428 12.4066 8.8418 11.626 8.8418C10.8883 8.8418 10.2796 8.9528 9.7998 9.1748C9.31999 9.39681 8.96191 9.69759 8.72559 10.0771C8.49642 10.4567 8.38184 10.89 8.38184 11.377C8.38184 11.7064 8.44987 12.0072 8.58594 12.2793C8.72917 12.5443 8.94759 12.7913 9.24121 13.0205C9.54199 13.2497 9.92155 13.4609 10.3799 13.6543C10.8454 13.8477 11.4004 14.0339 12.0449 14.2129C12.9329 14.4635 13.6992 14.7428 14.3438 15.0508C14.9883 15.3587 15.5182 15.7061 15.9336 16.0928C16.3561 16.4723 16.6676 16.9056 16.8682 17.3926C17.0758 17.8724 17.1797 18.4167 17.1797 19.0254C17.1797 19.6628 17.0508 20.2393 16.793 20.7549C16.5352 21.2705 16.1663 21.7109 15.6865 22.0762C15.2067 22.4414 14.6302 22.7243 13.957 22.9248C13.291 23.1182 12.5462 23.2148 11.7227 23.2148C10.9993 23.2148 10.2868 23.1146 9.58496 22.9141C8.8903 22.7135 8.25651 22.4128 7.68359 22.0117C7.11784 21.6107 6.66309 21.1165 6.31934 20.5293C5.98275 19.9349 5.81445 19.2474 5.81445 18.4668H7.87695C7.87695 19.0039 7.98079 19.4658 8.18848 19.8525C8.39616 20.2321 8.67904 20.5472 9.03711 20.7979C9.40234 21.0485 9.81413 21.2347 10.2725 21.3564C10.738 21.471 11.2214 21.5283 11.7227 21.5283C12.446 21.5283 13.0583 21.4281 13.5596 21.2275C14.0609 21.027 14.4404 20.7406 14.6982 20.3682C14.9632 19.9958 15.0957 19.5553 15.0957 19.0469ZM24.3877 11.377V12.9023H18.1035V11.377H24.3877ZM20.2305 8.55176H22.2178V20.1211C22.2178 20.515 22.2786 20.8122 22.4004 21.0127C22.5221 21.2132 22.6797 21.3457 22.873 21.4102C23.0664 21.4746 23.2741 21.5068 23.4961 21.5068C23.6608 21.5068 23.8327 21.4925 24.0117 21.4639C24.1979 21.4281 24.3376 21.3994 24.4307 21.3779L24.4414 23C24.2839 23.0501 24.0762 23.0967 23.8184 23.1396C23.5677 23.1898 23.2633 23.2148 22.9053 23.2148C22.4183 23.2148 21.9707 23.1182 21.5625 22.9248C21.1543 22.7314 20.8285 22.4092 20.585 21.958C20.3486 21.4997 20.2305 20.8838 20.2305 20.1104V8.55176ZM31.542 23.2148C30.7327 23.2148 29.9987 23.0788 29.3398 22.8066C28.6882 22.5273 28.126 22.137 27.6533 21.6357C27.1878 21.1344 26.8298 20.54 26.5791 19.8525C26.3285 19.165 26.2031 18.4131 26.2031 17.5967V17.1455C26.2031 16.2002 26.3428 15.3587 26.6221 14.6211C26.9014 13.8763 27.2809 13.2461 27.7607 12.7305C28.2406 12.2148 28.7848 11.8245 29.3936 11.5596C30.0023 11.2946 30.6325 11.1621 31.2842 11.1621C32.1149 11.1621 32.8311 11.3053 33.4326 11.5918C34.0413 11.8783 34.5391 12.2793 34.9258 12.7949C35.3125 13.3034 35.599 13.9049 35.7852 14.5996C35.9714 15.2871 36.0645 16.0391 36.0645 16.8555V17.7471H27.3848V16.125H34.0771V15.9746C34.0485 15.459 33.9411 14.9577 33.7549 14.4707C33.5758 13.9837 33.2894 13.5827 32.8955 13.2676C32.5016 12.9525 31.9645 12.7949 31.2842 12.7949C30.833 12.7949 30.4176 12.8916 30.0381 13.085C29.6585 13.2712 29.3327 13.5505 29.0605 13.9229C28.7884 14.2952 28.5771 14.75 28.4268 15.2871C28.2764 15.8242 28.2012 16.4437 28.2012 17.1455V17.5967C28.2012 18.1481 28.2764 18.6673 28.4268 19.1543C28.5843 19.6341 28.8099 20.0566 29.1035 20.4219C29.4043 20.7871 29.766 21.0736 30.1885 21.2812C30.6182 21.4889 31.1051 21.5928 31.6494 21.5928C32.3512 21.5928 32.9456 21.4495 33.4326 21.1631C33.9196 20.8766 34.3457 20.4935 34.7109 20.0137L35.9141 20.9697C35.6634 21.3493 35.3447 21.7109 34.958 22.0547C34.5713 22.3984 34.0951 22.6777 33.5293 22.8926C32.9707 23.1074 32.3083 23.2148 31.542 23.2148ZM40.3721 13.6113V27.4688H38.374V11.377H40.2002L40.3721 13.6113ZM48.2031 17.0918V17.3174C48.2031 18.1624 48.1029 18.9466 47.9023 19.6699C47.7018 20.3861 47.4082 21.0091 47.0215 21.5391C46.6419 22.069 46.1729 22.4808 45.6143 22.7744C45.0557 23.068 44.4147 23.2148 43.6914 23.2148C42.9538 23.2148 42.3021 23.0931 41.7363 22.8496C41.1706 22.6061 40.6908 22.2516 40.2969 21.7861C39.903 21.3206 39.5879 20.762 39.3516 20.1104C39.1224 19.4587 38.9648 18.7246 38.8789 17.9082V16.7051C38.9648 15.8457 39.126 15.0758 39.3623 14.3955C39.5986 13.7152 39.9102 13.1351 40.2969 12.6553C40.6908 12.1683 41.167 11.7995 41.7256 11.5488C42.2842 11.291 42.9287 11.1621 43.6592 11.1621C44.3896 11.1621 45.0378 11.3053 45.6035 11.5918C46.1693 11.8711 46.6455 12.2721 47.0322 12.7949C47.4189 13.3177 47.709 13.9443 47.9023 14.6748C48.1029 15.3981 48.2031 16.2038 48.2031 17.0918ZM46.2051 17.3174V17.0918C46.2051 16.5117 46.1442 15.9674 46.0225 15.459C45.9007 14.9434 45.7109 14.4922 45.4531 14.1055C45.2025 13.7116 44.8802 13.4036 44.4863 13.1816C44.0924 12.9525 43.6234 12.8379 43.0791 12.8379C42.5778 12.8379 42.141 12.9238 41.7686 13.0957C41.4033 13.2676 41.0918 13.5003 40.834 13.7939C40.5762 14.0804 40.3649 14.4098 40.2002 14.7822C40.0426 15.1475 39.9245 15.527 39.8457 15.9209V18.7031C39.9889 19.2044 40.1895 19.6771 40.4473 20.1211C40.7051 20.5579 41.0488 20.9124 41.4785 21.1846C41.9082 21.4495 42.4489 21.582 43.1006 21.582C43.6377 21.582 44.0996 21.471 44.4863 21.249C44.8802 21.0199 45.2025 20.7083 45.4531 20.3145C45.7109 19.9206 45.9007 19.4694 46.0225 18.9609C46.1442 18.4453 46.2051 17.8975 46.2051 17.3174ZM58.8809 14.2021H60.2988C60.9935 14.2021 61.5664 14.0876 62.0176 13.8584C62.4759 13.6221 62.8161 13.3034 63.0381 12.9023C63.2673 12.4941 63.3818 12.0358 63.3818 11.5273C63.3818 10.9258 63.2816 10.4209 63.0811 10.0127C62.8805 9.60449 62.5798 9.29655 62.1787 9.08887C61.7777 8.88118 61.2692 8.77734 60.6533 8.77734C60.0947 8.77734 59.6006 8.88835 59.1709 9.11035C58.7484 9.3252 58.4154 9.63314 58.1719 10.0342C57.9355 10.4352 57.8174 10.9079 57.8174 11.4521H55.8301C55.8301 10.6572 56.0306 9.93392 56.4316 9.28223C56.8327 8.63053 57.3949 8.11133 58.1182 7.72461C58.8486 7.33789 59.6937 7.14453 60.6533 7.14453C61.5986 7.14453 62.4258 7.31283 63.1348 7.64941C63.8438 7.97884 64.3952 8.47298 64.7891 9.13184C65.1829 9.78353 65.3799 10.5964 65.3799 11.5703C65.3799 11.9642 65.2868 12.3867 65.1006 12.8379C64.9215 13.2819 64.6387 13.6973 64.252 14.084C63.8724 14.4707 63.3783 14.7894 62.7695 15.04C62.1608 15.2835 61.4303 15.4053 60.5781 15.4053H58.8809V14.2021ZM58.8809 15.835V14.6426H60.5781C61.5736 14.6426 62.3971 14.7607 63.0488 14.9971C63.7005 15.2334 64.2126 15.5485 64.585 15.9424C64.9645 16.3363 65.2295 16.7695 65.3799 17.2422C65.5374 17.7077 65.6162 18.1732 65.6162 18.6387C65.6162 19.3691 65.4909 20.0173 65.2402 20.583C64.9967 21.1488 64.6494 21.6286 64.1982 22.0225C63.7542 22.4163 63.2314 22.7135 62.6299 22.9141C62.0283 23.1146 61.373 23.2148 60.6641 23.2148C59.9837 23.2148 59.3428 23.1182 58.7412 22.9248C58.1468 22.7314 57.6204 22.4521 57.1621 22.0869C56.7038 21.7145 56.3457 21.2598 56.0879 20.7227C55.8301 20.1784 55.7012 19.5589 55.7012 18.8643H57.6885C57.6885 19.4085 57.8066 19.8848 58.043 20.293C58.2865 20.7012 58.6302 21.0199 59.0742 21.249C59.5254 21.471 60.0553 21.582 60.6641 21.582C61.2728 21.582 61.7956 21.4782 62.2324 21.2705C62.6764 21.0557 63.0166 20.7334 63.2529 20.3037C63.4964 19.874 63.6182 19.3333 63.6182 18.6816C63.6182 18.0299 63.4821 17.4964 63.21 17.0811C62.9378 16.6585 62.5511 16.347 62.0498 16.1465C61.5557 15.9388 60.972 15.835 60.2988 15.835H58.8809Z" fill="url(#paint0_linear_840_2281)"/>
<defs>
<linearGradient id="paint0_linear_840_2281" x1="-11.25" y1="7.3" x2="44.578" y2="68.4272" gradientUnits="userSpaceOnUse">
<stop offset="0.00899994" stop-color="#8FEEFC"/>
<stop offset="0.529" stop-color="#4E8AEE"/>
<stop offset="1" stop-color="#0048FF"/>
</linearGradient>
</defs>
</svg>
