<svg width="50" height="50" viewBox="0 0 50 50" fill="none" xmlns="http://www.w3.org/2000/svg">
<path d="M34.5711 7.39063C34.644 7.41052 34.7169 7.43041 34.7921 7.4509C36.6491 7.96716 38.2668 8.90247 39.7469 10.125C39.8246 10.1892 39.8246 10.1892 39.904 10.2548C40.5888 10.8295 41.1574 11.4674 41.7 12.1758C41.7959 12.2953 41.7959 12.2953 41.8938 12.4173C43.666 14.7105 44.5526 17.6526 44.5503 20.5315C44.5503 20.6246 44.5503 20.7178 44.5503 20.8137C44.5432 21.7029 44.5222 22.6544 44.2391 23.5039C44.3456 23.5415 44.3456 23.5415 44.4542 23.5798C45.6638 24.1086 46.6313 25.3163 47.2664 26.4336C47.3116 26.5119 47.3568 26.5902 47.4033 26.6709C48.3214 28.373 48.5113 30.5036 48.045 32.3712C47.4109 34.4569 46.1133 36.2407 44.1816 37.2926C43.035 37.8859 41.9173 38.18 40.6258 38.2012C40.5119 38.2039 40.5119 38.2039 40.3958 38.2067C39.7389 38.1994 39.2138 38.0032 38.7398 37.542C38.3599 36.9228 38.1729 36.348 38.3209 35.6163C38.4912 35.0414 38.8504 34.6578 39.3562 34.3438C39.8376 34.1757 40.2966 34.1143 40.8028 34.0691C41.7676 33.9637 42.6038 33.6167 43.2625 32.8789C43.9658 31.9218 44.2544 30.9377 44.1414 29.7539C43.9765 28.8279 43.5217 27.9269 42.7719 27.3423C42.262 27.0056 41.7322 26.7575 41.1446 26.5923C40.6614 26.4415 40.3381 26.1549 40.0398 25.75C39.6653 24.9959 39.7749 24.1345 40.0276 23.3574C40.0631 23.2521 40.0986 23.1467 40.1352 23.0381C40.8812 20.6835 40.3853 18.0602 39.2769 15.9111C37.9958 13.6941 36.0321 12.0712 33.5655 11.3671C31.0153 10.6951 28.4371 11.0604 26.1467 12.3562C24.6535 13.308 23.5173 14.5662 22.6736 16.1161C22.3132 16.7742 21.9494 17.4105 21.1922 17.6445C20.3325 17.7616 19.7451 17.6003 18.9808 17.215C17.47 16.4939 15.6974 16.4371 14.1079 16.9297C12.2625 17.6345 10.9515 18.8547 10.1055 20.6257C9.74802 21.4688 9.54948 22.3359 9.57529 23.2529C9.5784 23.4298 9.5784 23.4298 9.58158 23.6103C9.58678 23.856 9.59313 24.1017 9.60065 24.3473C9.61297 25.2037 9.54615 25.7567 8.93633 26.397C8.65087 26.6142 8.33688 26.7601 8.01469 26.9158C6.95744 27.432 6.35685 28.1291 5.97002 29.2534C5.67639 30.3685 5.86452 31.4015 6.40337 32.4028C6.96594 33.2841 7.7807 33.8145 8.78984 34.0508C9.49443 34.125 10.2074 34.1029 10.9149 34.0995C11.1301 34.0998 11.3453 34.1004 11.5605 34.1011C12.0223 34.1022 12.484 34.1022 12.9458 34.1012C13.6763 34.0997 14.4068 34.101 15.1373 34.1028C16.1617 34.105 17.186 34.106 18.2103 34.1059C18.2752 34.1059 18.3401 34.1059 18.4069 34.1059C18.6698 34.1058 18.9326 34.1058 19.1955 34.1058C19.9195 34.1057 20.6435 34.1058 21.3675 34.1061C21.4647 34.1061 21.4647 34.1061 21.564 34.1061C22.6467 34.1066 23.7294 34.1082 24.8121 34.1105C25.538 34.112 26.2639 34.1119 26.9897 34.1107C27.4414 34.1103 27.8931 34.111 28.3448 34.1121C28.5539 34.1123 28.763 34.112 28.972 34.1112C29.258 34.1102 29.5439 34.1109 29.8299 34.1121C29.9121 34.1114 29.9943 34.1107 30.079 34.1099C30.7502 34.1158 31.3377 34.2592 31.9161 34.6062C32.3703 35.0864 32.5451 35.5368 32.5752 36.1992C32.5551 36.7688 32.4082 37.1409 32.032 37.5664C31.6461 37.9241 31.2896 38.1764 30.7541 38.1775C30.675 38.1781 30.5959 38.1787 30.5144 38.1794C30.4281 38.1791 30.3418 38.1788 30.2528 38.1785C30.1607 38.1789 30.0685 38.1794 29.9736 38.1798C29.664 38.181 29.3544 38.1809 29.0448 38.1807C28.8231 38.1813 28.6014 38.182 28.3797 38.1827C27.7766 38.1844 27.1734 38.1849 26.5703 38.185C26.1931 38.1852 25.8159 38.1856 25.4388 38.1861C24.1899 38.1878 22.9409 38.1887 21.692 38.1886C21.591 38.1886 21.591 38.1886 21.488 38.1885C21.4205 38.1885 21.3531 38.1885 21.2837 38.1885C20.1938 38.1884 19.104 38.1903 18.0142 38.1931C16.8934 38.1959 15.7727 38.1972 14.6519 38.197C14.0234 38.197 13.3949 38.1975 12.7664 38.1996C12.1742 38.2015 11.582 38.2015 10.9898 38.2001C10.7735 38.1999 10.5572 38.2004 10.3408 38.2015C8.82506 38.2093 7.38535 38.1303 6.01885 37.3955C5.95445 37.362 5.89006 37.3285 5.82372 37.294C5.26052 36.9918 4.76947 36.6309 4.29765 36.1992C4.19776 36.1127 4.19776 36.1127 4.09586 36.0245C2.71585 34.7552 1.81372 32.7545 1.73532 30.8903C1.68246 28.5598 2.34988 26.572 3.93221 24.8227C4.34746 24.394 4.76949 24.0185 5.27422 23.6992C5.33867 23.6992 5.40312 23.6992 5.46953 23.6992C5.46613 23.6198 5.46273 23.5404 5.45923 23.4585C5.39211 20.6172 6.46448 17.9531 8.39922 15.8867C8.47021 15.8079 8.54121 15.7291 8.61436 15.6479C10.3835 13.7674 12.998 12.625 15.5682 12.5336C15.7847 12.5308 16.0013 12.5296 16.2178 12.5298C16.3889 12.5295 16.3889 12.5295 16.5635 12.5292C17.4375 12.5393 18.2395 12.661 19.083 12.8811C19.4123 12.9523 19.5232 12.9678 19.825 12.8594C20.0028 12.6555 20.0028 12.6555 20.1668 12.3955C22.1832 9.5234 25.3305 7.82758 28.7117 7.09766C30.5986 6.79002 32.7364 6.86294 34.5711 7.39063Z" fill="url(#paint0_linear_293_8346)"/>
<path d="M26.2246 17.4894C26.7588 17.8864 27.2162 18.3775 27.6844 18.8486C27.8008 18.9648 27.9172 19.0809 28.0337 19.197C28.2765 19.4394 28.5188 19.6824 28.7608 19.9257C29.0702 20.2368 29.3809 20.5465 29.692 20.8559C29.9322 21.095 30.1717 21.3349 30.4111 21.575C30.5253 21.6894 30.6399 21.8037 30.7546 21.9178C30.9149 22.0773 31.0742 22.2378 31.2334 22.3985C31.324 22.4895 31.4147 22.5804 31.5081 22.674C31.9571 23.1956 32.148 23.7249 32.1289 24.4062C32.0107 25.0071 31.7922 25.5181 31.2878 25.8894C30.7277 26.2234 30.1299 26.2584 29.4922 26.1641C29.0743 25.9911 28.7669 25.7742 28.4363 25.4683C28.3611 25.3995 28.286 25.3308 28.2086 25.26C27.9602 25.0215 27.7161 24.7797 27.4728 24.536C27.3938 24.4568 27.3147 24.3777 27.2333 24.2961C27.173 24.2358 27.1128 24.1754 27.0508 24.1133C27.0509 24.2068 27.051 24.3002 27.051 24.3965C27.0514 25.2801 27.0487 26.1637 27.043 27.0472C27.0401 27.5014 27.0384 27.9555 27.0391 28.4097C27.0397 28.8486 27.0375 29.2873 27.0334 29.7262C27.0323 29.8931 27.0322 30.06 27.0332 30.2269C27.0412 31.8041 27.0412 31.8041 26.5212 32.4543C26.0383 32.9406 25.6871 33.0269 25.0122 33.061C24.4436 33.0435 24.08 32.9393 23.6199 32.609C23.1445 32.1008 22.9887 31.6398 22.9936 30.9536C22.9926 30.8792 22.9916 30.8048 22.9905 30.7282C22.9877 30.4846 22.9875 30.2411 22.9874 29.9974C22.9859 29.8276 22.9843 29.6578 22.9825 29.488C22.9782 29.0429 22.9763 28.5977 22.9748 28.1525C22.9729 27.6975 22.9688 27.2425 22.9649 26.7876C22.9575 25.8961 22.9526 25.0047 22.9492 24.1133C22.905 24.1586 22.8607 24.2039 22.8151 24.2505C22.6121 24.4576 22.4084 24.6638 22.2046 24.8701C22.135 24.9414 22.0654 25.0126 21.9937 25.086C21.3714 25.714 20.8744 26.1721 19.9524 26.1946C19.4009 26.1866 18.9865 26.1312 18.5547 25.7734C18.1417 25.3215 17.8823 24.8537 17.8555 24.2357C17.9714 22.6039 19.8453 21.3258 20.9318 20.2318C21.1581 20.0038 21.3835 19.775 21.6082 19.5454C21.8819 19.2658 22.1569 18.9877 22.4331 18.7107C22.5372 18.6057 22.6408 18.5003 22.7438 18.3944C23.7587 17.3526 24.8437 16.6093 26.2246 17.4894Z" fill="url(#paint1_linear_293_8346)"/>
<defs>
<linearGradient id="paint0_linear_293_8346" x1="-9.90707" y1="11.6094" x2="58.6302" y2="50.6006" gradientUnits="userSpaceOnUse">
<stop offset="0.00899994" stop-color="#8FEEFC"/>
<stop offset="0.529" stop-color="#4E8AEE"/>
<stop offset="1" stop-color="#0048FF"/>
</linearGradient>
<linearGradient id="paint1_linear_293_8346" x1="14.2868" y1="19.4937" x2="39.1897" y2="28.0092" gradientUnits="userSpaceOnUse">
<stop offset="0.00899994" stop-color="#8FEEFC"/>
<stop offset="0.529" stop-color="#4E8AEE"/>
<stop offset="1" stop-color="#0048FF"/>
</linearGradient>
</defs>
</svg>
